<?xml version="1.0" encoding="UTF-8"?>
<svg id="Layer_2" xmlns="http://www.w3.org/2000/svg" viewBox="0 0 344.57 516.3">
  <defs>
    <style>
      .cls-1 {
        fill: #fdfcfd;
      }

      .cls-2 {
        fill: #ae9eb3;
      }

      .cls-3 {
        fill: #d9d2dc;
      }

      .cls-4 {
        fill: #261c2c;
      }

      .cls-5 {
        fill: #d9d1dc;
      }

      .cls-6 {
        fill: #151121;
      }

      .cls-7 {
        fill: #dad1e0;
      }

      .cls-8 {
        fill: #dad0dd;
      }

      .cls-9 {
        fill: #371a46;
      }

      .cls-10 {
        fill: #fefefe;
      }

      .cls-11 {
        fill: #3a294e;
      }

      .cls-12 {
        fill: #9d8ca4;
      }

      .cls-13 {
        fill: #fdfcfc;
      }

      .cls-14 {
        fill: #bfbace;
      }

      .cls-15 {
        fill: #a08ead;
      }

      .cls-16 {
        fill: #fff;
      }

      .cls-17 {
        fill: #fbf8f9;
      }

      .cls-18 {
        fill: #160d1c;
      }

      .cls-19 {
        fill: #332043;
      }

      .cls-20 {
        fill: #d8d0db;
      }

      .cls-21 {
        fill: #9e8da2;
      }

      .cls-22 {
        fill: #fdfbfb;
      }

      .cls-23 {
        fill: #716879;
      }

      .cls-24 {
        fill: #dad0dc;
      }

      .cls-25 {
        fill: #d7d2dd;
      }

      .cls-26 {
        fill: #fefdfe;
      }

      .cls-27 {
        fill: #30243b;
      }

      .cls-28 {
        fill: #d2cbd8;
      }

      .cls-29 {
        fill: #f4f1f3;
      }

      .cls-30 {
        fill: #fefdfd;
      }

      .cls-31 {
        fill: #2e2637;
      }

      .cls-32 {
        fill: #d5cedb;
      }

      .cls-33 {
        fill: #f8f5f7;
      }

      .cls-34 {
        fill: #d6cbdb;
      }

      .cls-35 {
        fill: #d8d0dc;
      }

      .cls-36 {
        fill: #2b254e;
      }

      .cls-37 {
        fill: #3e6dae;
      }

      .cls-38 {
        fill: #2a1b3b;
      }

      .cls-39 {
        fill: #fcfbfc;
      }

      .cls-40 {
        fill: #dad1de;
      }

      .cls-41 {
        fill: #fcf9fb;
      }

      .cls-42 {
        fill: #c9bbce;
      }

      .cls-43 {
        fill: #fdfafb;
      }

      .cls-44 {
        fill: #46a1d8;
      }

      .cls-45 {
        fill: #2f243a;
      }

      .cls-46 {
        fill: #dbd0dd;
      }

      .cls-47 {
        fill: #7a6585;
      }

      .cls-48 {
        fill: #d4c4d5;
      }

      .cls-49 {
        fill: #dccfdc;
      }

      .cls-50 {
        fill: #302439;
      }

      .cls-51 {
        fill: #9b8aa1;
      }

      .cls-52 {
        fill: #d9d2db;
      }

      .cls-53 {
        fill: #fcfcfc;
      }

      .cls-54 {
        fill: #f6f3f3;
      }

      .cls-55 {
        fill: #c4b2d1;
      }

      .cls-56 {
        fill: #d9d0de;
      }

      .cls-57 {
        fill: #f9f7f8;
      }

      .cls-58 {
        fill: #fcfafb;
      }

      .cls-59 {
        fill: #d9ccdc;
      }

      .cls-60 {
        fill: #31213f;
      }

      .cls-61 {
        fill: #a497b3;
      }

      .cls-62 {
        fill: #a7c5dd;
      }

      .cls-63 {
        fill: #160f1f;
      }

      .cls-64 {
        fill: #eee7ec;
      }
    </style>
  </defs>
  <g id="Layer_1-2" data-name="Layer_1">
    <g>
      <path class="cls-60" d="M91.18,309.12c-28.94-3.29-53.74-13.88-69.89-39.67-.95-1.52-1.51-3.28-2.26-4.92.02-2.8,0-5.62,2.59-7.53,2.31.56,2.74,2.73,3.62,4.42,9.39,17.91,24.43,28.84,43.18,35.31,3.9,1.35,7.04.75,9.96-2.2,3.18-3.21,6.1-6.55,7.76-10.83,4.3-8.86,5.3-18.36,5.58-28.04.1-3.64-.97-5.94-4.71-6.99-5.37-1.5-9.99-4.6-13.95-8.37-3.11-2.97-5.48-3.82-8.49-.11-1.23,1.52-2.97,2.68-5.2,2.45-3.14-2.21-1.19-4.37.31-6.18,2.63-3.17,5.11-6.4,6.85-10.16.77-1.67,1.36-3.33,1.18-5.2,1.01-11.36-4.67-18.78-14.13-23.97-1.15-.63-2.43-1.11-2.9-2.51,1.83-3.28-1.2-6.39-.35-9.64,2.01-1.15,3.45-.23,4.74,1.28.3,2.06.79,3.55,3.11,4.73,13.13,6.64,19.17,20.78,15.03,34.83-.61,2.08-.3,3.36,1.02,4.88,6.74,7.77,15.24,12.2,25.4,13.43,1.91.23,3.96.61,4.49-2.42,1.93-11.13,8.21-19.4,18.02-25.86-6.94-6.24-13.96-12.2-18.77-19.85-3.91-6.2-8.74-9.55-15.95-9.78-1.3-.04-2.57-.74-3.88-.88-14.12-1.53-21.16-10.19-24.2-23.35-3.93-17.03-5.08-34.15-3.32-51.54.71-6.98,3.85-11.8,10.31-14.57,3.96-1.7,7.69-4.05,11.76-5.38,3.68-1.21,5.07-3.57,6.15-6.95,4.14-12.92,10.22-24.86,18.83-35.43,1.71.99,2.68,2.86,4.47,3.77,1.37,1.27,2.97,2.38,3.25,4.45-.13,2.11-1.35,3.71-2.65,5.17-6.84,7.65-12.41,16.15-17.08,25.26-1.77,3.11-3.33,6.29-3.54,9.95-3.64,3.09-5.02,7.42-6.48,11.71-.08.24-.55.3-.88.36-.51-.02-.96-.19-1.37-.51-2.02-3.02.18-6.14-.18-9.2-8.67.32-14.94,6.4-16.04,14.65-1.68,12.5-.28,24.8,1.61,37.1.83,5.24,2.1,10.35,3.88,15.37,2.32,6.55,6.68,10.52,13.57,11.55,2.74.41,5.34,1.76,8.51,1.3-1.27-6.71-6.57-11.97-6.3-19,4.26-2.95,6.41-2.21,9.8,3.37,0,3.19,1.24,5.99,2.82,8.68,11.06,21.6,26.75,38.95,48.24,50.38,34.03,18.11,68.93,19.53,104.08,3.25,24.09-11.16,41.77-29.14,53.85-52.69,1.99-2.46,3.68-5.06,3.73-8.4,2.03-7.06,5.01-9.81,11.07-10.2,1.45,3.72-.64,6.83-2.03,9.9-2.26,4.99-3.43,10.37-6.44,15.2,11.37.88,18.71-3.39,22.81-13.1,2.14-5.08,3.17-10.45,3.83-15.91,2.1-10.86,1.9-21.83,1.9-32.81,0-7.74-2.48-13.59-10.41-16.22-2.18-.72-4.21-1.97-6.09-3.38-2.2-2.36-5.31-2.62-8.17-3.5-2.41-2.35-2.38-6.09-4.81-8.43-5.04-9.53-11.12-18.39-17.42-27.11.76-2.75-3.68-5.12-.62-8.06.64-.35,1.22.34,1.86.12-.44-.47-.96-.83-1.46-1.23-.95-1.01-1.84-2.05-1.68-3.58.89-1.78,2.51-2.48,4.32-2.89,11.01,12.19,18.24,26.49,23.16,42.02.88,2.79,2.23,4.45,5,5.55,4.46,1.78,8.68,4.17,13.08,6.12,6.3,2.8,9.24,7.75,9.75,14.44,1.33,17.37.41,34.49-3.84,51.51-3.31,13.22-10.45,21.79-24.44,23.07-9.68.88-16.82,4.65-22.06,13.32-3.53,5.85-9.08,10.52-14.78,15.16,9.88,5.66,16.69,13.24,19.57,24,.51,1.92,2.44,2.63,3.89,3.69,10.24,7.51,19.91,15.62,27.5,25.92,15.53,21.07,12.74,41.09-8.08,56.85-2.92,2.21-4.16,4.26-3.89,8.14.83,12.04-3.99,19.73-15.04,24.19-3.48,1.41-3.21,3.73-3.11,6.34.43,12.09-2.98,22.65-12.19,30.93-1.11,1-2.18,2.2-3.51,2.76-5.16,2.19-6.18,6.26-6.69,11.44-1.92,19.37-4.31,38.69-6.63,58.02-.26,2.15-.49,3.77,1.96,4.87,4.26,1.91,7.04,5.44,9.3,9.41,4.4,5.85,2.38,14.91-4.37,19.32-4.44,2.9-9.44,4.06-14.65,4.22-14.58.46-29.17-.22-43.77.48-6.55.32-11.45-3.8-15.27-8.98-4.16-6.03-3.57-13.03-3.74-19.77-.27-10.31-.08-20.63-.07-30.95,0-10.07-.24-20.14.5-30.2-.33-.66-1.34.14-.7-.06.14-.04.2.01.25.15,1.23,3.4-.1,6.79-.05,10.18.29,19.29-.58,38.59.47,57.88.18,3.4-.75,6.59-2.07,9.68-3.96,8.61-10.91,11.88-20.12,11.74-12.8-.2-25.6-.07-38.4-.04-4.89.01-9.64-.7-14.09-2.73-8.86-4.05-12.03-14.53-6.73-21.94,1.92-2.7,3.63-5.88,6.77-7.09,4.54-1.76,4.38-4.94,3.91-8.76-2.37-19.44-4.67-38.89-6.88-58.35-.47-4.11-1.69-7.16-5.37-9.83-7.98-5.79-12.46-13.99-13.5-23.92,1.42-1.54-.32-3.56.78-5.16.88-.76,1.86-.83,2.92-.48,1.25.56,1.68,1.87,2.54,2.79.3.39.55.82.76,1.27,1.76,5.49,3.49,10.99,8.29,16.04-.75-7.02-.39-13.29-2.77-19.13-3.51-8.64-5.28-17.68-6.86-26.8-.07-2.08-.08-4.15,0-6.23,1.46-6.75.83-13.71,1.95-20.51.17-1.04.54-2.33-.75-3.1-.43-.09-.87-.14-1.31-.13-.66.15-1.32.3-2,.38-.96.09-1.89-.04-2.75-.5-4.31-2.82-9.02-2.07-13.7-1.51Z"/>
      <path class="cls-14" d="M119.15,480.15c-3.5,13.5,1.12,21.02,15.09,22.62,16.22,1.86,32.59.86,48.88.52,6.45-.14,10.72-4.76,13.93-10.12,2.69,1.01,5.26,2.34,8.13,2.82,4.97,5.89,11.18,8.07,18.95,7.68,10.6-.53,21.26-.15,31.89-.12,4,.01,7.95-.33,11.89-1.02,12.15-2.13,16.99-9.43,14.05-21.35,9.78,1.65,19.61,3.06,29.32,5.05,6.29,1.29,12.68,2.61,18.27,6.13,4.81,3.03,4.8,6.8-.47,9.15-8.03,3.59-16.49,5.93-25.15,7.65-15.65,3.09-31.53,3.65-47.35,5.11-26.89,2.48-53.82,2.21-80.73,1.69-19.19-.37-38.38-1.63-57.53-3.58-11.09-1.13-21.93-3.28-32.81-5.37-5.46-1.05-10.86-3.05-15.64-6.07-4.12-2.6-3.8-5.99.39-8.39,10.95-6.27,23.31-7.24,35.34-9.41,4.55-.82,9.27-.85,13.52-2.98Z"/>
      <path class="cls-19" d="M50.26,185.36c2.52,2.9,4.65,5.83.76,9.25-4.03,2.43-8.96,1.6-13.08,3.67-4.68,3.46-4.61,6.17.21,8.85,3.56,1.98,7.52,2.62,11.41,3.51,1.46.33,2.92.69,4.28,1.34,1.24.59,2.45,1.33,2.43,2.87-.01,1.47-1.03,2.86-2.28,2.97-7.84.7-9.5,7.28-12.55,12.66-4.64,8.19-9.64,12.11-19.22,15.4,2.24,1.36,4.56,1.56,6.74,2.2,1.65.49,4.18.52,4.08,2.82-.09,1.99-2.39,2.52-4.1,3.15-1.26.46-2.61.52-3.92.73-1.51.25-2.01,1.65-3.04,2.44-1.15,2.36-.97,5.27-2.96,7.29-3.4-10.08-9.89-18.34-15.51-27.19-6.82-10.74-3.41-24.1,7.36-34.03,3.67-3.39,7.65-6.44,12.17-8.57,2.69-1.26,3.21-2.94,2.36-5.47,1.91-.83,3.55.01,4.97,1.06,2.25,1.66,3.54.53,4.73-1.3,2.03-1.64,4.48-2.06,6.94-2.12,2.69-.07,5.17-.66,7.54-1.87.22.1.45.21.67.31Z"/>
      <path class="cls-45" d="M106.97,52.3c-2.99.18-3.49-1.97-3.91-4.19C120.91,24.16,144.62,8.73,173.67,2.89c46.24-9.29,85.77,3.84,117.94,38.54.55.59.94,1.33,1.4,2.01-.32,2.46-2.81,1.86-4.12,2.92-2.46.39-3.54-1.47-4.67-3.03-1.68-2.32-3.7-4.21-6.14-5.67C231.39-5.41,160.86-3.3,115.59,43.35c-1.37,2.04-3.84,3.15-4.78,5.56-.84,1.63-1.72,3.22-3.84,3.39Z"/>
      <path class="cls-27" d="M34.96,190.19c.14,3.46-2.29,3.27-3.96,2.09-1.79-1.26-3.76-1.96-5.59-3-2.07-9.93-3.54-19.9-1.4-30.02.72-3.42,1.86-6.64,4.45-9.21,6.58-6.53,16.05-5.68,21.32,2.21,3.35,5.01,5.49,10.56,5.5,16.73.48,2.59-2.79,4.08-1.96,6.63.64-1.4,1.4-2.47,2.72-.35.85,3.76-.22,7.36-.96,10.99-1.6-.3-3.2-.59-4.8-.89,0,0-.2-.18-.2-.18-2.02-1.97-1.36-4.49-1.39-6.86-.03-2.41.24-4.85-.51-7.2-.72-4.26-1.31-8.56-3.48-12.41-1.49-2.66-3.13-5.45-6.69-5.07-3.61.39-5.25,3.19-6.18,6.4-1.7,5.88-1.49,11.82-.53,17.78.83,4.24-.19,9.03,3.67,12.37Z"/>
      <path class="cls-6" d="M91.18,309.12c4.36-1.87,8.91-.61,13.37-.78,1.24-.05.67,1.15.59,1.88,1.61,1.56,1.48,3.58,1.48,5.58,0,15.25,0,30.5,0,45.75,0,1.99.18,4.02-1.43,5.6-.35,1.69.59,3.66-1.12,5.05-.03-.88-.07-1.76-.1-2.64-.79-13.05-.15-26.11-.33-39.17-.08-5.46-.19-10.93.06-16.38.14-3.08-.75-4.69-3.93-4.69-2.86-.07-5.73-.13-8.59-.2Z"/>
      <path class="cls-60" d="M99.77,309.33c2.71-.55,4.53-.16,4.5,3.3-.16,18.98-.21,37.95-.3,56.93-1.1-6.93-.38-13.91-.47-20.86-.14-11.46-.11-22.93.03-34.4.03-2.89-.48-4.85-3.77-4.98Z"/>
      <path class="cls-19" d="M56.02,175.26c-3.2-.91-1.59,1.46-1.58,2.49.01.88.12,1.78-.84,1.94-1.45.24-1.42-1-1.43-1.94-.05-3.3-.86-6.89,3.1-8.78,1.06,2,1.04,4.12.75,6.28Z"/>
      <path class="cls-9" d="M313.24,94.27c3.17-1.39,5.46.47,7.81,2.11-.66.92-.95,2.03-1.51,3.01-.08,8.12-1.04,16.18-1.1,24.3-.04,5.6-1.4,6.78-6.9,6.28-5.3-.48-8.99,1.36-11,6.42-1.4,3.51-3.98,5.98-7.19,7.96-4.64,2.86-9.49,5.45-13.35,9.44-2.5,2.58-5.55,2.65-8.75,1.59-1.12-.41-1.96-1.22-2.81-2.02-2.56-2.38-5.33-4.24-8.93-2.31-3.77,2.02-5.31,5.31-4.98,9.56.13,1.69.73,3.24,1.16,4.84,1.54,3.38,3.18,4.4,4.88,3.02,1.64-.88,3.28-1.41,5.02-.26,1.45,1.75,3.76,3.33,2.71,5.95-1.13,2.83-4.01,2.59-6.47,2.63-11.54.21-22.42,4.01-33.6,6.13-13.69,2.59-27.35,5.37-41.32,5.8-4.81.15-9.63-.61-13.85-3.38-1.12-.73-2.39-1.3-3.74-1.28-5.73.08-11.11-2.13-16.63-2.7-13.85-1.42-24.16-10.68-36.48-15.4-5.04-1.93-4.18-7.41-4.8-11.76-.74-3.29.68-6.25,1.64-9.21,4.48-13.78,9.56-27.35,16.68-40.01,8.99-15.99,22.54-27.33,38.33-36.17,6.97-3.9,14.14-7.42,21.77-9.98-19.02.3-36.96,5.05-53.87,13.72-7.57,3.88-14.71,8.36-19.99,15.36-6.05,8.01-8.5,17.1-9.4,26.91-.91,9.85,0,19.56,1.37,29.27.21,1.48.44,2.96.19,4.47-.07.33-.13.66-.21.98-.51,2.09,1.41,4.97-1.55,6.23-2.72,1.16-5.41-.1-7.43-1.77-6.85-5.67-13.58-11.52-18.58-19.01-.85-1.27-1.47-2.61-1.52-4.16-.19-6.48-.15-12.95-.03-19.43.02-1.23.55-2.24,1.38-3.11,1.62-1.64.53-3.79,1.06-5.59.53-1.8-.88-5.59,3.76-3.94,1.25.45,1-1.66,1.22-2.7,1.6-2.83,2.69-5.91,4.42-8.68,13.83-22.56,34.02-37.27,58.06-47.3,12.4-5.17,25.43-7.52,38.67-9.04,1.49-.17,2.99-.02,4.46.3,7.33,1.2,14.77.14,22.14,1.37,2.97.5,6.1,1.52,9.25.7,3.22-.56,6.3.32,9.35,1.09,31.37,7.88,57.22,23.87,75.2,51.36.18.27.46.48.72.69,2.14,2.23,2.1,5.81,4.76,7.72Z"/>
      <path class="cls-16" d="M268.18,263.17c7.16,19.54,12.44,39.5,14.28,61.05-9.77-3.89-19.35-4.48-28.96-4.61-2.65-.03-3.23-1.12-3.32-3.6-.45-12.6-5.62-17.41-18.37-17.41-21.14-.01-42.28-.01-63.41-.04-11.84-.01-17.57,5.29-17.88,17.06-.08,3.05-.98,3.99-3.98,4.05-9.49.19-18.89,1.1-28.22,5.72.51-11.65,2.19-22.54,4.92-33.25,1.8-7.08,4.02-14.05,5.94-21.1.4-1.46,2.12-3.66.21-4.42-2.22-.88-2.67,1.93-3.38,3.45-2.03,4.35-3.89,8.78-5.81,13.18-.38.53-.7,1.27-1.26,1.48-8.17,3.02-16.41,3.56-24.7.48,3.39-10.31,5.11-20.85,4.69-31.73-.05-1.39-.51-3.25,1.9-3.2,12.09.27,21.33-6.08,30.3-13.04,2.39-1.44,4.18.25,5.92,1.33,21.91,13.65,45.88,19.52,71.47,17.97,21.55-1.3,41.19-8.8,59.08-20.88,2.04-1.38,3.92-3.18,6.73-2.54,20.67,9.9,39.13,22.68,52.5,41.68,5.93,8.43,9.23,17.69,4.95,28.92-4.87-6.38-10.65-10.81-17.83-13.28-7.25-2.49-14.61-2.91-22.16-1.13-.03-1.92,1.25-2.43,2.34-3.1.42-.73.13-1.36-.51-1.62-10.06-4.09-14.4-13.22-19.28-21.87-.32-.57-.45-1.27-.83-1.81-.92-1.34-1.86-3.33-3.73-2.54-1.87.78-3.06,2.54-1.56,4.8Z"/>
      <path class="cls-38" d="M80.17,108.3c0,6.96,0,13.92-.01,20.88,0,1.65-.31,3.56,1.12,4.67,4.68,3.64,5.94,10.53,12.2,12.67,1.44.49,2.15,1.97,2.97,3.24,1.49,2.31,3.63,3.75,6.29,4.56,2.77.84,5.31,1.75,3.6-2.9-.41-1.12-.34-2.3.77-3.14,2.5.89,2.39,3.25,2.66,5.19.3,2.15,1.47.52,2.19.76,1.48-.45,2.02-.4,1.55,1.54-1.16,4.85.48,8.04,5.47,10.09,7.47,3.07,15.02,6.12,21.57,11.06,1.84,1.39,4.08,1.48,6.18,1.64,7.74.61,14.87,4.72,22.9,3.76,4.16-.5,6.5,3.76,10.82,4.26,10.25,1.19,19.99-.99,29.97-2.11,11.52-1.28,22.6-4.54,33.94-6.56,7.11-1.26,14.04-2.82,21.3-2.87,1.97-.01,3.04-1.73.96-3.37-1.24-.98-2.62-1.58-1.56-3.46,2.41-4.43,4.34-9.05,5.79-13.88,4.26,1.09,7.3-.42,10.44-3.55,3.11-3.1,7.13-5.42,11.04-7.53,3.45-1.87,5.69-4.43,7.18-7.93,2.43-5.72,6.51-8.17,12.56-6.75,3.69.87,5.22-.03,4.93-3.63-.68-8.41,1.85-16.74.46-25.15-.19-1.15.73-1.3,1.57-1.44,2.5,1.46,2.69,4.09,3.08,6.49.86,5.41,1.58,10.96,1.3,16.33-.48,9.23-.3,18.61-3.02,27.62-1.25,1.73-.13,4.9-3.3,5.48-5.11,1.91-8.05,5.87-10.04,10.7-.34,2.83-2.12,4.92-3.62,7.17-22.36,30.16-51.76,49.26-89.16,54.02-29.94,3.82-57.9-3.22-82.96-20.47-13.79-9.49-26.24-20.41-35.64-34.46-.73-2.25-2.96-3.89-2.73-6.54-1.95-3.24-3.6-7.05-8.58-4.44-2.91-1.47-3.08-4.41-3.66-7.06-.59-2.7-.96-5.44-1.74-8.1-.91-5.23-2.24-10.41-1.95-15.78,1.08-4.93.97-9.86.1-14.8-.2-2.35-.04-4.6,2-6.23.35,0,.71,0,1.06.01Z"/>
      <path class="cls-3" d="M129.03,404.34c-.82-7.2-1.64-14.41-2.44-21.47,2.14-.88,3.15,2.6,4.77.56,1.32-1.66-.44-3.07-1.07-4.49-2.87-6.52-6.76-12.6-8.23-19.71.45-.33.94-.4,1.46-.22,1.87.9,3.2,2.42,4.26,4.11,10.13,16.14,25.4,24.4,43.44,28.43,23.26,5.19,46.3,4.35,68.95-3.06,13.92-4.55,24.87-13.25,32.83-25.56,3.6-5.57,2.94-6.84-3.74-7.83-4.27-.64-8.67-.45-12.88-1.46-2.85-.69-3.96,2.01-6.12,2.54-.38-9.83-.37-9.91,9.49-8.93,5.63.56,11.21,1.66,16.84,2.14,3.94.34,4.38,1.91,3.47,5.45-2.21,8.6-5.37,16.76-9.71,24.49-.73,1.3-2.89,2.64-1.15,4.25,1.73,1.6,2.7-1.17,4.88-1.58-1.72,14.6-2.07,29.11-4.9,43.37-2.47-2.3-1.62-5.24-1.39-7.97.3-3.46,1.09-6.87.99-10.33-1.36-1.02-2.33-.03-3.22.5-15.58,9.21-32.72,12.88-50.5,14.01-4.03.26-5.71,1.55-5.48,5.64.13,2.39.62,5.06-1.6,7-2.3-6.87-.82-13.94-.93-20.91-.03-1.76,2.07-1.16,3.27-1.33,7.24-.98,14.49-1.92,21.39-4.5,1.22-.46,3.1-.77,2.87-2.23-.33-2.1-2.41-1.29-3.73-1.11-20.2,2.73-40.39,2.71-60.59.05-1.32-.17-3.39-.98-3.72,1.13-.24,1.52,1.65,1.71,2.88,2.19,6.73,2.61,13.79,3.73,20.91,4.34,2.79.24,3.76,1.1,3.54,3.9-.47,6.05.69,12.19-.85,18.2-2.03-2.03-1.53-4.66-1.42-7.06.17-3.85-1.44-5.03-5.21-5.32-12.72-.99-25.32-2.74-37.4-7.31-7.02-2.65-13.21-6.84-19.97-9.96Z"/>
      <path class="cls-10" d="M250.28,356.19c.48-4.14,2.76-4.8,6.57-4.08,5.67,1.07,11.47,1.43,17.19,2.3,2.7.41,4.35,1.23,2.68,4.87-4.01,8.73-10.44,15.23-17.81,20.96-12.62,9.82-27.51,13.11-42.97,15.01-17.69,2.18-35.04.93-52.1-4.11-14.92-4.4-27.51-12.2-36.11-25.59-1.41-2.19-3.04-4.24-4.57-6.35-3.05-2.9-1.39-5.13,1.58-5.76,6.8-1.44,13.68-2.7,20.68-2.73,2.64-.01,4.1,1.23,4.32,4.27.24,3.44.74,6.92,1.87,10.26,1.64,4.83,3.94,6.81,9.03,7.08,6.64.35,13.29.08,19.93.13,19.6.14,39.2-.29,58.8.23.84.02,1.65-.16,2.41-.5,4.09-.86,6.07-3.58,6.81-7.54.36-1.94.85-3.87,1.31-5.8.13-.88.25-1.76.38-2.64Z"/>
      <path class="cls-16" d="M208.01,482.14c-1.63-12.75-.55-25.57-.92-38.35-.06-2.19.65-2.9,2.9-2.61,4.61.58,9.25,1.01,13.89,1.33,13.85.96,27.58.2,40.98-3.68,2.66-.77,3.27-.34,2.92,2.32-1.07,8.06-2.12,16.13-2.96,24.21-.31,2.97-1.47,3.84-4.44,3.69-5.14-.26-10.31-.24-15.4.86-1.27.27-3.07.26-2.83,2.05.24,1.83,2.1,1.22,3.3,1.21,6.67-.08,13.3.16,19.73,2.1,4.01,1.21,7.79,2.87,9.88,6.89,1.31,2.66-.17,4.06-2.36,5.02-2.15.93-4.46,1.34-6.78,1.51-15.73,1.18-31.48,1.56-47.25,1.14-.66-.02-1.32-.09-1.98-.17-7.04-.82-7.34-1.08-8.66-7.5Z"/>
      <path class="cls-16" d="M125.14,483.15c1.79-4.72,5.87-6.56,10.21-7.86,6.6-1.98,13.42-2.29,20.27-2.14,1.09.02,2.66.47,2.9-1.11.29-1.93-1.45-1.77-2.7-2.06-5.25-1.22-10.6-1.09-15.92-.98-2.37.05-3.67-.27-3.96-3.02-.87-8.28-1.92-16.54-3.07-24.79-.37-2.69.15-3.11,2.83-2.37,16.95,4.68,34.15,4.95,51.49,2.66,6.25-.83,6.31-.72,6.26,5.4-.11,11.33-.25,22.65-.47,33.98-.03,1.78.39,3.68-.7,5.35-1.6,2.37-4.07,2.64-6.61,2.66-11.77.09-23.53-.11-35.28.97-7.17.66-14.22-.81-21.16-2.52-1.97-.49-4.93-.62-4.08-4.15Z"/>
      <path class="cls-56" d="M96.19,170.27c14.79,19.36,32.65,35.2,55.14,44.84,47.06,20.17,89.97,11.48,129.1-20.13,8.54-6.9,15.87-15.02,22.45-23.8,1.72-.09,2.03.57,1.03,1.93-7.93,17.75-20.54,31.61-36.02,43.02-56.71,41.83-139.84,21.88-171.52-41.15-.45-.89-.79-1.83-1.19-2.74-.81-1.24-.76-2.05,1.01-1.97Z"/>
      <path class="cls-43" d="M191.15,32.43c-28.41,1.45-53.71,11.07-75.85,28.92-9.51,7.67-17.36,16.85-24.07,27.04-1.77,0-1.78-.92-1.16-2.19,4.81-11.15,12.53-20.31,20.22-29.49,2.39-4.75,6.45-8.04,10.48-11.16,20.06-15.52,42.52-24.78,68.05-26.92,34.97-2.93,65.58,7.3,92.69,28.99,3.72,2.98,7.62,5.97,9.35,10.76,7.15,8.31,13.51,17.13,18.11,27.14.81,1.4.53,2.12-1.2,1.93-10.04-14.49-22.15-26.84-37.37-35.92-14.39-8.59-29.63-14.93-46.39-17.15-10.93-1.13-21.89-1.6-32.87-1.95Z"/>
      <path class="cls-8" d="M21.99,257.24c-1-2.65-.99-4.36,2.76-3.99,2.81.28,5.59-.38,8.09-2.64-4.92-2-10.53-1.27-14.83-5.56,14.67-1.75,21.5-11.75,26.42-23.72.91-2.21,1.82-3.52,4.54-3.57,3.24-.06,3.9-.62,7.17-2.7-2.98-2.86-6.83-3.14-10.35-3.97-2.93-.68-5.82-1.37-8.54-2.62-2.31-1.06-4.72-2.28-4.53-5.31.17-2.8,1.44-5.09,4.45-5.9,2.35,2.92,5.64,4,9.15,4.47,11.13,1.5,18.88,6.85,21.27,18.42.16.76.88.9,1.5,1.11-.26,6.57-4.52,11.07-8.15,15.92-1.04,1.4-3.53,2.48-1.56,4.89-4.18,5.43-10.73,6.25-16.58,8.26-5.21,1.79-5.43,1.62-1.92,5.73,11.08,12.97,24.65,22.07,41.35,26.22,1.73.43,3.69.35,4.97,1.95-.63,1.34-1.13,2.76-1.9,4.01-7.01,11.4-10.88,12.65-23.11,7.58-18.41-7.64-32.5-19.78-40.2-38.58Z"/>
      <path class="cls-26" d="M192.87,341.28c-1.48-3.73-3.25-7.29-6.64-9.67-5.13-3.6-6.71-8.58-6.61-14.67.2-12.26.04-12.28,12.08-12.29,13.77-.02,27.54-.01,41.31,0,4.34,0,8.28.81,10.09,5.5,1.04,10.25.27,20.53.4,30.8.02,1.98-1.11,3.6-3.22,3.86-2.83.35-3.55-1.89-4.3-3.95-.37-1.62-.22-3.26-.04-4.91.7-6.12-1.79-10.74-6.88-12.84-4.82-1.98-10.52-.55-13.4,3.37-3.15,4.28-3,10.86.36,15.17.3.39.65.75.94,1.16.6.97.92,2,.68,3.15-1.69,4.11-5.65,4.78-9.22,5.92-3.3,1.06-6.71,1.78-10.22,1.8-3.18.01-4.81-1.22-4.7-4.77.08-2.51.93-5.21-.64-7.62Z"/>
      <path class="cls-52" d="M274.29,233.12c-7.91,4.82-15.41,10.25-23.95,14.1-26.55,11.97-53.74,14.41-81.89,6.68-12.39-3.4-23.98-8.38-34.67-15.51-.8-.53-1.79-.78-2.69-1.15,2.52-2.64,5.22-5.13,7.49-7.96,1.52-1.88,2.54-.69,3.78-.04,21.29,11.28,43.94,15.93,67.95,13.97,16.63-1.36,32.36-5.93,46.97-13.97,3.32-1.83,5.89-2.23,9.08-.2,2.5,1.59,5.28,2.74,7.93,4.09Z"/>
      <path class="cls-16" d="M87.19,284.23c-12.72-.96-23.39-6.85-33.48-14.03-6.54-4.66-11.92-10.53-16.89-16.8-1.22-1.54-2.25-2.71.77-3.26,7.73-1.4,14.88-4.41,21.78-8.07,3.09-1.38,5.71-3.4,7.81-6.03,1.41-1.76,2.35-1.66,3.82.05,5.12,5.94,11.56,9.94,19.06,12.18,1.58.47,2.73,1.03,2.76,2.94.17,11.36-.11,22.63-5.63,33.01Z"/>
      <path class="cls-10" d="M291.89,341.87c.58-4.03.7-7.99-1.97-11.46-.89-1.16-.63-2.54-.72-3.85-.54-8.31-1.49-16.58-3.69-24.6-1.16-4.25.32-5.78,4.05-7.12,12.6-4.52,28.62-.63,36.04,8.8,2.97,3.77,3.1,6.6-.45,10.31-5.86,6.12-13.15,10.12-19.93,14.89-1.31.92-2.96,1.43-3.96,3.43,3.08-.43,5.83-.82,8.58-1.21,2.23-.16,1.7,1.55,1.65,2.67-.32,6.97-10.6,14.35-17.42,12.64-2.64-.66-2.9-2.31-2.18-4.51Z"/>
      <path class="cls-30" d="M129.03,404.34c.64-2.55,1.81-.83,2.8-.33,7.2,3.65,14.09,7.86,21.92,10.31,10.99,3.44,22.22,5.25,33.62,5.65,4.78.17,6.11,1.62,5.63,6.03-.29,2.63,0,5.32.03,7.98-4.63,2.23-9.7,1.97-14.59,2.36-14.02,1.12-27.94.55-41.57-3.51-3.77-1.12-5.75-2.68-5.84-7.14-.14-7.13-1.28-14.23-1.99-21.35Z"/>
      <path class="cls-26" d="M207.99,434.25c.04-3.16.25-6.33.06-9.48-.21-3.33.76-4.68,4.41-4.73,10.3-.14,20.47-1.74,30.39-4.4,8.5-2.28,16.44-6.11,23.99-10.69,1.1-.67,2.32-1.99,3.54-1.09,1.15.84.46,2.46.31,3.76-.7,5.91-2.21,11.75-1.49,17.78.75,4.09-.85,6.34-5.02,7.25-4.29.94-8.42,2.64-12.91,2.61-14.48,2.18-28.88,1.36-43.26-1.01h-.03Z"/>
      <path class="cls-50" d="M290.87,58.37c-9.7-9.37-20.01-17.87-32.04-24.2-48.3-25.42-106.43-17.35-145.85,20.37-.83.79-1.79,1.45-2.68,2.17-.46-1.96-3.06-2.31-3.33-4.41,1.05-1.22,2.11-2.44,3.16-3.66,1.38-2.36,4.21-3.34,5.53-5.78,11.91-10.49,25.66-17.74,40.58-22.85,30.11-10.31,60.17-9.76,90.01,1,12.26,4.42,23.73,10.47,33.83,18.87,3.66,3.12,7.28,6.3,10.27,10.11.14.49.06.93-.28,1.32-1.89,2.6,3.77,4.34.81,7.06Z"/>
      <path class="cls-22" d="M79.11,108.29c-.19,2.02-1.64,3.88-.76,6.03.44,4.98.46,9.96-.01,14.94-.55,5.45,1.53,10.59,1.83,15.94,1.01,6.61.65,7.33-5.58,8.21-3.99.56-8.31,1.98-11.54-2.09-3.07-14.42-3.56-28.91-1.15-43.48.34-2.05,1.29-3.76,3.15-4.84,4.85-2.82,9.79-5.44,15.44-7.59.31,4.65-2.11,8.63-1.38,12.89Z"/>
      <path class="cls-1" d="M318.99,149.13c2.21-12.64,3.37-25.34,2.26-38.19-.37-4.27-.92-8.48-2.21-12.58.25-1.08.5-2.17,2.01-1.98,4.08,2.16,8.14,4.35,12.24,6.47,2.86,1.48,4.42,3.66,4.85,6.95,1.84,13.9,1.28,27.71-1.26,41.47-.4,1.48-1,2.89-2.69,3.18-4.43.76-8.88,1.05-13.03-1.07-1.58-.81-3.21-1.94-2.17-4.25Z"/>
      <path class="cls-39" d="M158.14,309.28c3-3.8,10.1-6.06,14.13-4.6,1.43.52,1.47,1.56,1.46,2.76-.02,2.64.15,5.3-.04,7.93-.64,8.85,1.74,16.29,9.31,21.64,1.57,1.11,2.87,2.75,3.26,4.83,1.68,10.99.33,12.22-10.35,9.58-5.5-1.36-10.75-3.37-15.79-5.94-2.78-1.41-4.1-3.52-4.04-6.77.14-7.13.12-14.26,0-21.39-.05-2.93,1.49-5.34,2.06-8.05Z"/>
      <path class="cls-35" d="M192.87,341.28c2.4,2.13.97,4.96,1.33,7.46.21,1.45-.11,3.44,2.01,3.3,7.51-.52,15.22-.62,20.88-6.84,1.12-.74,2.25-.27,3.35,0,6.16,1.54,11.14-.02,14.67-5.49.58-.51,1.18-.9,1.99-.5.94,1.66-.03,5.12,3.17,4.59,2.78-.46,2.78-3.29,2.78-5.7,0-9.32.03-18.63.05-27.95,1.68,1.63,1.12,3.75,1.13,5.67.01,12.32-.04,24.65-.14,36.97-.06,7.07-3.39,10.4-10.44,10.43-11.99.05-23.99-.13-35.97.12-3.75.08-4.35-1.33-4.29-4.62.1-5.81-.3-11.63-.5-17.45Z"/>
      <path class="cls-7" d="M243.12,373.21c-1.53,1.49-3.46.94-5.23.94-25.46.03-50.91.02-76.37.01-7.93,0-12.03-4.04-12.4-12.17-.47-10.35-.46-10.31-11.07-8.87-3.77.51-7.6.58-11.35,1.22-2.43.42-5.91.65-3.56,4.85-.36.02-.72.03-1.09.05-3.16-8.49-3.17-8.6,5.42-9.92,6.4-.98,12.87-1.53,19.28-2.43,2.85-.4,4.06.52,3.83,3.41-.11,1.32-.04,2.66,0,3.99.32,8.63,6.22,14.96,14.79,15.02,23.44.16,46.88.02,70.33.02,2.92,0,5.43-1.35,8.06-2.31,2,1.59,2.03,1.62.91,3.17-.68.94-2.45,1.29-1.57,3.03Z"/>
      <path class="cls-46" d="M125.14,483.15c.28,2.02,1.97,1.94,3.38,2.27,9.89,2.29,19.74,3.27,30.01,2.07,8.86-1.04,17.93-.3,26.91-.33,2.32,0,4.67.18,6.83-.97-1.3,7.45-5.4,11.19-12.72,11.25-12.28.09-24.57.15-36.85-.01-3.79-.05-7.64-.57-11.33-1.43-6.61-1.53-8.78-6.31-6.23-12.85Z"/>
      <path class="cls-24" d="M208.01,482.14c.77,5.36,5.13,5.79,9,5.85,17.85.25,35.73.61,53.5-1.82,2.47-.34,4.65-.85,4.54-4.02,3.39,6.93,1.21,12.06-6.03,13.93-5.01,1.29-10.17,1.53-15.3,1.57-10.45.07-20.89-.09-31.34-.12-9.5-.03-14.82-5.7-14.37-15.38Z"/>
      <path class="cls-25" d="M63.04,151.31c5.09,2.21,10.2.62,15.19-.23,3.44-.58,1.07-3.96,1.93-5.89,1.4,5.02,2.8,10.05,4.2,15.07,2.27,7.15,5.46,13.93,9.11,21.32-7.39-1.04-13.94-2.46-20.21-5.13-1.97-.84-2.99-2.62-3.94-4.35-3.56-6.48-5.78-13.38-6.28-20.79Z"/>
      <path class="cls-40" d="M318.99,149.13c3.25,4.8,13.01,5.97,17.9,2.14-.55,2.92-.97,5.88-1.68,8.77-4.14,16.76-10.99,21.94-28.87,21.83,4.1-9.05,8.7-17.83,10.76-27.59.63-1.72,1.27-3.43,1.9-5.15Z"/>
      <path class="cls-56" d="M94.2,285.2c8.69-.22,17.49,1.07,25.97-1.96-1.47,5.6-3.04,11.17-4.35,16.8-.56,2.41-1.79,3.12-4.14,3.22-9.61.43-19.18.61-29.91-1.68,5.88-4.74,9.46-10.36,12.43-16.39Z"/>
      <path class="cls-5" d="M158.14,309.28c-1.29,9.22-.53,18.5-.97,27.74-.2,4.22,1.45,6.3,5.1,7.84,5.81,2.45,11.7,4.51,17.86,5.85,5.31,1.16,5.94.67,5.98-4.91.01-1.32.09-2.64.14-3.97,2.91,6.38.58,13.05,1.06,19.56.13,1.81-1.49,1.86-2.87,1.85-6.3,0-12.6.13-18.89-.05-5.3-.15-7.71-3.86-9.31-8.32-1.27-2.16-.57-4.53-.59-6.78-.09-10.27-.07-20.54-.01-30.81,0-1.6-.55-3.32.58-4.8.64-1.07,1.27-2.14,1.91-3.21Z"/>
      <path class="cls-17" d="M150.68,333.2c-.01,7.2-.02,7.12-7.29,7.96-6.26.72-12.5,1.55-18.72,2.54-2.92.47-5.49.98-7.07-2.47-1.52-3.32-1.09-6.14,1.58-8.53,3.58-3.21,8.04-4.54,12.6-5.53,4.39-.96,8.9-.99,13.33-1.53,4.29-.53,6.39.41,5.59,5.08-.14.81-.02,1.66-.02,2.49Z"/>
      <path class="cls-58" d="M259.31,326.09c9.33.37,18.69.62,25.66,8.28.69,4.59-.7,6.31-5.41,6.24-4.15-.06-8.19-1.24-12.32-1.62-3.8-.36-7.55-1.05-11.38-1.1-3.4-.05-5.48-1.09-5.38-5.26.18-7.62-.06-7.63,8.83-6.53Z"/>
      <path class="cls-33" d="M69.07,221.26c-.58.75-1.17,1.5-1.98,2.56-1.37-3.41-1.3-6.92-3.07-10.01-3.82-6.67-9.78-9.4-16.92-10.53-2.44-.39-4.89-.93-7.2-1.77-1.76-.64-4.03-1.41-2.75-4.24,4.29-2.63,9.09-2.59,13.87-2.64,12.36,4.3,19.68,15.11,18.05,26.64Z"/>
      <path class="cls-57" d="M279.12,393.02c1.63-11.05,1.01-21.07,5.04-30.54,1.64-3.87,4-2.32,6.37-2.47,3.32-.2,2.58,2.2,2.67,4.08.56,11.61-3.62,20.98-14.08,28.93Z"/>
      <path class="cls-29" d="M111.08,341.27c2.2,16.3,10.84,31.28,9.61,49.07-6.2-5.68-9.65-12.19-10.67-20.08-2.62-8.85-1.07-17.86-1.05-26.81,0-1.11.55-2.28,2.11-2.18Z"/>
      <path class="cls-20" d="M268.18,263.17c-2.54-2.93-.57-5.34,1.64-6.49,2.36-1.24,4.1,1.32,4.83,3.19,1.4,3.59,3.24,6.8,5.34,10.03,3.78,5.82,7.95,10.98,14.37,14.01,1.75.83,2.03,1.8-.28,2.31-1.69-1.5-3.05.07-4.43.58-5.71,2.09-7.33,1.34-9.66-4.45-2.72-6.76-5.52-13.48-8.35-20.19-.41-.97-.68-2.51-2.22-2.24-2.01.35-.99,2.09-1.23,3.26Z"/>
      <path class="cls-54" d="M110.57,242.5c2.49-10.09,7.64-16.96,16.05-21.31,3.16-1.64,4.93,1.51,6.68,3.01,1.93,1.66-.92,2.71-1.85,3.69-5.72,6.01-12.05,11.22-20.87,14.61Z"/>
      <path class="cls-59" d="M291.89,341.87c.34,1.05-.13,2.68,1.28,3,4.98,1.15,9.33-1.29,13-3.81,2.67-1.83,5.28-5.1,4.34-9.29-.06-.27-.44-.48-.67-.71,1.17-1.06,1.77-.34,2.05.76,2.94,11.47-11.14,25.12-22.77,22.18-2.17-.55-1.96-1.83-1.66-3.37.65-3.34,2.78-5.93,4.42-8.77Z"/>
      <path class="cls-55" d="M205.17,495.99c-3.59,1.59-6.22.41-8.13-2.83,1.78-5.08,2.07-10.33,2.18-15.67.41-19.93-.45-39.88.71-59.8.07-1.14.15-2.28,1.2-3.38,0,8.84-.05,17.67.01,26.51.1,13.62-.24,27.25.43,40.87.25,5.07,1.3,9.81,3.59,14.31Z"/>
      <path class="cls-34" d="M259.31,326.09c-.82.09-1.64.24-2.46.25-6.01.13-6.23.49-5.8,6.6.16,2.28.94,3.28,3.27,3.26,8.3-.07,16.4,1.49,24.54,2.86,3.26.55,6.6.15,6.11-4.69,2.26,2.87,1.05,5.51-.53,8.13-1.66,2.74-4.1,1.5-6.25,1.12-8.01-1.44-16.06-2.6-24.19-2.77-3.05-.06-4.23-1.08-3.84-4.08.15-1.14-.01-2.32-.02-3.48q-.06-8.97,9.17-7.2Z"/>
      <path class="cls-11" d="M105.2,367.15c-.02-18.98-.04-37.95-.05-56.93.97,0,1.94.01,2.91.02,1.5,1.18,1.46,2.89,1.5,4.54.38,16.56-.67,33.11-.47,49.68.01,1-.16,1.99-.99,2.71-.96,0-1.93-.01-2.89-.02Z"/>
      <path class="cls-64" d="M268.58,223.16c2.53-3.66,5.29-3.98,8.85-1.65,4.47,2.93,8.6,6.08,11.67,11.9-7.39-3.69-13.94-6.96-20.53-10.25Z"/>
      <path class="cls-23" d="M111.08,341.27c-1.9,3.75-.62,7.75-.8,11.62-.28,5.78-.19,11.58-.25,17.37-.29-.03-.57-.07-.86-.11-.69-.87-.52-1.89-.53-2.88,0-18.31-.02-36.63.02-54.94,0-1.06-.57-2.39.88-3.08.29.03.57.11.83.24,2.09,2.61,1.32,5.68,1.08,8.53-.45,5.37-.35,10.73-.4,16.09,0,2.39.02,4.77.02,7.16Z"/>
      <path class="cls-63" d="M109.54,309.24c-1.02,10.63-.23,21.28-.41,31.92-.17,9.66,0,19.32.03,28.98-1.17-.7-.95-1.9-1.07-2.98-.01-18.98-.02-37.95-.03-56.93.5-.33.99-.66,1.49-.99Z"/>
      <path class="cls-32" d="M111.06,334.11c-2.05-8.16-.7-16.41-.68-24.62,1.52-.04,3.66-1.06,3.32,1.95-.85,7.56-1.76,15.11-2.65,22.67Z"/>
      <path class="cls-3" d="M243.12,373.21c-1.15-.33-3.03.69-3.32-1.09-.2-1.25,1.51-1.45,2.54-1.87,1.53-.62,3.6-.99,1.43-3.24,2.67-2.25,4.54-5.11,6.13-8.17.57,10.21-.31,12.09-6.78,14.37Z"/>
      <path class="cls-3" d="M208.02,434.25c7.36.59,14.72,1.12,22.08,1.78,7.1.64,14.08-1.56,21.18-.77-14.49,2.76-28.9,2.23-43.26-1.01Z"/>
      <path class="cls-18" d="M156.23,312.49c0,14.13.01,28.27.02,42.4-.97.57-1.09-.1-1.09-.79-.02-13.6-.02-27.2-.02-40.8,0-.3.06-.69.25-.86.15-.13.55.03.83.06Z"/>
      <path class="cls-42" d="M289.98,50.34c-3.35-3-6.69-6-10.04-9,.38-1.56-2.22-2.62-.72-4.37,4.18,2.15,6.05,6.67,9.68,9.38.73.97,1.45,1.93,2.18,2.9.25.98-.08,1.38-1.09,1.08Z"/>
      <path class="cls-49" d="M307.78,87.44c.81-.39,1.13-1.08,1.2-1.93,2.46,2.42,3.09,5.72,4.25,8.76-.35.5-.12,2.72-1.41.55-1.43-2.41-2.71-4.92-4.05-7.38Z"/>
      <path class="cls-2" d="M90.07,86.2c.26.8.12,1.8,1.16,2.19-1.34,2.78-2.15,5.9-5.02,7.67.41-3.63,1.44-7.02,3.86-9.86Z"/>
      <path class="cls-15" d="M303.91,173.1c.02-.84-.21-1.54-1.03-1.93,1.39-2.06,2.78-4.13,4.17-6.19.74,3.4-.95,5.85-3.14,8.12Z"/>
      <path class="cls-61" d="M96.19,170.27c-.87.38-.86,1.22-1.01,1.97-1.27-2.36-3.55-4.42-2.23-7.54,1.08,1.86,2.16,3.71,3.24,5.57Z"/>
      <path class="cls-47" d="M289.98,50.34c.36-.36.73-.72,1.09-1.08,1.71,1.04,2.52,2.66,3.36,4.59-2.24-.1-2.84-2.06-4.37-2.54-.06-.32-.09-.65-.08-.97Z"/>
      <path class="cls-53" d="M7.79,229.41c-2.33-7.21,1.16-12.8,5.28-18.05,3.06-3.91,6.95-7.01,11.78-10.05-.39,5.81,2.26,9.69,6.4,12.74.7,1.02.76,2.14.47,3.3-2.34,9.31-16.47,16.8-23.93,12.06Z"/>
      <path class="cls-5" d="M7.79,229.41c4.44-.71,8.88.3,13.37-2.24,5.52-3.12,8.63-7.29,10.08-13.13,9.05,3.41,9.13,3.46,4.16,11.82-3.52,5.92-7.69,11.29-15.16,12.32-8.24,1.14-10.42-.49-12.46-8.77Z"/>
      <path class="cls-28" d="M34.96,190.19c-1.48.09-3.53,1.62-3.64-1.6-.12-3.47-1.73-6.78-1.17-10.34,1.89-.69,3.07.73,4.44,1.53,6.63,3.84,11.3,1.76,13.05-5.86.32-1.41.18-3.01,1.67-3.93,1.61,5,.27,10.14.76,15.2-.58,2.12-1.69,3.14-4.16,2.98-3.76-.25-7.53.12-10.95,2.03Z"/>
      <path class="cls-41" d="M279.22,36.98c-1.22,1.7,4.41,2.26.73,4.37C237.05,6.95,172.39,5.08,125.65,36.96c-3.37,2.3-7.3,3.87-9.88,7.25-1.25.89-1.84.64-1.66-.95,17-18.58,37.87-30.7,62.49-35.45,38.12-7.35,71.98,2.15,101.27,27.71.49.43.9.97,1.34,1.46Z"/>
      <path class="cls-48" d="M114.12,43.26c.55.32,1.11.63,1.66.95-1.45,2.03-3.14,3.75-5.65,4.43-.57-3.2,3.12-3.25,3.99-5.38Z"/>
      <path class="cls-13" d="M49.31,169.99c-.71,2.37.28,4.91-.82,7.26-2.99,6.4-8.66,7.99-14.44,3.96-1.33-.93-2.6-1.97-3.9-2.95-1.81-6.56-1.48-13.11.36-19.56,1-3.51,3.05-6.31,7.08-6.75,4.1-.45,6.44,2.06,8.13,5.29,2.1,3.98,3.47,8.2,3.58,12.76Z"/>
      <path class="cls-21" d="M111.96,154.23c-1.58.84-.18,2.96-2.09,4.12-.94-3.45-1.85-6.76-2.75-10.07-1.96-12-3.39-24.02-1.89-36.2,1.82-14.75,7.77-26.94,20.68-35.29,19.53-12.62,40.89-18.95,64.05-19.47,1.55-.04,3.23-.37,5.32,1-4.63,1.81-8.74,3.31-12.76,5.02-18.36,7.8-34.66,18.47-46.69,34.7-8.41,11.35-13.13,24.58-18.03,37.66-2.27,6.07-4.52,12.16-5.83,18.54Z"/>
      <path class="cls-12" d="M297.65,111.12c-.23,8.14-2.41,15.1-8.15,20.62-7.73,7.44-17.88,5.59-22.57-4.12-4.45-9.19-2.66-22.36,4.29-29.92,3.85-4.19,8.37-7.28,14.49-5.58,7.01,1.94,9.56,7.7,11.28,13.96.48,1.74.48,3.61.66,5.03Z"/>
      <path class="cls-51" d="M270.86,154.34c.73,5.73-.97,10.46-5.79,13.88-1.68.32-3.36.64-5.03.97-2.24,0-4.27-.42-5.21-2.83-1.38-2.51-2.32-5.16-1.88-8.05.72-4.62,2.99-8.08,7.75-9.38,5.07-1.39,7.6,2.07,10.17,5.42Z"/>
      <path class="cls-4" d="M191.15,32.43c11.04-.69,22.02-.54,32.87,1.95-4,2.21-8.07.02-11.94-.3-5.92-.49-11.81-.62-17.72-.73-1.15-.02-2.33.08-3.2-.92Z"/>
      <path class="cls-38" d="M254.82,166.36c1.74.94,3.48,1.89,5.21,2.83.11.46.21.93.32,1.39-1.9-1.33-5.91.09-5.54-4.22Z"/>
      <path class="cls-60" d="M78.34,129.25c0-4.98,0-9.96.01-14.94,1.29,4.98,1.32,9.96-.01,14.94Z"/>
      <path class="cls-36" d="M236.04,340.17c-4.09,7.48-10.19,9.1-18.95,5.04-.36-.49-.73-.99-1.09-1.48-2.21-4.21-4.65-8.34-2.84-13.43.74-2.08,1.29-4.2,4.2-3.78.51.16.89.49,1.14.98.35,3.05-1.65,6.06-.17,9.14,1.17,3.7,3.86,5.32,7.52,4.85,2.84-.36,4.81-2.05,4.65-5.32.13-2.09-.06-4.23,1.04-6.15,3.1-2.75,4.39-1.23,5.21,2.06.71,2.83-1.36,5.33-.71,8.1Z"/>
      <path class="cls-31" d="M236.04,340.17c-2.23-2.19.23-4.37.02-6.57-.23-2.38.08-5.14-3.78-3.47-.94-.16-1.67-.7-2.38-1.28-3.35-3.96-7.65-1.3-11.51-1.65-4.34.83-6.57,6.09-4.42,10.61.9,1.9,2.6,3.5,2.04,5.9-4.88-4.93-5.72-11.31-2.24-17.09,3.16-5.25,9.65-7.43,15.6-5.24,5.65,2.08,8.78,7.63,8.12,14.38-.11,1.15-.25,2.3-.38,3.45-.35.32-.71.63-1.06.95Z"/>
      <path class="cls-44" d="M231.06,328.4c1.03.14.96,1.06,1.22,1.74-.07,2.26-.14,4.52-.21,6.78-4.45,5.16-10.26,5.17-15,.01-1.6-3.13-1.01-5.99,1.03-8.69,4.35-2.07,8.67-1.86,12.97.16Z"/>
      <path class="cls-37" d="M217.06,336.93c5,2.95,10,3.14,15-.01-.14,4.43-3.28,5.83-6.85,6.07-4.18.29-7.18-1.68-8.15-6.06Z"/>
      <path class="cls-62" d="M231.06,328.4c-4.32-.05-8.65-.11-12.97-.16.1-.34.2-.68.3-1.03,6.13-3.48,8.66-3.25,12.67,1.19Z"/>
    </g>
  </g>
</svg>