<?xml version="1.0" encoding="UTF-8"?>
<svg id="Layer_2" xmlns="http://www.w3.org/2000/svg" viewBox="0 0 614.28 881.28">
  <defs>
    <style>
      .cls-1 {
        fill: #41294a;
      }

      .cls-2 {
        fill: #e5e4e4;
      }

      .cls-3 {
        fill: #6e1b34;
      }

      .cls-4 {
        fill: #df2226;
      }

      .cls-5 {
        fill: #bc2228;
      }

      .cls-6 {
        fill: #c8becb;
      }
    </style>
  </defs>
  <g id="Layer_1-2" data-name="Layer_1">
    <g>
      <path class="cls-1" d="M1.23,640.41c1.92-17.88,9.67-33.58,19.41-48.13,5.19-7.75,6.93-15.99,8.22-24.63.88-5.9,1.65-11.79,3.06-17.61.78-3.24.52-6.04-2.42-8.92-13.04-12.75-19.52-28.47-17.75-46.72,1.69-17.37,8.85-32.9,19.06-46.93,16.54-22.73,37.29-40.47,62.99-52.15,2.82-1.28,3.45-2.31.93-4.82-22.24-22.2-37-48.75-42.84-79.54-10.36-54.58,4.09-102.35,42.53-142.42,24.59-25.63,55.09-40.52,89.97-46.49,17.01-2.91,34.15-3.33,51.11-.06,12.46,2.41,25.07,4.68,36.65,10.31,3.05,1.48,4.73.73,6.21-2.3,19.71-40.4,44.42-77.47,74.04-111.28,7.59-8.66,15.65-15.97,27.64-18.2,9.03-1.68,16.63.97,24.08,5.15,7.43,4.17,12.24,11.14,17.64,17.4,12.17,14.09,23.65,28.75,34.04,44.19,8.31,12.35,15.92,25.15,23.45,38.02,8.11,13.88,15.13,28.27,21.63,42.85,6.07,13.62,11.97,27.39,16.74,41.61,3.4,10.16,7.35,20.17,10.26,30.48,6.7,23.67,12.9,47.46,16.94,71.79,3.17,19.06,6.37,38.07,8.33,57.32,1.4,13.73,2.31,27.44,3.05,41.21,1.27,23.73,3.08,47.5,1.31,71.19-1.68,22.54-.66,45.16-3.15,67.63-1.59,14.35-3.02,28.73-4.89,43.04-1.84,14.08-3.96,28.12-6.28,42.13-3.51,21.22-7.29,42.39-12.31,63.31-1.28,5.31-2.35,10.68-3.64,15.99-.73,3.01.3,4.28,3.26,5.42,10.52,4.04,20.93,8.38,29.99,15.35,16.23,12.47,29.19,27.12,37.52,46.42,6.09,14.11,9.95,28.61,13.5,43.31,3.85,15.98,2.65,32.35,2.32,48.57-.14,6.82-11.5,11.64-19.46,9.13-4.3-1.36-7.59-4.24-11.08-6.92-9.6-7.38-18.54-15.72-29.03-21.82-18.99-11.04-39.72-12.57-61.08-10.45-8.53.85-16.28,4.52-24.62,5.92-1.91.32-2.35,1.58-2.7,3.08-.86,3.7-1.44,7.5-2.64,11.08-3.22,9.64-11.61,15.86-21.78,16.04-10.97.2-21.96.15-32.93.03-3.02-.03-4.79.45-5.48,3.97-.72,3.67-2.01,7.27-4.12,10.59-3.49,5.49-8.79,8.16-14.66,7.72-6.37-.48-11.31-4.46-13.87-10.71-.31-.77-.56-1.56-.86-2.34q-3.54-9.17-13.7-9.16c-9.48,0-18.97.28-28.44-.06-10.15-.37-18.22-4.4-21.99-14.64-.9-2.69-.63-5.76-2.57-8.13-.14-1.32-.29-2.64-.43-3.96.19-1.4.36-2.79-1.66-2.97-2.83-1.41-5.78-2.48-8.9-3.04-1.37-1.4-3.26-1.03-4.91-1.47-.73-.16-1.46-.31-2.19-.47-2.97-.79-5.93-1.64-9.05-1.39-8.92-1.24-17.85-.97-26.78-.23-2.86-.06-5.59.54-8.26,1.51-.58.11-1.16.22-1.75.33-2.34.3-4.72.47-6.75,1.9-5.81,2.22-11.74,4.13-17.17,7.31-4.73,2.76-7.99,5.99-7.72,12.1.22,4.91-1.74,9.14-5.61,12.6-2.74,2.45-5.53,3.93-9.2,4.06-23.92.87-47.85.06-71.77.22-11.97.08-23.94-.28-35.91-.33-6.95-.03-11.71-3.31-14.19-9.63-8.4-21.39.56-46.47,23.46-55.54,4.75-1.88,6.02-4.2,4.76-8.78-1.66-6.03-.64-12.23-.85-18.35-.27-7.65-.23-15.31.01-22.96.12-3.8-.59-5.54-4.99-5.83-16.74-1.11-33.01-4.32-48.27-11.8-19.9-9.75-33.5-25.07-40.93-45.87-1.27-3.55-1.77-7.38-2.63-11.09.29-.91.05-1.64-.74-2.17-.13-2.97-.27-5.94-.4-8.91.13-5.98.26-11.95.39-17.93,0,0,0,.03,0,.03,1.01-.84,1.18-1.91.85-3.12ZM81.16,822.33c-.55.09-.84.36-.66.96-.14.62-.28,1.25-.41,1.87-.83.87-1.49,1.81-1.21,3.12l-.16.21.13.22c-.69,1.12-.68,2.32-.38,3.54-.55,2.98-.72,5.95.15,8.9.11,9.21,2.45,11.65,11.3,11.69,7.15.03,14.29.03,21.44.02,25.59-.04,51.18-.12,76.77-.09,5.38,0,10.11-2.53,9.03-8.79-.25-1.45-.04-2.99-.04-4.48,0-20.29-.06-40.58.09-60.86.03-3.84-.63-4.64-4.37-2.92-4.19,1.92-8.8,2.78-13.33,3.87-5.67,1.36-11.64.17-17.14,2.41-.6.03-1.2.07-1.8.1-8.83-.46-17.67-.92-26.5-1.38l-3.02-.31c-1.79-1.38-3.9-1.3-5.99-1.29-4.28-1.29-8.67-2.32-12.81-3.96-2.85-1.13-3.61-.5-3.52,2.32.13,3.82.55,7.7.1,11.46-.59,4.89,1.61,6.67,5.96,7.78,8.71,2.23,16.36,6.51,22.54,13.37-4.58-1.64-8.99-3.38-13.49-4.82-13.42-4.28-29.56-.02-37.76,9.85-.63.11-.99.47-1.01,1.12,0,0,.02-.02.02-.02-.29.36-.59.72-.88,1.07l-.05.06c-1.11.51-1.57,1.44-1.72,2.59-.16.29-.32.59-.48.88-.25.49-.51.98-.76,1.47l-.02.03ZM314.76,196.81l.04.06c.27.44.54.88.81,1.32l.58.92c.33,1.39.79,2.7,2.23,3.36v.25s.22.12.22.12c0,.87.2,1.62,1.16,1.92l.68,1.16c.12.48.13,1.02.37,1.42,10.32,17.1,16.74,35.72,20.79,55.14,1.16,5.54,3.22,8.79,8.99,9.79,2.49.43,4.74,2.29,7.08,3.52,1,.53,1.97,1.6,3.16.84,1.2-.76.56-2.13.51-3.22-1.6-34.76-13.55-65.49-36.4-91.76-7.93-9.12-16.54-17.66-27.18-23.77h0c-.07-.62-.42-.93-1.06-.88l-.07-.06c-.28-1.03-.93-1.61-2.02-1.65-.18-.28-.45-.43-.78-.43-.32-.89-.97-1.28-1.9-1.26l.05.04c-.41-.26-.81-.52-1.22-.79h.02c-.36-.9-1.1-1.24-2.02-1.3l-1.44-.96c-.51-.28-1.02-.57-1.52-.85-.42-.24-.84-.48-1.26-.72-1.92-1.69-4.04-2.99-6.61-3.41l.07.04c-.43-.2-.86-.4-1.28-.6l-.09-.06c-.56-1.26-1.69-1.21-2.79-1.22l.04.02c-1.16-2.02-3.44-1.75-5.2-2.55l-1.68-.41c-.91-.93-1.87-1.74-3.3-1.5-.79-.23-1.58-.45-2.38-.68-.59-.88-1.43-1.13-2.44-.99-.71-.18-1.42-.36-2.13-.54-.75-1.04-1.78-1.26-2.97-1.04-.54-.11-1.09-.23-1.63-.34-.47-.16-.95-.31-1.42-.47l-.35-.15c-5.63-2.26-11.55-3.18-17.55-3.78-1.66-.13-3.32-.27-4.98-.4-1.29-.75-2.66-.91-4.09-.57-1.93-.65-3.91-.57-5.9-.38-6.18-1-12.32-.71-19.57.23,7.89,1.79,14.67,3.15,21.58,3.85,1.33.26,2.65.51,3.98.77,3.86,1.6,7.81,2.89,11.96,3.47.64.22,1.27.44,1.91.66.58.63,1.3.83,2.13.67l.36.16.12.35.31-.17c.8.28,1.6.55,2.4.83.73.86,1.61,1.35,2.78,1.12.44.15.87.3,1.31.45.79.65,1.56,1.36,2.7,1.25,8.91,3.99,17.49,8.59,25.61,14.04,15.31,10.27,27.77,23.41,38.62,38.18.22.31.44.63.66.94ZM286.57,433.82c-.07.93.35,1.52,1.24,1.77.77,1.46,1.5,2.95,2.33,4.38,4.11,7.14,4.16,7.28,12.33,5.32,5.43-1.3,10.98-1.45,16.67-1.66-.66-2.71-2.59-3.21-4.03-4.18-9.29-6.26-19.55-10.64-29.76-15.09-.32-.62-.82-.9-1.52-.8h0c-1.63-1.19-3.35-1.34-4.81.11-.67.67-.15,1.51.78,1.86l.11.12c.61,1.35,1.38,2.56,2.77,3.22.02.35.2.6.52.74-.09.49.1.73.61.7.6.74,1.21,1.47,1.81,2.21-.14.76.19,1.17.94,1.29v-.02ZM341.39,289.46l.06-.03c-1.15-.04-2.22.11-2.82,1.28h-.02c-1.32.23-2.51.66-3.1,2-8.15,6.28-12.7,14.77-15.03,24.62-.16.48-.32.96-.48,1.45-.33.16-.45.42-.36.78-2.59,8.47-2.84,16.95,0,25.42.26.6.53,1.19.79,1.79.24.58.48,1.16.71,1.74.38.81.75,1.63,1.13,2.44,4.86,10.27,19.69,13.88,29.09,5.14,5.09-4.74,9.18-10.05,11.81-16.45,5.69-13.85,7.68-27.81.72-41.9-2.32-4.7-5.78-8-11.06-9.09h-.04c-.21-.59-.59-.65-1.09-.35-.67-.09-1.33-.18-2-.26-2.22-.79-4.33-.44-6.37.63-.26-.14-.45-.08-.58.18-.61-.16-1.08,0-1.34.61ZM73.95,561.76c.23.58.65.68,1.18.46,12.49,4.38,25,8.7,37.46,13.17,3.65,1.31,5.61.49,6.23-3.51.62-4.04,1.83-8.01,2.23-12.06.39-3.9,3.79-7,2.71-11.19-.46-1.75-1.14-3.47-1.35-5.25-.53-4.47-2.29-5.05-6.61-3.61-15.78,5.25-32,8.49-48.71,8.79-5.66.1-7.31,3.09-4.81,8.7.54.92,1.38,1.36,2.41,1.51,1.5.5,3,1.01,4.5,1.51.53.15,1.05.3,1.58.44.94.77,2.01,1.14,3.23,1.06l-.06-.03ZM327.21,242.9c-.16-.7-.33-1.39-.49-2.09-1-2.78-1.91-5.61-3.03-8.35-13.05-31.91-33.54-57.47-63.9-74.48-28.69-16.08-59.75-20.89-92.22-19.72-15.71.57-27.92,8.7-40.57,16.35.91.42,1.75.55,2.47.32,10.97-3.58,22.32-5.15,33.75-5.66,39.42-1.77,75.09,9.68,106.94,32.48,12.84,9.19,23.74,20.73,32.74,33.99,10.41,15.34,16.85,32.25,21.53,50,.22,2.48-.67,6.08,3.86,4.8,2.83-.8,7.69.08,5.4-6.02-1.85-4.93-2.78-10.2-4.12-15.32-.21-.44-.43-.88-.64-1.32-.11-1.61.09-3.32-1.46-4.46.1-.27,0-.44-.27-.51ZM87.09,460.55c.87-.3,1.24-.95,1.29-1.82.97-.9,1.96-1.77,2.9-2.7,16.12-16.07,35.14-20.23,56.72-13.84,10.59,3.14,19.55,8.99,27.19,16.83,3.2,3.28,6.68,5.61,11.15,6.86,9.53,2.66,18.45,6.52,24.51,14.96,1.18,1.65,1.97,1.32,3.38-.13,3.94-4.03,7.25-8.78,12.5-11.95-4.51,9.24-9.34,17.86-13.38,26.9-4.54,10.17-13.39,13.87-24.19,10.83-.41-.21-.81-.42-1.22-.62-1.72-1.74-3.43-3.48-5.15-5.22-.37-1.57-1.1-2.92-2.39-4.03-1.4,1.13-2.67,2.29-3.36,3.96l-.06.07c-.63.03-.85.37-.74.97-.74.76-1.47,1.51-2.21,2.27-.58-.09-.82.17-.73.74-1.78,1.63-3.56,3.26-5.34,4.89-.64.02-1.07.31-1.2.96-.3.25-.6.5-.89.75-.92.05-1.57.45-1.87,1.36-.38.26-.75.53-1.13.79-5.64,3.22-11.45,6.2-17.93,7.13-3.89.56-4.09,1.86-2.04,4.63,12,16.16,25.2,30.94,44,39.57,20.12,9.23,39.27,8.64,57.18-5.25,16.11-12.5,27.12-29.02,36.52-46.8,5.1-9.65,8.55-19.9,9.31-30.69,1.33-18.82-5.02-35.13-17.61-49.23-3.4-3.81-6.32-4.62-11.11-2.9-12.55,4.51-25.59,6.83-38.91,7.95-15.55,1.3-30.85-.26-46.15-2.63-.91-.22-1.82-.44-2.73-.67-1.76-.74-3.47-1.66-5.46-1.63-21.28-5.69-40.7-15.17-58-28.83-2.51-1.98-4.76-2.7-7.72-1.42-30.03,12.99-53.75,33.23-70.1,61.71-4.02,7-7.65,14.33-8.26,22.66-.61.41-.81.98-.68,1.68l-.23.18.08.28c-.9,1.06-.89,2.24-.5,3.49-.47,4.97-.68,9.94.14,14.91,1.66,11.58,7.66,20.67,16.24,28.25,2.05,1.81,4.55,2.66,7.33,2.65,9.31-.03,18.63.33,27.92-.15,7.78-.4,15.51-1.78,23.11-3.61,1.74-.42,4.22-.98,1.94-3.48-4.88-5.34-7.88-11.72-10.64-18.27-.24-1.09-.47-2.18-.71-3.27-.54-2.76-1.07-5.52-1.61-8.28l-.28-4.73c-.03-.34-.07-.69-.1-1.03.15-3.21.3-6.41.45-9.62.48-2.01,1.83-4.34.13-5.99-1.48-1.44-3.67-.78-5.4.45-1.63.21-3.25.41-4.88.62-.44.13-.88.25-1.32.38-6.76.57-13.5,1.38-20.24-.4-2.44-.65-3.75-2.1-4.08-4.4-.25-1.72.51-3.25,2.04-4.22,1.84-1.17,3.83-.88,5.78-.38,4.38,1.14,7.17.04,9.56-4.34,5.81-10.69,13.2-20.36,21.2-29.53.45.5.9,1,1.35,1.5-.3.17-.46.43-.45.78-1.31.67-2.17,1.6-1.8,3.22-.47.79-.94,1.58-1.4,2.37-3.22,1.87-3.37,5.3-4.26,8.36-.17.31-.34.63-.51.94-.93.94-1.65,1.99-1.69,3.37-.12.51-.24,1.01-.36,1.52-.9.53-1.35,1.3-1.26,2.35,0,0-.09.33-.09.33-.23.57-.47,1.14-.7,1.71,0,0-.12.39-.12.39-.46.86-.96,1.7-1.38,2.57-.47.98-1.74,1.96-.65,3.09,1.08,1.12,2.49.48,3.74.07.96-.32,1.82-.83,2.02-1.96.21-.37.42-.75.63-1.12,1.18-.67,1.72-1.76,2-3.02h0c1.37-1.06,2.48-2.3,2.9-4.04l.04-.05ZM327.45,396.55l.07-.11c3.32-1.4,3.69-4.5,4.06-7.45.23-1.9.47-4.11-2.62-4.24-3.25-.13-3.43,1.77-3.06,4.18-.23.15-.48.22-.75.22-4.36-.64-5.41,1.95-5.41,5.55-3.78,2.7-7.05,6.03-10.93,8.66-1.89,1.28-4.88,1.41-5.59,4.28-.26,4.56-3.05,9.25.7,13.61.15,1.61,1.08,2.35,2.45,3.29,3.52,2.39,8.41,2.59,10.73,7.11.7,1.36,3.41,1,5.16.59,1.99-.47,1.41-2.42,1.42-3.77.08-8.6.04-17.2.03-25.8.62-.69,1.24-1.39,1.87-2.08,2.85-.32,2.06-2.32,1.87-4.05ZM311.46,347.83c-.17-.5-.34-1-.51-1.49-1.25-8.41-2.18-16.79-.19-25.26,4.02-17.11,10.95-32.08,28.19-39.8.3-.13.36-.79.54-1.21-3.54-1.11-3.56-1.1-6.32-.69-13.68,2.03-22.94,10.08-28.85,22.06-7.45,15.1-9.82,30.6-1.6,46.36-.08.87.29,1.44,1.14,1.67l.17.21c3.14,5.82,8.11,9.35,14.35,11.47-3.28-3.92-4.37-8.83-6.81-13.04l-.1-.26ZM571.03,832.41l.12.1c2.36,5.36,7.36,8.26,11.72,11.4,2.37,1.71,4.31,5.42,8.32,4.39h.02c1.62,4.05,5.32,5.91,8.9,5.36,2.68-.41,5.46-3.22,5.21-6.98-.87-12.94.29-25.85-1.37-38.93-1.31-10.35-5.54-19.65-7.13-29.75-.51-3.24-.57-8.2-5.22-9.91-.36-8.18-6.55-13.55-9.98-20.23-2.33-4.52-5.15-9.11-10.08-11.61-.54-1.15-.24-2.6-1.6-3.46-6.6-4.17-12.1-9.82-18.77-13.92-2.45-1.51-4.77-2.8-7.7-2.61-.29-2.49-2.26-2.02-3.86-2.19-3.96-4.5-9.23-3.98-14.4-3.71-1.13.06-1.58.97-1.82,2.02-1.6,6.78-4.51,13.29-4.26,20.47.05,1.48.11,3.07-1.92,3.44-1.13.15-1.61.82-1.91,1.92-1.1,4.08-2.11,8.19-3.54,12.16-2.1,5.84-3.14,11.9-4.4,17.92-.73.38-1.5.76-1.57,1.73-.68,9.23-5.75,17.23-7.38,26.15-1,5.47-6.02,9.68-4.65,15.77-.28,2.27,1.26,2.35,2.84,2.35,2.66,0,5.32-.07,7.97,0,5.3.13,10.64-.61,15.89.42,7.62,1.5,15.05,4.27,23.02,3.4l.03.02c-.04,1.14.42,2.09,1.61,2.02,5-.3,8.33,3.1,12.38,5.08,4.6,2.26,8.28,6.25,13.54,7.19ZM411.41,336.89c-.14-.7,2.21-.96-.1-2.26-5.32-2.98-10.87-1.36-16.3-1.78-1.03.85-2.1.55-3.19.15-2.96-3.1-9.6-3.06-12.33.07-1.55.5-3.3.53-4.5,1.88-1.99-.33-2.67.68-3.57,2.44-1.88,3.69-2.18,8.14-6.02,10.98-3.11,2.3-2.06,6.19-1.23,9.26.58,2.15,2.75,3.7,5.34,3.87,1.54.1,3.4.05,3.7-1.72.57-3.36,2.89-2.94,5.21-3.08,3.35-.21,6.7.03,9.82,1.04,4.67,1.52,9.63,0,14.21,1.78,1.07.42,2.54.45,2.75,1.77.28,1.74-1.43,1.39-2.4,1.79-.7.29-.91.89-.82,1.61-3.26-.11-6.66-.37-9.7-1.01-20.56-4.27-44.3,9.55-53.6,27.23-7.99,15.18-9.22,30.82-2.72,46.87,2.54,6.97,6.01,13.27,12.52,17.37,2.12,3.61,5.47,5.72,9.08,7.53,5.02,4.28,11.26,5.63,17.37,7.31,1.45,1.26,2.94,2.25,4.8.69,1.32.24,2.65.45,3.95-.11,22.56.37,39.2-9.67,49.79-29.32,6.35-11.78,8.1-24.44,3.92-37.52-.79-7.24-4.25-13.39-7.95-19.44,2.87-.01,5.2,1.09,6.65,3.58,4.34,7.44,7.5,15.4,10.07,23.71.3-2.37.59-4.65.89-6.93,2.97,12.44,1.04,24.45-3.62,36.07-10.06,25.11-37.77,41.74-63.15,38.12-6.58-1.52-13.09-3.08-19.5-5.43-8.45-3.1-14.08-10.32-22.15-13.75,2.16-1.87.19-2.82-.9-3.92-.75-.75-1.32-.58-1.89.39-2.21,3.77-5,7.15-4.2,12.15.57,3.57.33,7.32.05,10.95-.36,4.75,2.25,7.35,5.98,9.31,3.75,1.98,8.13,3.22,11.2,5.96,6.91,6.17,15.53,6.89,23.73,7.71,9.41.93,18.95-.09,28.5-1.17,7.4-.84,13.72-3.7,20.54-5.62,4.96-1.39,7.78-5.85,12.1-8.32,9.53-5.47,17.4-13.22,22.68-22.83,2.39-4.34,4.33-9,6.77-13.42,1.15-2.08,4.52-1.72,4.11-4.32-.96-6.08,2.49-11.5,2.21-17.51-.33-7.14-.73-14.38.1-21.43,1.26-10.81-3.4-19.98-7.61-28.96-4.63-9.89-9.96-19.7-19.61-26.2-3.89-2.62-6.45-7.17-11.13-8.85-6.56-2.37-11.68-9.12-19.86-6.59l.04-.09ZM246.86,708.43c-12.74,3.11-25.7,5.87-31.99,19.54-4.11,5.32-5.09,12-6.43,18.12-1.56,7.15-.96,14.81-.38,22.26,0,.64,0,1.28,0,1.93-.04,16.66-.08,33.32-.12,49.98-.41,1.73-1.41,3.46.14,5.16.82.89,1.8.97,2.67.34,4.22-3.08,9.44-3.76,14.18-4.84,3.8-.86,5.97-4.47,9.57-4.47,9.55,0,18.79-3.43,28.44-2.23,3.11.39,6.31-.02,9.46.09,2.99.11,4.47-2.71,7.07-3.59,1.31-.45-.52-3.69-1.37-5.68-2.29-5.37-4.95-10.77-6-16.43-.82-4.37-1.21-8.59-3.47-12.6-1.69-3-2.53-6.44-4.1-9.59-2.53-5.04-5.05-10.89-4.86-17.22.07-2.47-1.14-5.32-3.86-6.74,0,0-.04-.09-.04-.09.82-5.77-1.07-11.21-1.79-16.81-.54-4.2-2.48-7.97-2.79-12.25-.1-1.43-.63-5.3-4.32-4.86ZM96.99,510.72h-.01c2.13,7.19,6.36,13.03,11.57,18.27,1.47,1.48,3.16,1.89,5,1.23,4.2-1.52,8.36-3.19,12.53-4.82,2.55-1,3.21-2.22,1.28-4.77-5.6-7.41-10.79-15.12-16.43-22.5-1.92-2.52-3.31-5.78-6.77-6.87-1.69-2.21-3.35-4.46-5.98-5.68-.38-.33-.76-.66-1.15-.98-.27-.2-.53-.39-.8-.59-3.19.56-1.45,2.92-1.67,4.57-.44,2.66-.68,5.33-.13,8.01.02.34.04.68.06,1.03.03,1,.06,2.01.09,3.01-.41,2.53.14,4.86,1.5,7.01.1.64.19,1.28.29,1.93-.16.57-.02.99.59,1.16ZM337.58,183.01c2.19,8.9,7.89,15.57,13.94,22.02.54,3.14-.37,6.14,3.25,9.02,2.31,1.84,3.21,6.86,4.7,10.47,1.36,3.29,3.45,4.47,6.86,4.42,8.9-.13,17.81-.05,26.72-.06,12.64-.02,25.28-.18,37.91-.04,5.33.06,10.11-2.89,15.48-2.35.35.04.81-.93,1.21-1.43,11.68-.2,23.48.48,34.92-2.34,8.91-2.2,17.72-4.18,26.98-4.14,2.28.01,4.33-1.85,6.16-4.15,2.94-3.69-.02-6.29-.51-9.15-1.09-6.34-2.42-12.73-5.17-18.62-3.81-8.16-8.06-16.13-11.67-24.38-2.52-5.76-3.4-12.38-6.6-17.65-4.74-7.81-7.88-16.35-12.32-24.29-8.26-14.79-16.43-29.53-26.47-43.25-4.01-5.48-8.07-11.02-11.91-16.67-6.04-8.89-11.66-18.21-19.24-26-6.24-6.43-12.56-12.79-18.72-19.3-1.7-1.79-3.55-2.29-5.81-2.02-11.04-5.45-23.38-3.14-31.74,6.08-4.46,4.92-8.81,9.95-13.12,15-25.13,29.49-46.11,61.71-63.34,96.41q-3.57,7.18,3.29,11.61c-.07.33-.28.87-.17.94,3.3,2.35,3.96,7.8,9.21,7.85,1.06.01,1.57.81,2.3,1.53,4.16,4.09,8.1,8.61,12.9,11.79,6.49,4.3,11.92,9.27,14.96,16.42,1.38,3.23,3.17,3.67,5.99,2.29ZM245.61,570.42c-7.32,4.64-15.49,7.45-23.6,10.53,11.05.69,21.91,2.39,32.79.4,4.56.31,8.86-.94,13.13-2.26,6.66-2.06,10.68-9.03,9.29-15.91-.35-1.75-.91-3.46-2.91-3.48-8.21-.1-17.09-2.26-22.57,6.78l-1.93.99c-.84-.02-1.43.33-1.68,1.16-.28-.07-.45.04-.52.32-.99.05-1.63.58-2,1.47ZM471.45,379.7v.02c.09.48.08,1,.26,1.44,6.05,15.72,8.57,31.81,5.94,48.65-.71,4.57-2.15,9-2.49,13.62l.02.03c-4.85,13.16-11.06,25.53-20.82,35.84-23.29,24.6-51.61,34.32-85.12,29.12-6.74-1.04-12.99-3.71-19.61-5.05-2.14-1.24-4.26-2.53-6.43-3.72-9.85-5.42-9.65-5.4-10.17,6.07-.34,7.41-.02,14.27,4.61,20.71,4.14,5.76,4.51,12.42,2.62,19.46-4.76,17.69-9.14,35.49-13.6,53.26-2.14,8.53-4.86,16.6-13.36,21.07-1.35.71-2.33,1.68-2.61,3.39-.94,5.57-2.85,10.9-5.11,16.01-10.1,22.89-23.58,41.87-51.79,42.94-2.18.08-3.02.97-2.44,3.14,1.06,4.01,2.29,7.98,3.02,12.05.49,2.72,1.76,3.55,4.34,3.55,35.74-.01,71.48.03,107.23.08,2.12,0,3.74-.37,4.73-2.67,5.06-11.74,21.83-14.24,29.72-.27.26.55.52,1.1.78,1.65l.27.32c.99,1.64,2.62,1.09,4.02,1.09,17.33.04,34.66.06,51.98.04,1.44,0,3,.39,4.22-.82l.07.06c16.95.66,33.9.33,50.85.27,2.32,0,3.05-1.21,3.63-3.21,2.72-9.25,4.55-18.7,6.71-28.08,7.09-30.8,12.61-61.89,16.89-93.18,4.37-31.96,7.07-64.09,8.65-96.34,1.87-38.31.73-76.53-2.52-114.69-2.68-31.5-7.58-62.7-14.34-93.6-3.38-15.43-7.18-30.74-12-45.79-.49-1.54-.48-3.55-3.02-2.88-8.97,2.35-18.33,2.86-27.19,5.74-1.64.08-3.29.16-4.93.23-9.08,1.18-18.15,2.36-27.23,3.54-3.91.43-7.83.85-11.74,1.28-9.44.5-18.87.97-28.31,1.52-5.94.34-11.87.8-17.81,1.2-9.95-.23-19.91-.39-29.85-.73-3.1-.11-3.9.48-3.24,3.92,2.14,11.18,3.68,22.44,4.66,33.82.6,6.97-1.13,14.14,2.29,21.03,3.77,7.59,4.94,16.03,4.63,24.51-.13,3.57.91,4.55,4.45,4.34,13.45-.77,26.39,1.74,38.79,6.94,19.66,8.24,34.56,21.91,45.48,40.1-.06.61.24.95.82,1.08.18.38.35.76.53,1.14-.11,1.26.37,2.22,1.46,2.87.16.38.33.76.49,1.14.01,1.2.54,2.11,1.52,2.78ZM287.03,809.08c2.02,2.52,3.38,5.73,6.92,6.68,2.81.35,4.95,2.41,7.86,2.78,7.92,1.02,15.85,1.21,23.8,1.49,8.64.31,17.23-1.54,25.86-.33,6.06.85,8.06-1.02,8.05-7.17-.02-26.07-1.3-52.18,2.3-78.13.74-5.35,1.53-10.73,2.93-15.93,1.5-5.54.22-7.78-5.61-7.79-23.11-.04-46.22-.06-69.33-.06-8.8,0-17.62-.37-26.31,1.46-1.39-1.15-3.06-1.74-4.53-.62-1.52,1.16-.28,2.7.1,4.09,1.58,5.74,3.12,11.49,4.66,17.24,6.88,25.7,15.23,50.94,23.3,76.28ZM389.67,870.28c2.22-.44,3.18-2.1,3.96-3.99,2.25-5.45,2.47-11.54,4.5-16.87,3.01-7.89,4.01-16.19,4.99-24.19,1.83-14.84-.62-30,2.23-44.94.9-4.73-1.08-9.79-1.34-14.51-.7-13.14-1.84-26.1-4.3-39.05-1.74-9.15-3.2-18.22-8.03-26.41-1.04-1.76-1.75-2.23-3.36-1.05-5.94-.92-9.14,2.56-10.33,7.53-2.36,9.79-4.6,19.66-6,29.62-3.84,27.24-4.47,54.61-1.76,82,1.44,14.6,3.57,29.11,7.52,43.28.46,1.56.83,3.15,1.39,4.67,1.95,5.27,5.61,6.61,10.52,3.92ZM132.95,548.72c-.03.83-.06,1.66-.08,2.49-.15.45-.3.89-.46,1.34l-.34,1.02c-1.26,1.83-1.16,4.03-1.66,6.06-1.42,5.44-2.77,10.91-4.3,16.32-.71,2.51-.42,3.78,2.45,4.71,11.93,3.87,23.6,8.55,35.76,11.78,3.51.93,6.03-.23,6.98-3.64,1.48-5.26,2.54-10.64,3.87-15.94.62-2.45-.68-3.61-2.53-4.76-1.89-1.17-3.28-.92-4.84.58-2.05,1.98-4.44,3.35-7.4,3.74-6.51.86-11.8-1.12-15.65-6.51-4.12-5.76-4.53-11.95-1.82-18.41.66-1.57,2.56-2.88.98-4.9-.46-1.5-1.31-2.67-2.76-3.35.01-.3-.13-.5-.41-.6-1.3-1.67-2.7-3.28-3.89-5.03-1.33-1.96-2.8-1.17-4.31-.45-1.62.77-3.76,1.36-3.01,3.78,1.21,3.9,1.08,8.2,3.43,11.76ZM306.39,524.43c-2.21.14-4.42.29-6.63.43-1.44-.55-2.78-.28-4.06.47-.64.02-1.27.05-1.91.07-5.01-1.12-7.81.48-8.2,6-.32,4.45-1.56,8.85-1.79,13.3-.16,3.01-2.17,5.81-.23,9.14,6.02,10.31,4.87,20.08-3.09,29.24-1.67,1.92-2.91,3.9-3.39,6.49-.93,5.03-1.04,10.2-2.82,15.09-.77,2.12-.02,3.62,2.38,4.61,9.22,3.77,18.85,3.68,28.42,2.82,4.33-.39,7.76-3.21,9.24-7.97,4.14-13.38,7.28-27.01,10.64-40.6.23-.99.46-1.99.69-2.98,1.18-.71,1.26-1.82,1.1-3.02,1.16-4.44,2.2-8.91,3.51-13.3,1.23-4.11-.16-5.6-4.37-5.85-6.76-.4-13.5-1.26-20.39-2.17,2.42-.85,4.84-1.7,7.26-2.55,1.76.04,3.55.25,5.04-1.04,1-.19,2.01-.38,3.01-.57.47-.06.94-.13,1.41-.19.51-.05,1.01-.1,1.52-.15,1.43.26,3.22.61,3.93-.79.94-1.84-.51-3.25-1.87-4.43-.19-.36-.38-.71-.58-1.07-.16-.89-.61-1.65-1.56-1.61-5.74.27-11.53-.69-17.24.64ZM491.2,788.09c3.62-.6,1.86-3.18,1.88-5.11.15-2.12.7-4.12,1.29-6.18,1.75-6.13,6.01-11.57,5.19-18.41.86-.16,1.31-.71,1.84-1.44,2.24-3.11,1.66-6.96,2.89-10.32,2.75-7.51,4.74-15.24,6.11-23.1.33-1.91,1.08-2.85,2.53-3.83,2.11-1.44,3.38-3.8,2.06-6-1-1.66-.68-4.64-4.92-4.41-2.74.15-5.38-.56-8.19.83-1.44.71-3.61,1.85-5.05-.92-.74-1.43-2.76-.73-4.2-.73-27.44-.04-54.88-.06-82.32-.05-6.19,0-9.05,4.02-6.63,9.81,1.24,2.97,1.23,6.12,2.12,8.96,1.23,3.9.34,7.74,1.08,11.49,1.7,8.58,3.12,17.14,2.79,25.97-.32,8.64-.7,17.37.12,25.94.83,8.59-2.96,16.86-.49,25.6,1.25,4.44,2.81,6.29,7.24,6.03,18.12-1.07,36.24.9,54.49-1.39,8.51-1.07,12.52-6.5,15.59-11.15,3.82-5.78,5.18-13.89,4.57-21.56l.02-.04ZM154.11,507.84c11.59-4.94,19-14.06,24.66-24.86,1-1.92,1-4.21-.49-6.15-8.2-10.69-17.61-20.05-30.57-24.62-14.41-5.08-28.61-5.23-41.73,4.14-5.06,2.76-8.6,7.11-12.1,11.51-1.63,2.05-1.02,2.96,1.29,3.9,6.09,2.48,11.05,6.62,15.69,11.21,7.83,7.76,13.91,16.89,20.24,25.83,1.32,1.86,2.33,4.09,5.21,4,6.35-.2,12.48-1.12,17.81-4.96ZM67.14,570.53c-.7-1.16-1.64-1.82-3.06-1.52-.85-.22-1.7-.43-2.56-.65-.73-1.2-1.96-1.23-3.15-1.36-4.65-3.53-7.72-7.89-6.65-14.04.53-3.04.15-4.83-3.44-4.86-3.13-.02-6.37-1.07-6.82,3.97-.45,5.09-1.9,10.1-2.4,15.19-1,10.21-3.99,20.16-3.83,30.53.05,3.45,1.39,6.69,1.54,10.86-3.73-3.25-4.6-7.48-7.06-10.9-3.31,2.74-4.69,6.55-6.43,10.04-10.77,21.56-16.55,43.96-10.62,68.12,6.24,25.41,23.17,40.49,47.24,48.57.4.09.81.17,1.21.26.66.23,1.32.47,1.98.7,9.71,3.48,19.85,4.49,30.02,5.52,4.58.46,5.51-1.45,5.63-5.6.25-8.77.27-17.57,1.46-26.3.21-1.52,1.48-3.5-.32-4.54-1.39-.8-2.61.93-3.91,1.55-5.53,2.61-10.07,7.49-16.8,7.35.98-1.02,1.96-2.05,2.94-3.07,4.73-2.57,8.28-6.51,11.83-10.39,3.54-3.87,7.43-7.5,9.44-12.61,1.12-2.85.29-4.25-2.34-5.35-4.1-1.73-8.28-3.37-12.1-5.61-6.35-3.71-13.16-7-16.86-13.97,11.41,7.21,23.92,11.21,37.26,12.83,4.77.58,5.99,2.54,4.82,7.62-6.51,28.44-5.43,57.43-6.27,86.28-.07,2.4.85,4.11,3.16,5.11,6.21,2.7,12.5,5.06,19.36,5.39,3.96,2.41,8.34,1.54,12.6,1.65.98.09,1.96.18,2.93.27,5.37,1.2,10.74,1.16,16.1-.03,1.31-.11,2.61-.22,3.92-.34,9.57-.19,18.65-2.44,27.35-6.4,2.75-1.26,3.76-3.13,3.91-6.2.69-14.36,4.47-27.94,10.71-40.9,5.56-11.55,14.38-20.65,21.99-30.7,19.47-25.75,28.48-55.88,34.38-87.08.56-2.95,3.26-6.64.88-8.96-2.19-2.14-5.92.32-8.96.59-10.81.97-21.58.2-32.36-.13-.85-.07-1.7-.15-2.54-.22-.46-.08-.93-.16-1.39-.23-1.48-.66-3.02-.85-4.62-.67-2.96-1.31-6.27-.46-9.26-1.41-3.1-.99-4.58.24-5.44,3.16-1.28,4.36-3.88,8.06-8.29,9.26-9.08,2.48-18.29,5.2-27.81,1.97-21.94-7.46-43.82-15.09-65.8-22.43-10.5-3.51-20.75-7.78-31.56-10.34h-.02ZM167.37,178.08c-11.03-.28-21.88,1.02-32.48,4.17-18.04,5.36-31.98,15.87-40.66,32.79-10.77,20.99-11.92,43.68-11.31,66.63.04,1.68.4,3.54,2.5,3.79,2.67.32,3.26-1.98,3.88-3.8,8.43-25.08,21.05-47.52,40.21-66.15,7.88-7.67,16.59-14.07,25.87-19.73,7.78-4.75,16.17-8.42,24.67-11.76,1.7-.67,3.81-1.33,3.27-3.68-.5-2.18-2.58-2.28-4.48-2.27-3.82.01-7.64,0-11.47,0ZM119.98,398.75c7.05,6.7,15.89,10.05,24.85,12.93,24.37,7.82,49.27,9.19,74.41,4.83,33.58-5.83,62.69-20.22,85.64-46.02,1.68-1.89,2.61-3.48.06-5.28-2-1.42-3.55-4.27-6.5-.93-4.3,4.86-9.31,9.01-14.43,13-23.02,17.98-49.49,27.42-78.13,31.26-20.96,2.81-41.77,1.56-62.4-3.11-7.94-1.8-15.52-4.73-23.5-6.68ZM304.47,514.51s0,.08.01.12c4.48-.33,8.95-.8,13.43-.93,3.33-.09,4.31-1.45,4.74-4.79,1.63-12.58.62-25.29,2.23-37.86.59-4.6.42-9.3.5-13.96.03-1.71-.17-3.37-2.54-3.48-7.33-.37-14.63-.41-21.68,2.11-2.39.86-3.85,2.05-2.87,5.15,2.03,6.41,2.04,13.08,1.78,19.74-.41,10.57-3.03,20.65-7.3,30.25-1.59,3.58-.44,3.93,2.71,3.7,2.98-.22,5.98-.05,8.98-.05ZM255.5,671.74c9.02-.12,14.89-2.84,20.06-6.82,12.81-9.87,18.94-24,23.9-38.76.94-2.8-.99-2.83-3.04-2.85-7.5-.1-14.86-1.34-21.93-3.8-2.76-.96-3.17-.04-3.87,2.42-4.34,15.29-9.16,30.42-16.05,44.81-2.39,4.99-2.25,5.11.93,5.01ZM342.88,848.9c5.65,0,11.31-.15,16.95.06,3.3.12,4.04-1.14,3.46-4.14-.75-3.91-1.35-7.87-1.78-11.83-.3-2.73-1.59-3.52-4.24-3.56-13.96-.23-27.92.65-41.87-.42-1.48-.11-2.88-.23-3.19,2.04-1.27,9.15,5.96,17.76,15.21,17.85,5.15.05,10.31,0,15.46,0ZM200.54,426.95c35.1,9.14,113.57-24.54,124.88-53.08-1.82-.32-3.79-.25-5.34-1.02-3.64-1.8-5.63-.82-8.28,2.32-12.05,14.24-26.61,25.44-43.28,33.86-21.05,10.63-43.39,16.43-67.97,17.93ZM432.6,829.86c0-.14,0-.27,0-.41-3.98,0-7.96,0-11.94,0q-10.42-.02-12,10.45c-.17,1.14-.5,2.27-.86,3.37-1.22,3.76-.85,5.92,4.07,5.7,9.27-.43,18.57-.18,27.84-.55,9.2-.37,14.31-5.83,15.06-15.09.22-2.75-.67-3.54-3.25-3.5-6.31.1-12.62.03-18.93.03ZM245.68,356.99c-.1-8.71-6.6-12.84-14.11-8.7-6.35,3.5-11.51,8.45-15.02,14.87-3.95,7.21.59,14.39,8.94,14.34,9.42-.05,20.31-11.11,20.2-20.5ZM260.25,341.08c5.89-.01,11.51-3.08,14.64-7.99,5.62-8.83,1.95-18.86-7.31-19.99-9.58-1.17-20,10.54-17.7,19.89,1.29,5.23,4.97,8.1,10.37,8.09ZM188.78,484.78c.18,2.21.07,4.59.61,6.81,1.46,5.93,4.71,7.73,9.68,5.68,5.52-2.28,6.69-6.42,3.36-11.52-1.49-2.28-3.51-3.93-5.76-5.32-2.08-1.29-4.6-3.5-6.62-2.55-2.4,1.12-.65,4.48-1.27,6.91ZM193.94,580.93c.18-1.56.25-3.32-1.71-3.56-2.56-.32-4.62-2.95-7.48-1.58-.24.11-.41.53-.48.83-1.14,4.84-2.32,9.68-3.35,14.54-.45,2.13.83,2.4,2.67,2.27,5.66-.41,9.42-4.86,10.35-12.49ZM157.47,564.15c1.65.13,3.09-.37,3.83-1.83.95-1.86-.93-2.64-1.84-3.65-1.21-1.35-2.58-2.61-4.09-3.61-1.46-.97-2.6-3.8-4.65-2.29-1.94,1.43-1.05,4.03-.29,6.06,1.2,3.2,3.5,5.13,7.03,5.32ZM231.19,701.91c4-.24,6.51-1.9,9.23-2.79,3.55-1.16,4.83-5.6,2.64-8.61-.99-1.36-1.91-1.07-2.79.02-2.85,3.55-5.68,7.11-9.08,11.37ZM271.45,545.3c-.74,1.68-2.73,2.31-1.93,4.13.13.3,1.3.5,1.74.27,1.83-.96,1.29-2.38.19-4.4Z"/>
      <path class="cls-2" d="M466.62,370.69c-10.92-18.18-25.83-31.86-45.48-40.1-12.4-5.2-25.34-7.71-38.79-6.94-3.55.2-4.58-.77-4.45-4.34.3-8.48-.86-16.91-4.63-24.51-3.42-6.89-1.7-14.07-2.29-21.03-.98-11.38-2.52-22.64-4.66-33.82-.66-3.43.14-4.02,3.24-3.92,9.95.35,19.9.5,29.85.73,13.88,1.1,27.68-1.37,41.55-1.08,1.51.03,3.04-1.07,4.57-1.64,3.91-.43,7.83-.85,11.74-1.28,4.45,0,9,.6,13.31-.17,4.66-.84,9.7-.57,13.92-3.37,1.64-.08,3.29-.15,4.93-.23.09,1.66-.09,3.38.3,4.96,3.29,13.51,5.46,27.24,8.1,40.88,4.48,23.13,6.61,46.54,8.31,69.92,1.55,21.27,2.56,42.66,2.29,64.05-.22,17.42-2.39,34.76-2.04,52.21,0,.5-.07,1-.14,1.49-2.64,17.68-2.98,35.58-5.62,53.28-2.22,14.88-3.88,29.84-6.6,44.65-2.12,11.53-3.92,23.12-6.45,34.59-3.03,13.72-4.87,27.73-8.47,41.27-3.57,13.41-7.06,26.84-10.63,40.25-2.16,8.09-4.46,16.15-6.7,24.22,0,0-.07-.06-.07-.06-20.07-.81-40.15-.21-60.23-.31,0,0-.27-.32-.27-.32.15-.74-.12-1.29-.78-1.65-7.89-13.97-24.66-11.47-29.72.27-.99,2.31-2.61,2.67-4.73,2.67-35.74-.05-71.48-.09-107.23-.08-2.58,0-3.85-.82-4.34-3.55-.73-4.07-1.96-8.04-3.02-12.05-.57-2.17.27-3.06,2.44-3.14,28.22-1.06,41.69-20.04,51.79-42.94,2.26-5.12,4.17-10.44,5.11-16.01.29-1.7,1.27-2.68,2.61-3.39,8.49-4.47,11.22-12.55,13.36-21.07,4.45-17.77,8.84-35.57,13.6-53.26,1.89-7.04,1.52-13.71-2.62-19.46-4.63-6.44-4.95-13.3-4.61-20.71.52-11.47.32-11.49,10.17-6.07,2.17,1.19,4.29,2.48,6.43,3.72.52,2.51,3.17,3.37,4.67,4.64,4.54,3.85,8.15,8.89,14.39,10.9,7.62,2.46,14.91,5.61,22.83,7.52,12.45,3,24.94,3.44,36.89.6,18.51-4.39,34.24-14.35,47.08-28.83,9.77-11.03,15.82-23.41,16.83-38.14.09-1.3.92-3.47-1.14-3.76-1.6-.22-1.44,1.81-1.89,3.02-.95,2.55-1.31,5.88-5.36,5.22-4.22-.68-8.38-5.86-8.53-10.28-.13-3.6,1.25-7.23-.21-10.8,0,0-.02-.03-.02-.03.59-.2,1.63-.31,1.7-.62.79-3.81,3.02-7.19,2.62-11.38-.53-5.51.53-10.66,3.55-15.64,2.04-3.36,5.39-6.79,4.25-11.3-2.53-9.96-7.93-18.19-15.82-24.78,0,0,0-.02,0-.02.08-1.25.08-2.45-1.52-2.78-.16-.38-.33-.76-.49-1.14.06-1.24.07-2.45-1.46-2.87-.18-.38-.35-.76-.53-1.14-.27-.36-.55-.72-.82-1.08Z"/>
      <path class="cls-2" d="M63.09,725.46c-.66-.23-1.32-.47-1.98-.7-.4-.09-.81-.17-1.21-.26-24.07-8.08-41-23.15-47.24-48.57-5.93-24.16-.15-46.56,10.62-68.12,1.74-3.49,3.12-7.31,6.43-10.04,2.46,3.42,3.33,7.65,7.06,10.9-.16-4.17-1.49-7.4-1.54-10.86-.16-10.37,2.83-20.32,3.83-30.53.5-5.09,1.95-10.1,2.4-15.19.45-5.04,3.69-3.99,6.82-3.97,3.59.02,3.97,1.81,3.44,4.86-1.07,6.15,2,10.51,6.65,14.04.53,1.65,1.84,1.5,3.15,1.35.85.22,1.7.43,2.56.65.52,1.52,1.71,1.68,3.06,1.52,0,0,.02.01.02.01,1.27,4.4,1.89,8.97,5.2,12.63,9.58,10.59,21.79,17.21,34.64,22.57,13.27,5.53,26.85,10.25,40.82,13.94,11.63,3.07,23.37,5.72,35.22,4.47,13-1.37,17.1-2.09,19.83-15.64.59-2.91,1.16-5.83,1.74-8.75q1.77-8.83,10.71-9.43c1.6-.19,3.14,0,4.62.67.46.08.93.16,1.39.23.85.07,1.7.15,2.55.22,3.46,1.05,6.08,3.08,7.62,6.43,5.62,12.2,2.7,29.6-6.85,39.36-8.69,8.89-17.46,17.71-26.38,26.37-12.54,12.16-21.61,26.33-25.55,43.47-2.07,9.04-3.35,18.09-2.01,27.56,1.43,10.14,1.61,20.47,2.36,30.71.23,3.18-.69,5.24-4.36,5.01-1-.06-2.01.02-2.73.89-1.31.11-2.61.22-3.92.34-5.37-1.87-10.74-1.91-16.1.03-.98-.09-1.96-.18-2.93-.27-4.09-1.4-8.32-1.73-12.6-1.65-6.86-.33-13.15-2.69-19.36-5.39-2.31-1-3.23-2.71-3.16-5.11.84-28.85-.24-57.84,6.27-86.28,1.16-5.09-.05-7.04-4.82-7.62-13.34-1.62-25.85-5.62-37.26-12.83,0,0,.09.06.09.06l-.35-.11v-.36c.11-1.17-.77-2.47-1.48-2.18-5.16,2.14-7.62-2.79-11.34-4.25-2.11-.83-3.29-3.64-6.84-3.64,12.84,18.4,25.68,36.25,29.94,58.41-.98,1.02-1.96,2.05-2.94,3.07-1.29,0-2.87-.62-3.46,1.44,6.01,1.11,6.13,1.24,4.17,6.89-.81,2.33-2.12,4.39-3.78,6.31-3.49,4.07-8.36,5.49-13.02,7.37Z"/>
      <path class="cls-6" d="M461.76,700.77c2.24-8.07,4.55-16.13,6.7-24.22,3.57-13.41,7.07-26.84,10.63-40.25,3.6-13.55,5.44-27.56,8.47-41.27,2.53-11.47,4.33-23.05,6.45-34.59,2.72-14.81,4.38-29.77,6.6-44.65,2.64-17.7,2.98-35.61,5.62-53.28.07-.49.15-.99.14-1.49-.35-17.44,1.82-34.78,2.04-52.21.27-21.39-.75-42.77-2.29-64.05-1.7-23.38-3.83-46.79-8.31-69.92-2.64-13.64-4.81-27.36-8.1-40.88-.39-1.58-.21-3.31-.3-4.96,8.86-2.88,18.22-3.38,27.19-5.74,2.54-.67,2.53,1.34,3.02,2.88,4.82,15.05,8.62,30.36,12,45.79,6.76,30.9,11.66,62.1,14.34,93.6,3.25,38.16,4.39,76.37,2.52,114.69-1.57,32.25-4.27,64.38-8.65,96.34-4.28,31.29-9.8,62.38-16.89,93.18-2.16,9.38-3.99,18.83-6.71,28.08-.59,2-1.31,3.2-3.63,3.21-16.95.06-33.9.39-50.85-.27Z"/>
      <path class="cls-2" d="M86.78,446.03c.47-.79.94-1.58,1.4-2.37,1.98-.3,1.96-1.72,1.8-3.22,0-.35.15-.61.45-.78,2.72-1.35,3.18-4.03,4.6-6.98-3.69.82-4.9,3.07-5.95,5.48-8,9.17-15.39,18.84-21.2,29.53-2.38,4.38-5.17,5.48-9.56,4.34-1.95-.51-3.94-.79-5.78.38-1.53.97-2.29,2.5-2.04,4.22.33,2.29,1.64,3.75,4.08,4.4,6.74,1.78,13.48.97,20.24.4.44-.13.88-.25,1.32-.38,1.63-.21,3.25-.41,4.88-.62,2.53,1.11,6.36.98,5.28,5.54-.15,3.21-.3,6.41-.45,9.62-.11.11-.34.26-.32.31.11.25.28.48.43.72.09,1.58.19,3.16.28,4.73.21,2.82-1.54,6.03,1.61,8.28.24,1.09.47,2.18.71,3.27-.3,2.69-1.24,4.37-4.37,5.04-3.39.73-6.73,1.52-10.19,1.96-18.7,2.37-36.11-.44-51.34-12.39-.82-4.96-.61-9.93-.14-14.91.91-1.06.8-2.26.5-3.49l-.08-.28s.23-.18.23-.18c.62-.4.86-.96.68-1.68.61-8.33,4.24-15.66,8.26-22.66,16.36-28.48,40.07-48.71,70.1-61.71,2.96-1.28,5.21-.56,7.72,1.42,17.3,13.66,36.72,23.14,58,28.83,1.14,2.81,3.47,1.66,5.46,1.63.91.22,1.82.44,2.73.67,6.43,4.54,14.09,6.05,21.34,8.42,15.5,5.07,31.68,6.58,47.83,7.97,2.38.21,3.67.87,4.92,3.17,2.96,5.44,4.69,11.36,6.26,17.16,1.7,6.28,2.99,12.87,1.97,19.63-2.72,18.07-11.98,31.96-26.51,42.63-10.35,7.6-21.54,10.89-34.05,6.29-13.72-5.05-24.2-14.76-34.5-24.67-.49-.47-.36-1.57-.52-2.38.38-.26.75-.53,1.13-.79.97.02,1.65-.35,1.87-1.36.3-.25.6-.5.89-.75.4-.32.8-.64,1.2-.96,1.78-1.63,3.56-3.26,5.34-4.89.24-.25.49-.49.73-.74.74-.76,1.47-1.51,2.21-2.27.25-.32.49-.65.74-.97,0,0,.06-.07.06-.07,1.93-.73,3.85-1.65,5.75.07,1.72,1.74,3.43,3.48,5.15,5.22.41.21.81.42,1.22.62,10.8,3.04,19.66-.66,24.19-10.83,4.04-9.05,8.87-17.66,13.38-26.9-5.25,3.17-8.55,7.92-12.5,11.95-1.42,1.45-2.2,1.77-3.38.13-6.06-8.45-14.98-12.3-24.51-14.96-4.47-1.25-7.95-3.58-11.15-6.86-7.64-7.84-16.6-13.69-27.19-16.83-21.58-6.39-40.6-2.23-56.72,13.84-.93.93-1.93,1.8-2.9,2.7-.9.28-1.29.91-1.29,1.82,0,0-.04.05-.04.05-2.39.32-3.04,1.9-2.9,4.04,0,0,0,0,0,0-1.92.17-2.1,1.51-2,3.02-.21.37-.42.75-.63,1.12-2.76.24-3.57-1.43-3.72-3.77,0,0,.12-.39.12-.39.7-.38.94-.95.7-1.71,0,0,.09-.33.09-.33,1.13-.41,1.43-1.25,1.26-2.35.12-.51.24-1.01.36-1.52,1.95-.43,1.93-1.84,1.69-3.37.17-.31.34-.63.51-.94,2.2-2.39,4.39-4.79,4.26-8.36Z"/>
      <path class="cls-4" d="M263.5,712.09c8.7-1.83,17.52-1.46,26.31-1.46,23.11,0,46.22.02,69.33.06,5.84.01,7.11,2.24,5.61,7.79-1.4,5.19-2.19,10.58-2.93,15.93-3.6,25.95-2.32,52.06-2.3,78.13,0,6.15-1.99,8.02-8.05,7.17-8.63-1.21-17.22.64-25.86.33-7.96-.29-15.89-.47-23.8-1.49-2.91-.38-5.05-2.43-7.86-2.78-.64-3.62-1.61-7.12-3.77-10.18-.38.03-.58-.15-.61-.53-.06-.3-.24-.46-.54-.47-6.42-21.83-13.04-43.61-19.15-65.53-2.48-8.88-5.75-17.62-6.38-26.95Z"/>
      <path class="cls-6" d="M162.86,513.38c.16.81.04,1.91.52,2.38,10.29,9.91,20.78,19.62,34.5,24.67,12.51,4.6,23.7,1.31,34.05-6.29,14.53-10.67,23.8-24.56,26.51-42.63,1.02-6.76-.27-13.36-1.97-19.63-1.57-5.8-3.3-11.72-6.26-17.16-1.25-2.31-2.54-2.97-4.92-3.17-16.15-1.39-32.33-2.91-47.83-7.97-7.25-2.37-14.91-3.88-21.34-8.42,15.3,2.37,30.6,3.93,46.15,2.63,13.32-1.11,26.36-3.43,38.91-7.95,4.79-1.72,7.71-.91,11.11,2.9,12.59,14.1,18.93,30.41,17.61,49.23-.76,10.79-4.21,21.04-9.31,30.69-9.4,17.78-20.4,34.3-36.52,46.8-17.91,13.89-37.07,14.49-57.18,5.25-18.8-8.63-32-23.41-44-39.57-2.06-2.77-1.85-4.07,2.04-4.63,6.47-.92,12.28-3.9,17.93-7.13Z"/>
      <path class="cls-5" d="M499.56,758.39c.81,6.84-3.44,12.28-5.19,18.41-.59,2.06-1.14,4.06-1.29,6.18-2.6.98-1.81,3.2-1.88,5.11,0,0-.02.04-.02.04-2.11.35-1.69,2.07-1.95,3.49-1.21,6.69-4.3,12.76-7.46,18.55-3.42,6.26-10.13,7.97-16.97,8.09-16.44.28-32.9-.48-49.34.43-2.94.16-3.45-1.4-3.76-3.94-.84-6.91,1.83-13.46,1.82-20.25-.04-18.01.64-36.05-2.1-53.96,1.74-.26,2.39,1.03,2.83,2.25,3.19,8.72,9.76,15.53,13.44,23.97.24.54.76,1.09,1.28,1.35,4.58,2.21,10.99-.61,12.43-5.57,4.19-14.42,10.12-28.25,14.45-42.64.9-3,1.17-5.01-.37-7.44,4.74-1.37,8.9,1.84,13.52,1.72,6.3-.17,12.62-.02,18.93-.04,4.65-.01,9.34.33,13.93-.24,4.82-.6,5.38-.26,5.76,4.55.62,7.67-2.81,14.54-5.08,21.26-2.14,6.31-3.16,12.25-3,18.67Z"/>
      <path class="cls-6" d="M165.98,771.24c.72-.87,1.74-.95,2.73-.89,3.67.23,4.59-1.83,4.36-5.01-.75-10.24-.92-20.56-2.36-30.71-1.34-9.46-.06-18.52,2.01-27.56,3.93-17.14,13.01-31.31,25.55-43.47,8.92-8.66,17.69-17.48,26.38-26.37,9.55-9.76,12.47-27.16,6.85-39.36-1.54-3.35-4.17-5.37-7.62-6.43,10.78.32,21.55,1.1,32.36.13,3.04-.27,6.76-2.73,8.96-.59,2.38,2.32-.32,6.01-.88,8.96-5.9,31.2-14.9,61.33-34.38,87.08-7.61,10.06-16.43,19.16-21.99,30.7-6.24,12.96-10.02,26.54-10.71,40.9-.15,3.07-1.16,4.95-3.91,6.2-8.7,3.97-17.78,6.22-27.35,6.4Z"/>
      <path class="cls-2" d="M160.57,782.08c.6-.03,1.2-.07,1.8-.1,2.47.61,5.07.75,7.41.04,4.33-1.32,5.15.51,5.28,4.36.3,8.67-1.04,17.17-1.95,25.73-1.68,15.76-11.52,27.19-27.82,27.93-22.19,1-44.45.03-66.66,1.11-.87-2.95-.7-5.92-.15-8.9.94-1.09.73-2.31.38-3.54l-.13-.22s.16-.21.16-.21c1.3-.69,1.43-1.83,1.21-3.12.14-.62.28-1.25.41-1.87.22-.32.44-.64.66-.96,0,0,.02-.03.02-.03.25-.49.51-.98.76-1.47.16-.29.32-.59.48-.88,1.72-.11,1.69-1.37,1.71-2.59,0,0,.05-.06.05-.06.29-.36.59-.72.88-1.07,0,0-.02.02-.02.02.34-.37.67-.75,1.01-1.12,8.2-9.88,24.34-14.14,37.76-9.85,4.51,1.44,8.92,3.18,13.49,4.82-6.17-6.86-13.82-11.14-22.54-13.37-4.35-1.11-6.55-2.89-5.96-7.78.45-3.76.03-7.64-.1-11.46-.09-2.82.67-3.45,3.52-2.32,4.14,1.64,8.53,2.67,12.81,3.96,1.7,1.81,3.52,3.06,5.99,1.29,1.01.1,2.01.21,3.02.31,8.7,3.12,17.64,1.5,26.5,1.38Z"/>
      <path class="cls-5" d="M517.19,736.27c2.03-.36,1.97-1.96,1.92-3.44-.24-7.18,2.66-13.68,4.26-20.47.25-1.05.69-1.97,1.82-2.02,5.18-.26,10.45-.79,14.4,3.71-.13.17-.27.33-.42.49-2.16-.06-4.33.02-6.47-.22-3.99-.46-5.69.86-5.47,5.18.22,4.19.85,8.5-1.6,12.56-.9,1.49-.68,3.91.32,5.78,2.11,3.93,2.07,7.76.02,11.76-.98,1.93-1.34,5.63.19,5.92,5.05.95,4.72,5.4,6.59,8.35,1.36,2.15.75,4.81,1.35,7.23,1.55,6.22,7.92,7.89,11.16,12.99,5.63,8.84,13.79,16.39,22.3,23.06,1.68,1.31,2.92,3.86,4.7,4.24,8.49,1.81,12.82,11.44,22.26,11.47,1.91,0,3.45,4.15,5.73,2.67,2.16-1.4.6-4.64.97-7.04.13-.82.27-1.63.41-2.44.47-.87-.08-2.2,1.42-3.06.67,10.95-.58,21.56.18,32.14.01.16,0,.33-.01.5-.48,4.03-3.97,6.06-7.49,3.98-1.52-.9-2.84-1.52-4.54-1.32,0,0-.02-.01-.02-.01.39-2.44-.67-4.54-2.72-5.29-3.95-1.45-6.36-4.61-9.07-7.36-2.4-2.43-4.85-3.79-8.25-3.14,0,0-.12-.1-.12-.1.29-1.97-.27-3.04-2.22-4.28-3.03-1.92-6.64-2.96-9.31-4.96-4.94-3.71-10.01-5.44-16-5.05,0,0-.03-.02-.03-.02-.31-.54-.58-1.54-.94-1.57-7.95-.74-15.24-4.66-23.42-4.46-8.44.21-16.9-.08-25.35-.15-1.38-6.1,3.65-10.3,4.65-15.77,1.63-8.92,6.69-16.92,7.38-26.15.07-.97.83-1.34,1.57-1.73,3.64-3.21,6.21-7.94,7.18-11.87,1.58-6.42,4.01-13.16,2.66-20.14Z"/>
      <path class="cls-6" d="M475.19,443.46c1.46,3.57.08,7.2.21,10.8.16,4.41,4.31,9.59,8.53,10.28,4.05.66,4.41-2.68,5.36-5.22.45-1.2.29-3.24,1.89-3.02,2.06.29,1.23,2.45,1.14,3.76-1,14.73-7.05,27.11-16.83,38.14-12.84,14.49-28.57,24.44-47.08,28.83-11.96,2.84-24.45,2.4-36.89-.6-7.92-1.91-15.21-5.06-22.83-7.52-6.23-2.01-9.84-7.05-14.39-10.9-1.5-1.27-4.14-2.13-4.67-4.64,6.62,1.34,12.86,4.01,19.61,5.05,33.52,5.19,61.83-4.53,85.12-29.12,9.76-10.31,15.96-22.68,20.82-35.84Z"/>
      <path class="cls-6" d="M335.96,437.77c-6.5-16.05-5.27-31.69,2.72-46.87,9.3-17.68,33.04-31.51,53.6-27.23,3.04.63,6.44.89,9.7,1.01,1.74.68,3.48,1.35,5.23,2.03,2.44,1.17,4.88,2.34,7.32,3.52l.04.03c.49,2.19,1.67,3.59,3.61,4.98,2.09,1.5,4.96,1.91,6.37,4.36-1.07.37-2.21.39-3.04,1.46-3.54,4.56-7.21,9.01-10.79,13.54-8.1,10.26-16.2,20.52-24.24,30.83-9.67,12.39-19.27,24.83-28.9,37.25-3.6-1.81-6.96-3.92-9.08-7.53,3.05-5.15,7.24-9.43,10.86-14.14,12.11-15.73,24.22-31.46,36.93-46.72,4.55-5.47,8.72-11.25,12.99-16.95,2.16-2.88,1.6-4.83-2.27-4.54-4.04.31-5.9-1.39-5.71-5.65-3.13,1.03-6.58,4.75-6.84,4.61-4.77-2.69-6.22,1.81-7.89,3.9-14.37,17.97-28.34,36.26-42.77,54.18-2.26,2.81-3.72,6.79-7.83,7.92Z"/>
      <path class="cls-6" d="M167.37,178.08c3.82,0,7.64,0,11.47,0,1.9,0,3.98.09,4.48,2.27.53,2.35-1.57,3.01-3.27,3.68-8.5,3.34-16.89,7.01-24.67,11.76-9.27,5.66-17.98,12.06-25.87,19.73-19.16,18.63-31.77,41.07-40.21,66.15-.61,1.82-1.21,4.12-3.88,3.8-2.1-.25-2.45-2.11-2.5-3.79-.61-22.95.54-45.63,11.31-66.63,8.68-16.92,22.61-27.42,40.66-32.79,10.6-3.15,21.45-4.45,32.48-4.17Z"/>
      <path class="cls-5" d="M207.94,820.26c.04-16.66.08-33.32.12-49.98,2.33.56,1.81,2.46,1.84,4.04.06,2.99.09,5.98.02,8.97-.05,1.97.86,3.1,2.64,3.71,2.06.71,2.98-.44,3.81-2.1,1.55-3.08,3.16-6.2,6.33-7.97,4.38-2.44,6.35-8.07,11.91-8.96.94-.15.8-1.32,1.21-1.96,2.99-4.67,3.29-10.45,7.53-14.79,9.09-9.3,7.18-20.65,4.1-31.78-.65-2.34-2.95-3.64-5.62-2.98-7.33,1.82-13.21,6.62-19.29,10.59-4.65,3.04-8.17,7.46-9.5,14.2-1.32,6.69-3.49,13.15-3.15,20.12.12,2.49.21,5.03-1.84,6.97-.58-7.44-1.19-15.11.38-22.26,1.34-6.12,2.32-12.8,6.43-18.11,1.32.58,2.07-.36,3.03-1.01,9-6.09,17.8-12.58,28.75-14.89,3.28,5.63,4.13,11.95,5.29,18.21.77,4.16.93,8.56,3.81,12.07,0,0,.04.09.04.09.24,4.96-1.2,11.03,1.15,14.61,2.8,4.28,3.58,8.89,4.7,13.18,2.71,10.4,6.14,20.51,9.85,30.54,2.38,6.42.36,10.03-6.36,9.5-10.34-.81-20.45,1.15-30.53,2.49-3.82.51-8.53.55-11.95,3.58-4.24,3.75-9.24,4.77-14.73,3.91Z"/>
      <path class="cls-6" d="M78.62,841.15c22.21-1.08,44.48-.11,66.66-1.11,16.3-.74,26.14-12.17,27.82-27.93.91-8.56,2.25-17.06,1.95-25.73-.13-3.85-.95-5.68-5.28-4.36-2.33.71-4.94.57-7.41-.04,5.5-2.24,11.47-1.05,17.14-2.41,4.52-1.08,9.14-1.94,13.33-3.87,3.74-1.72,4.4-.92,4.37,2.92-.15,20.29-.08,40.58-.09,60.86,0,1.5-.21,3.03.04,4.48,1.08,6.26-3.65,8.8-9.03,8.79-25.59-.03-51.18.06-76.77.09-7.15.01-14.29.02-21.44-.02-8.86-.04-11.2-2.48-11.3-11.69Z"/>
      <path class="cls-2" d="M328.94,247.86c.21.44.43.88.64,1.32-.26,4.37.62,8.6,1.66,12.79.8,3.23-.2,5.82-2.89,7.24-3.62,1.92-1.74-3.24-3.91-3.49-4.68-17.74-11.12-34.66-21.53-50-9-13.26-19.9-24.8-32.74-33.99-31.85-22.8-67.52-34.24-106.94-32.48-11.43.51-22.78,2.09-33.75,5.66-.72.23-1.55.1-2.47-.32,12.65-7.66,24.86-15.79,40.57-16.35,32.47-1.17,63.53,3.64,92.22,19.72,30.36,17.01,50.85,42.57,63.9,74.48,1.12,2.74,2.02,5.56,3.03,8.35-.18.78-.12,1.5.49,2.09.28.07.37.24.27.51.3,1.55-.3,3.39,1.46,4.46Z"/>
      <path class="cls-6" d="M215.32,590.33q-8.94.6-10.71,9.43c-.58,2.91-1.15,5.83-1.74,8.75-2.73,13.54-6.83,14.26-19.83,15.64-11.85,1.25-23.59-1.41-35.22-4.47-13.97-3.69-27.55-8.4-40.82-13.94-12.85-5.36-25.06-11.97-34.64-22.57-3.31-3.66-3.93-8.23-5.2-12.63,10.81,2.56,21.06,6.83,31.56,10.34,21.98,7.34,43.86,14.97,65.8,22.43,9.51,3.23,18.72.51,27.81-1.97,4.41-1.21,7.01-4.91,8.29-9.26.86-2.92,2.33-4.14,5.44-3.16,2.99.95,6.3.1,9.26,1.41Z"/>
      <path class="cls-2" d="M357.56,462.67c9.63-12.42,19.24-24.86,28.9-37.25,8.04-10.31,16.15-20.56,24.24-30.83,3.58-4.53,7.25-8.99,10.79-13.54.83-1.07,1.97-1.09,3.04-1.46,1.88.35,1.96,2.96,3.96,3.15v-.02c.33.51.66,1.01.99,1.52l-.07.04c3.7,6.05,7.16,12.2,7.95,19.44-10.3,10.55-18.32,22.96-27.87,34.15-9.01,10.56-17.26,21.77-25.84,32.69-1.3.56-2.62.35-3.95.11-1.39-1.71-3.04-1.59-4.8-.69-6.11-1.68-12.35-3.04-17.37-7.31Z"/>
      <path class="cls-2" d="M105.98,456.36c13.11-9.38,27.31-9.23,41.73-4.14,12.96,4.57,22.38,13.92,30.57,24.62,1.49,1.94,1.49,4.23.49,6.15-5.66,10.79-13.07,19.92-24.66,24.86-.33-2.43-1.73-4.21-3.34-5.96-6.05-6.58-11.39-13.78-17.21-20.52-7.27-8.42-14.15-17.78-25.5-21.53-1.88-.62-2.04-1.92-2.08-3.47Z"/>
      <path class="cls-6" d="M324.93,563.52c-3.35,13.58-6.49,27.22-10.64,40.6-1.47,4.76-4.9,7.57-9.24,7.97-9.56.86-19.2.95-28.42-2.82-2.4-.98-3.16-2.48-2.38-4.61,1.78-4.89,1.89-10.06,2.82-15.09.48-2.59,1.72-4.56,3.39-6.49,7.97-9.16,9.11-18.93,3.09-29.24-1.94-3.33.07-6.14.23-9.14.23-4.45,1.48-8.85,1.79-13.3.39-5.52,3.2-7.12,8.2-6-3.81.97-4.44,3.63-4.08,7.11,1.08,10.36,2.79,20.58,5.69,30.61,1.65,5.7,3.59,7.4,9.31,7.5,3.69.07,7.1-.2,10.39-2.46,2.95-2.02,6.52-3.13,9.82-4.64Z"/>
      <path class="cls-6" d="M297.8,157.9c10.64,6.11,19.25,14.65,27.18,23.77,22.85,26.26,34.8,56.99,36.4,91.76.05,1.09.69,2.46-.51,3.22-1.19.76-2.15-.32-3.16-.84-2.35-1.23-4.59-3.09-7.08-3.52-5.77-1-7.83-4.25-8.99-9.79-4.05-19.42-10.46-38.04-20.79-55.14-.24-.4-.25-.94-.37-1.42,3.53-.53,1.49-2.86,1.01-4.08-4.82-12.26-10.62-24-18.04-34.95-1.97-2.91-4.68-5.44-5.65-9Z"/>
      <path class="cls-2" d="M335.96,437.77c4.1-1.13,5.56-5.11,7.83-7.92,14.42-17.93,28.4-36.21,42.77-54.18,1.67-2.1,3.12-6.59,7.89-3.9.25.14,3.71-3.58,6.84-4.61-.19,4.25,1.66,5.95,5.71,5.65,3.87-.29,4.43,1.66,2.27,4.54-4.27,5.7-8.44,11.49-12.99,16.95-12.71,15.26-24.82,30.98-36.93,46.72-3.62,4.71-7.81,8.99-10.86,14.14-6.51-4.1-9.98-10.4-12.52-17.37Z"/>
      <path class="cls-6" d="M119.98,398.75c7.98,1.94,15.56,4.88,23.5,6.68,20.63,4.68,41.45,5.92,62.4,3.11,28.63-3.84,55.11-13.28,78.13-31.26,5.11-3.99,10.13-8.13,14.43-13,2.95-3.34,4.5-.49,6.5.93,2.55,1.8,1.62,3.39-.06,5.28-22.95,25.79-52.05,40.18-85.64,46.02-25.14,4.37-50.04,2.99-74.41-4.83-8.97-2.88-17.8-6.22-24.85-12.93Z"/>
      <path class="cls-4" d="M208.06,768.35c2.05-1.94,1.96-4.48,1.84-6.97-.34-6.96,1.83-13.43,3.15-20.12,1.33-6.74,4.85-11.16,9.5-14.2,6.08-3.98,11.96-8.77,19.29-10.59,2.67-.66,4.97.63,5.62,2.98,3.07,11.12,4.98,22.48-4.1,31.78-4.24,4.34-4.54,10.12-7.53,14.79-.41.64-.26,1.81-1.21,1.96-5.56.89-7.53,6.52-11.91,8.96-3.17,1.77-4.78,4.89-6.33,7.97-.84,1.66-1.76,2.8-3.81,2.1-1.77-.61-2.69-1.75-2.64-3.71.07-2.99.04-5.98-.02-8.97-.03-1.58.49-3.48-1.84-4.04,0-.64,0-1.29,0-1.93Z"/>
      <path class="cls-6" d="M292.4,142.18q-6.84-4.42-3.29-11.61c17.22-34.7,38.2-66.92,63.34-96.41,4.31-5.06,8.66-10.08,13.12-15,8.37-9.22,20.7-11.53,31.74-6.08-2.33,1.57-5.28.08-7.64,1.52-7.23,1.98-13.91,4.75-17.36,12.14-2.02.61-3.22,2.34-4.47,3.77-23.55,26.75-44.06,55.69-61.24,86.92-4.29,7.8-9.64,15.14-11.63,24.08-.86.23-1.71.45-2.57.68Z"/>
      <path class="cls-2" d="M304.47,514.51c-2.99,0-6-.17-8.98.05-3.15.23-4.3-.12-2.71-3.7,4.27-9.6,6.89-19.68,7.3-30.25.26-6.65.25-13.33-1.78-19.74-.98-3.1.47-4.29,2.87-5.15,7.04-2.52,14.34-2.47,21.68-2.11,2.37.12,2.57,1.78,2.54,3.48-.09,4.66.09,9.36-.5,13.96-1.61,12.58-.6,25.28-2.23,37.86-.43,3.34-1.41,4.7-4.74,4.79-4.48.12-8.95.6-13.43.93,0-.04,0-.08-.01-.12Z"/>
      <path class="cls-2" d="M320.41,346.77c-.26-.6-.53-1.19-.79-1.79,0-8.47,0-16.95,0-25.42-.09-.36.03-.62.36-.78.16-.48.32-.96.48-1.45,2.33-9.84,6.88-18.33,15.03-24.62,1.5.07,3.02.16,3.1-2,0,0,.02,0,.02,0,1.18.1,2.37.22,2.82-1.28,0,0-.06.03-.06.03.45-.2.89-.41,1.34-.62.13-.26.32-.32.58-.18,2.16.11,4.36.69,6.37-.63.67.09,1.33.18,2,.26.36.12.73.24,1.09.35,0,0,.04,0,.04,0-.83,10.53,1.2,21.13-1.94,31.66-3.38,11.37-9.07,20.92-18.54,27.96-2.75,2.05-6.17,3.9-10.08,2.67-.38-.81-.75-1.63-1.13-2.44.26-.78,0-1.36-.72-1.74Z"/>
      <path class="cls-3" d="M411.42,740.55c2.75,17.91,2.07,35.95,2.1,53.96.01,6.79-2.66,13.33-1.82,20.25.31,2.54.82,4.1,3.76,3.94,16.44-.91,32.89-.14,49.34-.43,6.85-.12,13.55-1.83,16.97-8.09,3.16-5.79,6.25-11.87,7.46-18.55.26-1.42-.16-3.14,1.95-3.49.61,7.66-.75,15.78-4.57,21.56-3.07,4.65-7.08,10.08-15.59,11.15-18.24,2.29-36.36.32-54.49,1.39-4.43.26-5.98-1.59-7.24-6.03-2.47-8.74,1.32-17.01.49-25.6-.83-8.57-.44-17.3-.12-25.94.33-8.83-1.09-17.39-2.79-25.97-.74-3.75.14-7.59-1.08-11.49-.9-2.85-.88-5.99-2.12-8.96-2.42-5.79.44-9.81,6.63-9.81,27.44-.01,54.88,0,82.32.05,1.44,0,3.46-.7,4.2.73,1.44,2.77,3.6,1.64,5.05.92,2.81-1.39,5.45-.68,8.19-.83,4.24-.23,3.92,2.75,4.92,4.41,1.33,2.2.05,4.57-2.06,6-1.44.98-2.19,1.93-2.53,3.83-1.37,7.86-3.36,15.59-6.11,23.1-1.23,3.36-.65,7.2-2.89,10.32-.53.73-.97,1.27-1.84,1.44-.16-6.42.86-12.36,3-18.67,2.28-6.72,5.7-13.59,5.08-21.26-.39-4.81-.94-5.15-5.76-4.55-4.58.57-9.28.22-13.93.24-6.31.02-12.62-.14-18.93.04-4.63.13-8.78-3.08-13.52-1.72-14.6-.05-29.21,0-43.81-.22-3.98-.06-4.46,1.7-4.53,5.14-.1,5.22,2.11,9.96,2.4,15.04.38,2.73-1.39,5.96,1.83,8.04l.03.08Z"/>
      <path class="cls-2" d="M324.93,563.52c-3.3,1.51-6.87,2.62-9.82,4.64-3.3,2.26-6.71,2.53-10.39,2.46-5.72-.11-7.66-1.8-9.31-7.5-2.9-10.03-4.61-20.25-5.69-30.61-.36-3.48.27-6.14,4.08-7.11.64-.02,1.27-.05,1.91-.07,1.59,1.86,2.79.37,4.06-.47,2.21-.14,4.42-.29,6.63-.43,6.24.88,12.6-.74,18.79.97.19.36.38.71.58,1.07.3,2.13-.41,3.87-2.06,5.23-.51.05-1.01.1-1.52.15-.47.06-.94.13-1.41.19-1,.19-2.01.38-3.01.57-2.06-1.49-3.5.01-5.04,1.04-2.42.85-4.84,1.7-7.26,2.55,6.88.91,13.62,1.76,20.39,2.17,4.22.25,5.61,1.74,4.37,5.85-1.31,4.39-2.35,8.86-3.51,13.3-1.04.76-2.55,1.36-1.1,3.02-.23.99-.46,1.99-.69,2.98Z"/>
      <path class="cls-6" d="M383.67,470.56c8.58-10.92,16.83-22.13,25.84-32.69,9.55-11.18,17.56-23.6,27.87-34.15,4.18,13.08,2.43,25.74-3.92,37.52-10.59,19.65-27.23,29.69-49.79,29.32Z"/>
      <path class="cls-6" d="M322.25,350.95c3.91,1.23,7.32-.62,10.08-2.67,9.47-7.03,15.16-16.59,18.54-27.96,3.13-10.53,1.11-21.13,1.94-31.66,5.28,1.09,8.74,4.39,11.06,9.09,6.96,14.09,4.98,28.05-.72,41.9-2.63,6.39-6.72,11.71-11.81,16.45-9.4,8.74-24.24,5.13-29.09-5.14Z"/>
      <path class="cls-6" d="M255.5,671.74c-3.19.11-3.32-.02-.93-5.01,6.89-14.39,11.72-29.52,16.05-44.81.7-2.46,1.11-3.38,3.87-2.42,7.08,2.46,14.43,3.7,21.93,3.8,2.05.03,3.99.05,3.04,2.85-4.97,14.77-11.1,28.9-23.9,38.76-5.17,3.98-11.05,6.7-20.06,6.82Z"/>
      <path class="cls-6" d="M22.66,507.51c15.23,11.95,32.64,14.76,51.34,12.39,3.46-.44,6.8-1.22,10.19-1.96,3.13-.67,4.07-2.36,4.37-5.04,2.76,6.55,5.76,12.92,10.64,18.26,2.28,2.5-.19,3.06-1.94,3.48-7.6,1.83-15.33,3.21-23.11,3.61-9.28.48-18.61.13-27.92.15-2.78,0-5.28-.84-7.33-2.65-8.58-7.58-14.58-16.67-16.24-28.25Z"/>
      <path class="cls-3" d="M411.36,336.98c8.18-2.53,13.3,4.23,19.87,6.59,4.68,1.69,7.24,6.23,11.13,8.85,9.65,6.51,14.99,16.31,19.61,26.2,4.2,8.98,8.87,18.15,7.61,28.96-.83,7.06-.43,14.3-.1,21.43.28,6.01-3.17,11.43-2.21,17.51.41,2.6-2.97,2.24-4.11,4.32-2.44,4.42-4.38,9.08-6.77,13.42-5.29,9.61-13.16,17.36-22.68,22.83-4.32,2.48-7.14,6.93-12.1,8.32-6.81,1.92-13.14,4.78-20.54,5.62-9.55,1.09-19.09,2.11-28.5,1.17-8.2-.81-16.83-1.54-23.73-7.71-3.06-2.74-7.44-3.98-11.2-5.96-3.72-1.97-6.34-4.56-5.98-9.31.28-3.64.52-7.39-.05-10.95-.81-5,1.98-8.38,4.2-12.15.57-.97,1.15-1.14,1.89-.39,1.09,1.1,3.06,2.05.9,3.92-2.58-1.02-2.81.71-2.84,2.51-.06,2.82-.02,5.64-.03,8.46-1.25,6.51.83,11.82,5.81,16.07,1.12,3.03,3.78,1.72,5.85,2.09l.15.1c.44,2.35,2.33,1.78,3.86,1.92l.09.06c6.06,5.3,13.24,6.6,20.99,5.87,1.44.02,2.88.05,4.32.07,4.4.22,8.42,2.57,13.05,1.91,3.24-.46,6.04-2.22,9.53-2.14,7.09.17,13.29-3.8,20.11-5.34,7.31-1.65,13.26-6.89,19.26-11.33,3.8-2.81,8.47-6.19,9.77-10.27,2.61-8.22,9.77-13.42,12.33-21.43,1.97-6.17,5.75-12.13,6.13-18.35.65-10.75,2.35-21.86-1.57-32.39-1.64-4.4-2.61-9.19-5.74-12.97-.53-5.26-3.58-9.61-6.25-13.71-4.5-6.89-9.58-13.37-16.39-18.58-6.26-4.79-13.77-7.34-19.73-12.43-2.61.4-4.45-.83-5.92-2.82Z"/>
      <path class="cls-6" d="M105.98,456.36c.04,1.55.21,2.85,2.08,3.47,11.34,3.75,18.22,13.11,25.5,21.53,5.82,6.74,11.16,13.94,17.21,20.52,1.61,1.75,3.01,3.53,3.34,5.96-5.33,3.85-11.46,4.76-17.81,4.96-2.88.09-3.89-2.14-5.21-4-6.33-8.94-12.4-18.06-20.24-25.83-4.63-4.59-9.6-8.74-15.69-11.21-2.31-.94-2.92-1.84-1.29-3.9,3.5-4.4,7.04-8.75,12.1-11.51Z"/>
      <path class="cls-3" d="M389.67,14.59c2.36-1.44,5.31.06,7.64-1.52,2.26-.27,4.11.23,5.81,2.02,6.15,6.51,12.47,12.87,18.72,19.3,7.57,7.8,13.19,17.11,19.24,26,3.84,5.65,7.91,11.19,11.91,16.67,10.04,13.73,18.21,28.47,26.47,43.25,4.44,7.95,7.58,16.48,12.32,24.29,3.2,5.27,4.08,11.9,6.6,17.65,3.61,8.25,7.85,16.22,11.67,24.38,2.75,5.89,4.08,12.28,5.17,18.62.49,2.86,3.44,5.46.51,9.15-1.83,2.3-3.89,4.16-6.16,4.15-9.26-.04-18.07,1.94-26.98,4.14-11.44,2.82-23.24,2.14-34.92,2.34,0,0-.28-.36-.28-.35,2.74-1.3,5.71-1.47,8.66-1.9,7.19-1.04,14.71-.8,21.58-2.43,9.88-2.33,19.93-3.39,29.78-5.64,5.79-1.32,7.78-3.93,5.32-9.51-2.09-4.74-3.19-9.81-6.89-14.1-3.77-4.38-2.65-11.31-5.58-16.44-3.15-5.51-5.3-11.5-8.06-17.18-3.2-6.58-5.71-13.42-10.01-19.49-1.73-2.44-2.94-5.44-2.68-8.82.16-2.07-.17-4.15-1.55-6.12-4.69-6.65-7.86-14.18-12.5-20.94-5.62-8.21-10.8-16.74-16.4-25-3.18-4.7-7.36-8.42-10.67-12.89-6.63-8.96-12.84-18.18-20.39-26.48-2.58-2.83-6.1-4.96-7.84-8.35-4.37-8.51-11.94-12.25-20.48-14.82Z"/>
      <path class="cls-2" d="M132.07,553.56c.11-.34.23-.68.34-1.02.15-.45.3-.89.46-1.34.03-.83.06-1.66.08-2.49-.68-7.81,1.08-10.08,7.78-10.06.29.1.42.29.41.6.42,1.53.82,3.07,2.76,3.35,1.58,2.01-.32,3.33-.98,4.9-2.71,6.46-2.31,12.65,1.82,18.41,3.85,5.38,9.14,7.37,15.65,6.51,2.95-.39,5.35-1.76,7.4-3.74,1.56-1.51,2.96-1.75,4.84-.58,1.86,1.15,3.15,2.31,2.53,4.76-1.33,5.3-2.39,10.68-3.87,15.94-.96,3.41-3.47,4.58-6.98,3.64-12.15-3.23-23.82-7.9-35.76-11.78-2.87-.93-3.16-2.2-2.45-4.71,1.53-5.41,2.88-10.88,4.3-16.33,2.76-1.41,1.35-3.98,1.66-6.06Z"/>
      <path class="cls-2" d="M297.8,157.9c.97,3.56,3.68,6.1,5.65,9,7.42,10.95,13.22,22.7,18.04,34.95.48,1.22,2.53,3.55-1.01,4.08-.23-.39-.46-.78-.68-1.16.02-.89-.34-1.54-1.16-1.91l-.22-.12s0-.25,0-.25c.36-1.86-.23-3.07-2.23-3.36-.19-.31-.39-.61-.58-.92-.27-.44-.54-.88-.81-1.32,0,0-.04-.06-.04-.06-.22-.31-.44-.63-.66-.94-10.86-14.77-23.32-27.91-38.62-38.18-8.12-5.45-16.69-10.05-25.61-14.04-.38-1.54-1.36-1.78-2.7-1.25-.44-.15-.87-.3-1.31-.45-.62-1.14-1.67-1.2-2.78-1.12-.8-.28-1.6-.55-2.4-.83-.08-.2-.23-.26-.43-.18,0,0-.36-.16-.36-.16-.54-.76-1.3-.84-2.13-.67-.64-.22-1.27-.44-1.91-.66-3.69-2.18-7.54-3.8-11.96-3.47-1.33-.26-2.65-.51-3.98-.77-1.68-2.56-4.67-1.67-7.13-2.57,1.61-1.29,3.82.16,5.12-1.52,1.99-.18,3.97-.27,5.9.38,1.09,2.15,2.53,1.82,4.09.57,1.66.13,3.32.27,4.98.4,5.6,2.42,11.45,3.66,17.55,3.78,0,0,.35.15.35.15.47.16.95.31,1.42.47.54.11,1.09.23,1.63.34.74,1.05,1.41,2.31,2.97,1.04.71.18,1.42.36,2.13.54.51,1.07,1.39,1.23,2.44.99.79.23,1.58.45,2.38.68.55,1.72,1.87,1.73,3.3,1.5.56.14,1.12.27,1.68.41,1,2.35,3.24,2.16,5.2,2.55,0,0-.04-.02-.04-.02.58,1.2,1.66,1.28,2.79,1.22,0,0,.09.06.09.06.43.2.86.4,1.28.6,0,0-.07-.04-.07-.04,1.61,2.29,3.94,3.17,6.61,3.41.42.24.84.48,1.26.72.29.67.81.94,1.52.85.48.32.96.64,1.44.96.28,1.04,1.01,1.39,2.02,1.31,0,0-.02-.01-.02-.01.41.26.81.52,1.22.79,0,0-.05-.04-.05-.04.21,1.05.94,1.33,1.9,1.26.34,0,.6.15.78.43.2,1.14.85,1.71,2.02,1.65,0,0,.07.06.07.06.35.29.7.59,1.06.88h0Z"/>
      <path class="cls-2" d="M64.7,558.78c-1.03-.14-1.87-.59-2.41-1.51.9-2.49-.71-6.64,3.89-6.73,4.13-.08,8.26.14,12.41.45,13.56.99,27.2,1.54,40.45-2.57,1.81-.56,3.18-.26,4.74.22,1.08,4.19-2.31,7.29-2.71,11.19-.41,4.05-1.62,8.02-2.23,12.06-.61,4-2.58,4.82-6.23,3.51-12.46-4.47-24.97-8.79-37.46-13.17-.39-.15-.79-.31-1.19-.46,0,0,.06.03.06.03-.7-1.51-1.97-1.28-3.23-1.06-.53-.15-1.05-.3-1.58-.44-.85-2.44-2.78-1.67-4.5-1.51Z"/>
      <path class="cls-6" d="M342.88,848.9c-5.15,0-10.31.04-15.46,0-9.25-.09-16.48-8.7-15.21-17.85.32-2.27,1.71-2.15,3.19-2.04,13.95,1.07,27.92.18,41.87.42,2.65.04,3.95.83,4.24,3.56.43,3.96,1.02,7.92,1.78,11.83.58,3-.16,4.27-3.46,4.14-5.64-.21-11.3-.06-16.95-.06Z"/>
      <path class="cls-6" d="M200.54,426.95c24.58-1.5,46.93-7.3,67.97-17.93,16.67-8.42,31.23-19.61,43.28-33.86,2.65-3.13,4.65-4.11,8.28-2.32,1.56.77,3.53.7,5.34,1.02-11.3,28.54-89.78,62.22-124.88,53.08Z"/>
      <path class="cls-6" d="M82.12,700.37c-4.27-22.16-17.1-40.01-29.94-58.41,3.55,0,4.73,2.81,6.84,3.64,3.73,1.46,6.18,6.39,11.34,4.25.7-.29,1.59,1.01,1.48,2.18,0,0,.33.15.33.15l.02.33s-.09-.06-.09-.06c3.7,6.97,10.51,10.26,16.86,13.97,3.82,2.23,8.01,3.88,12.1,5.61,2.62,1.11,3.46,2.5,2.34,5.35-2.01,5.11-5.89,8.74-9.44,12.61-3.55,3.88-7.1,7.82-11.83,10.39Z"/>
      <path class="cls-2" d="M302.71,347.78c-8.22-15.75-5.85-31.25,1.6-46.36,5.91-11.97,15.17-20.02,28.85-22.06,2.76-.41,2.78-.41,6.32.69-.18.42-.24,1.08-.54,1.21-17.24,7.72-24.16,22.69-28.19,39.8-1.99,8.47-1.06,16.85.19,25.26.17.5.34.99.51,1.49,0,0,.1.26.1.26.24,2.33.49,4.67.8,7.64-3.41-2-5.12-5.12-8.33-6.07,0,0-.17-.21-.17-.21,0-.82-.35-1.39-1.14-1.67Z"/>
      <path class="cls-6" d="M432.6,829.86c6.31,0,12.62.07,18.93-.03,2.57-.04,3.47.75,3.25,3.5-.75,9.26-5.86,14.72-15.06,15.09-9.27.37-18.57.13-27.84.55-4.92.23-5.28-1.94-4.07-5.7.36-1.1.69-2.23.86-3.37q1.59-10.48,12-10.45c3.98,0,7.96,0,11.94,0,0,.14,0,.27,0,.41Z"/>
      <path class="cls-6" d="M377.77,861.7c-3.96-14.18-6.08-28.69-7.53-43.29-2.71-27.39-2.08-54.76,1.76-82,1.4-9.96,3.64-19.83,6-29.62,1.2-4.97,4.4-8.45,10.34-7.53.38.83.76,1.65,1.14,2.48-3.49.51-4.96,3.2-5.94,6.03-1.56,4.54-3.06,9.14-4.08,13.83-5.16,23.61-6.91,47.55-6.65,71.69.21,19.94,1.09,39.79,5.26,59.36-.19,3.02.78,6.07-.3,9.06Z"/>
      <path class="cls-6" d="M63.09,725.46c4.66-1.89,9.53-3.3,13.02-7.37,1.65-1.93,2.97-3.98,3.78-6.31,1.96-5.66,1.84-5.78-4.17-6.89.58-2.06,2.16-1.45,3.46-1.44,6.72.14,11.27-4.74,16.8-7.35,1.31-.62,2.53-2.35,3.91-1.55,1.8,1.04.53,3.01.32,4.54-1.19,8.73-1.21,17.53-1.46,26.3-.12,4.15-1.05,6.06-5.63,5.6-10.17-1.03-20.31-2.04-30.02-5.52Z"/>
      <path class="cls-6" d="M245.68,356.99c.11,9.39-10.78,20.45-20.2,20.5-8.34.05-12.89-7.13-8.94-14.34,3.51-6.42,8.67-11.36,15.02-14.87,7.51-4.14,14.01-.01,14.11,8.7Z"/>
      <path class="cls-6" d="M260.25,341.08c-5.41,0-9.09-2.86-10.37-8.09-2.3-9.35,8.12-21.06,17.7-19.89,9.26,1.13,12.93,11.16,7.31,19.99-3.13,4.91-8.74,7.98-14.64,7.99Z"/>
      <path class="cls-3" d="M389.48,701.74c-.38-.83-.76-1.65-1.14-2.48,1.61-1.18,2.32-.7,3.36,1.05,4.83,8.19,6.29,17.25,8.03,26.41,2.46,12.95,3.6,25.91,4.3,39.05.25,4.72,2.24,9.78,1.34,14.51-2.85,14.95-.4,30.11-2.23,44.94-.99,8-1.99,16.3-4.99,24.19-2.03,5.33-2.25,11.42-4.5,16.87-.78,1.89-1.74,3.55-3.96,3.99-.72-3,2.85-4.92,2-7.95,1.33-4.22,1.67-8.71,2.81-12.89,2.36-8.71,4.47-17.61,4.91-26.43,1.18-23.55.81-47.17.26-70.76.64-7.25-.89-14.29-1.86-21.41-.73-5.36-1.82-10.63-3.42-15.71-.72-2.27.76-5.62-2.62-6.91.62-2.65-2.16-4.1-2.27-6.48Z"/>
      <path class="cls-3" d="M429.42,384.28s.07-.04.06-.04c-.33-.51-.66-1.01-.99-1.52,0,0,0,.02,0,.02.8-4.76-2.03-8.39-4.09-12.11-1.89-3.42-4.56,1.01-6.95-.06-.84-.38-1.93-.23-2.9-.32l-.04-.03c.38-1.32,2.82-1.08,2.44-2.62-.4-1.63-2.19-.99-3.4-1.02-2.12-.07-4.24.08-6.36.13-1.74-.68-3.49-1.35-5.23-2.03-.09-.72.12-1.32.82-1.61.98-.4,2.68-.05,2.4-1.79-.21-1.32-1.68-1.35-2.75-1.77-4.58-1.79-9.55-.27-14.21-1.78-3.12-1.01-6.47-1.25-9.82-1.04-2.32.14-4.65-.28-5.21,3.08-.3,1.77-2.16,1.82-3.7,1.72-2.59-.16-4.76-1.72-5.34-3.87-.83-3.06-1.87-6.96,1.23-9.26,3.84-2.84,4.14-7.29,6.02-10.98.9-1.76,1.58-2.77,3.57-2.44.24,1.18.48,2.36.71,3.54-2.56,5.2-5.12,10.41-7.7,15.64,4.53,1.72,8.31-.76,12.3-1.29,7.17-.97,14.31.44,20.89,2.47,5.51,1.7,11.34,3.01,16.57,6.43,3.38,2.21,5.92,5.63,9.82,7.02.1.64-.03,1.46.32,1.9,3.6,4.47,7.97,8.32,10.69,13.52.27.51,1.82.35,2.77.49,1.83,5.64,3.66,11.28,5.5,16.93.93.97.59,2.01.17,3.05-.29,2.28-.58,4.56-.89,6.93-2.57-8.31-5.73-16.26-10.07-23.71-1.45-2.49-3.79-3.6-6.65-3.58Z"/>
      <path class="cls-3" d="M207.94,820.26c5.48.86,10.49-.16,14.73-3.91,3.42-3.03,8.13-3.07,11.95-3.58,10.08-1.34,20.19-3.3,30.53-2.49,6.72.52,8.74-3.08,6.36-9.5-3.72-10.03-7.14-20.14-9.85-30.54-1.12-4.29-1.89-8.9-4.7-13.18-2.35-3.58-.91-9.65-1.15-14.61,2.72,1.42,3.93,4.27,3.86,6.74-.19,6.34,2.33,12.18,4.86,17.22,1.58,3.15,2.41,6.59,4.1,9.59,2.26,4.01,2.66,8.23,3.47,12.6,1.06,5.66,3.71,11.06,6,16.43.85,1.99,2.68,5.24,1.37,5.68-2.6.89-4.08,3.7-7.07,3.59-3.15-.12-6.35.29-9.46-.09-9.65-1.2-18.89,2.24-28.44,2.23-3.6,0-5.77,3.61-9.57,4.47-4.75,1.08-9.96,1.76-14.18,4.84-.86.63-1.85.56-2.67-.34-1.55-1.69-.56-3.43-.14-5.16Z"/>
      <path class="cls-6" d="M104.17,491.26c3.46,1.09,4.84,4.35,6.77,6.87,5.63,7.38,10.83,15.09,16.43,22.5,1.93,2.55,1.26,3.77-1.28,4.77-4.16,1.63-8.32,3.29-12.53,4.82-1.84.67-3.53.25-5-1.23-5.21-5.24-9.44-11.08-11.57-18.26,4.55-.55,6.03-3.97,7.16-7.69,1.19-3.92.07-7.85.03-11.77Z"/>
      <path class="cls-6" d="M447.04,404.64c.42-1.04.76-2.08-.17-3.06,4.73,10.83,5.76,22.06,3.17,33.54-5.43,24.06-25.29,43.24-50.31,46.02-7.44.83-14.55-1.11-21.84-.76.79-.51,1.58-1.03,2.37-1.54,25.39,3.62,53.09-13.02,63.15-38.12,4.66-11.63,6.6-23.63,3.62-36.07Z"/>
      <path class="cls-6" d="M263.5,712.09c.64,9.33,3.91,18.08,6.38,26.95,6.11,21.92,12.73,43.7,19.15,65.53-.15.53.03.69.54.48.02.38.22.56.6.52-.38,1.77-1.36,3-3.15,3.51-8.07-25.33-16.41-50.58-23.3-76.28-1.54-5.75-3.08-11.5-4.66-17.24-.38-1.39-1.62-2.93-.1-4.09,1.47-1.12,3.14-.53,4.53.62Z"/>
      <path class="cls-6" d="M251.74,566.48c5.48-9.04,14.36-6.88,22.57-6.78,2,.02,2.56,1.73,2.91,3.48,1.39,6.88-2.62,13.85-9.29,15.91-4.27,1.32-8.57,2.57-13.13,2.26,2.29-5.64,1.59-10.66-3.07-14.87Z"/>
      <path class="cls-2" d="M285.36,424.37c10.22,4.45,20.47,8.83,29.76,15.09,1.43.97,3.37,1.46,4.03,4.18-5.7.21-11.25.35-16.67,1.66-8.18,1.96-8.22,1.82-12.33-5.32-.83-1.43-1.55-2.92-2.33-4.38,0-.89-.31-1.55-1.24-1.77,0,0,0,.02,0,.02.2-.8-.24-1.14-.94-1.29-.6-.74-1.21-1.47-1.81-2.21-.2-.23-.41-.47-.61-.7-.33-.14-.5-.39-.52-.74.05-1.91-.78-3.07-2.77-3.22,0,0-.11-.12-.11-.12.47-2.45,2.58-1.53,4.03-1.97,0,0,0,0,0,0,.32.63.83.89,1.52.8Z"/>
      <path class="cls-6" d="M123.77,548.64c-1.56-.48-2.92-.78-4.74-.22-13.24,4.12-26.88,3.56-40.45,2.57-4.15-.3-8.28-.52-12.41-.45-4.6.09-2.99,4.24-3.89,6.73-2.5-5.61-.85-8.59,4.81-8.7,16.71-.31,32.93-3.55,48.71-8.79,4.32-1.44,6.08-.86,6.61,3.61.21,1.78.89,3.5,1.35,5.25Z"/>
      <path class="cls-6" d="M471.46,379.71c7.89,6.59,13.29,14.82,15.82,24.78,1.14,4.51-2.21,7.93-4.25,11.3-3.02,4.97-4.09,10.13-3.55,15.64.41,4.2-1.83,7.58-2.62,11.38-.06.31-1.11.42-1.7.62.33-4.63,1.77-9.05,2.49-13.62,2.63-16.84.11-32.93-5.94-48.65-.17-.45-.17-.96-.25-1.44Z"/>
      <path class="cls-3" d="M447.66,225.04c-.41.5-.86,1.47-1.21,1.43-5.37-.53-10.15,2.41-15.48,2.35-12.64-.14-25.28.01-37.91.04-8.91.02-17.81-.06-26.72.06-3.42.05-5.5-1.13-6.86-4.42-1.49-3.61-2.38-8.63-4.7-10.47-3.62-2.88-2.72-5.88-3.25-9.02,0,0,.36-.34.36-.33,4.87,3.33,5.65,8.94,7.76,13.82,2.54,5.88,2.82,8.51,10.95,8.22,16.14-.57,32.27,1.23,48.45-1.42,9.23-1.51,18.88-.5,28.34-.62,0,0,.28.36.28.36Z"/>
      <path class="cls-2" d="M251.74,566.48c4.66,4.21,5.35,9.23,3.07,14.87-10.88,1.99-21.75.29-32.79-.4,8.11-3.08,16.28-5.89,23.6-10.53,1.06.04,1.88-.24,2-1.47.07-.28.24-.38.52-.32.84.01,1.44-.32,1.68-1.16l1.93-.99Z"/>
      <path class="cls-3" d="M591.2,848.31c1.71-.2,3.02.42,4.54,1.32,3.52,2.08,7,.05,7.49-3.98.02-.16.02-.33.01-.5-.76-10.59.49-21.19-.18-32.14-1.5.86-.95,2.19-1.42,3.06-.14-2.64-.27-5.28-.4-7.91-.47-2.71,1.44-5.95-1.79-8.04.43-4.25-2.23-7.79-2.76-11.78-.92-6.94-5.88-12.74-5.45-20.01l.34-.26c4.65,1.71,4.71,6.68,5.22,9.92,1.59,10.11,5.82,19.4,7.13,29.75,1.66,13.08.5,25.99,1.37,38.93.25,3.77-2.53,6.57-5.21,6.98-3.57.55-7.28-1.31-8.9-5.34Z"/>
      <path class="cls-3" d="M292.4,142.18c.86-.23,1.71-.45,2.57-.68,1.86,1.03,3.23,2.67,4.93,3.93,6.75,4.99,14.92,8.21,19.88,15.49-.08,1.48.78,2.43,1.81,3.3,6.32,5.36,12.11,11.21,16.43,18.37-.14.14-.29.29-.43.43-2.81,1.38-4.61.94-5.98-2.29-3.05-7.15-8.48-12.12-14.96-16.42-4.8-3.18-8.74-7.7-12.9-11.79-.73-.72-1.23-1.52-2.3-1.53-5.26-.05-5.92-5.5-9.21-7.85-.11-.08.11-.62.17-.94Z"/>
      <path class="cls-2" d="M188.78,484.78c.62-2.43-1.13-5.78,1.27-6.91,2.02-.95,4.54,1.26,6.62,2.55,2.25,1.4,4.27,3.04,5.76,5.32,3.33,5.1,2.16,9.24-3.36,11.52-4.98,2.05-8.22.26-9.68-5.68-.55-2.22-.43-4.6-.61-6.81Z"/>
      <path class="cls-2" d="M104.17,491.26c.04,3.93,1.16,7.86-.03,11.77-1.13,3.72-2.61,7.14-7.16,7.69,0,0,.01-.01.01-.01-.2-.39-.39-.78-.59-1.16-.1-.64-.19-1.28-.29-1.93,2.03-2.88-.88-4.7-1.5-7.01-.03-1-.06-2.01-.09-3.01.1-.1.31-.24.29-.31-.08-.25-.23-.48-.35-.72-.55-2.68-.32-5.35.13-8.01.56-1.52,1.11-3.04,1.67-4.57.27.2.53.39.8.59.13.62.5.97,1.15.98,2.63,1.22,4.29,3.47,5.98,5.68Z"/>
      <path class="cls-5" d="M380.26,478.84c-.79.51-1.58,1.03-2.37,1.54-3.1,1.01-5.67-1.27-8.43-1.48-10.11-.77-17.9-5.83-24.97-12.44-2.38-2.23-3.99-2.77-5.18,1.09-.44,1.43-1.71,2.83-3.57,3.08,0-2.82-.03-5.64.02-8.46.04-1.79.26-3.53,2.84-2.51,8.07,3.43,13.7,10.65,22.15,13.75,6.41,2.35,12.92,3.9,19.5,5.43Z"/>
      <path class="cls-6" d="M246.65,712.07c-10.95,2.31-19.75,8.8-28.75,14.89-.97.65-1.71,1.59-3.03,1.01,6.3-13.68,19.26-16.43,31.99-19.54-.07,1.21-.14,2.43-.21,3.64Z"/>
      <path class="cls-6" d="M193.95,580.93c-.94,7.64-4.7,12.09-10.35,12.5-1.84.13-3.12-.14-2.67-2.27,1.03-4.87,2.21-9.7,3.35-14.54.07-.3.24-.72.48-.83,2.86-1.36,4.92,1.26,7.48,1.58,1.96.25,1.89,2,1.71,3.56Z"/>
      <path class="cls-6" d="M375.7,338.49c-.24-1.18-.48-2.36-.71-3.54,1.2-1.35,2.95-1.38,4.5-1.88,4.11.54,8.22.29,12.33-.07,1.08.4,2.16.7,3.19-.15,5.2,2.44,10.87,2.97,16.4,4.04,0,0-.04.09-.04.09,1.47,2,3.31,3.22,5.94,2.84-13.76-3.51-27.59-5.08-41.6-1.33Z"/>
      <path class="cls-5" d="M323.71,402.68c0,8.6.04,17.2-.03,25.8-.01,1.35.57,3.29-1.42,3.77-1.75.41-4.46.77-5.16-.59-2.32-4.52-7.21-4.72-10.73-7.11-1.38-.93-2.3-1.68-2.45-3.29.49-.9.97-1.8,1.46-2.7,3.12,3.94,8.72,4.34,11.81,8.35.82,1.07,1.9,2.02,3.41,1.27,1.54-.76,1.03-2.3,1.04-3.55.06-5.81,0-11.62.07-17.43.02-1.75-.5-3.77,1.7-4.77l.31.25Z"/>
      <path class="cls-5" d="M543.46,716.24c2.93-.19,5.24,1.1,7.69,2.61,6.68,4.1,12.17,9.75,18.77,13.92,1.36.86,1.06,2.31,1.6,3.46-.02,1.26-.05,2.53-.07,3.79-1.19.2-1.66-.4-2.15-1.46-1.99-4.32-5.46-7.81-9.4-9.74-6.41-3.14-11.49-7.74-16.78-12.23l.33-.35Z"/>
      <path class="cls-5" d="M303.21,407.65c.71-2.87,3.7-3,5.59-4.28,3.87-2.64,7.14-5.96,10.93-8.66,2.92-.77,4.35-2.98,5.41-5.55.27,0,.52-.08.75-.22,3.38,1.88.77,5.07,1.62,7.51,0,0-.07.11-.06.11-2.55.46-1.64,2.52-1.87,4.05-.62.69-1.24,1.39-1.87,2.08,0,0-.31-.25-.31-.25-.04-1.85,1.37-4.25-.94-5.32-2.27-1.05-3.57,1.29-4.74,2.69-3.58,4.29-10.32,5.8-11.08,12.58,0,.09-.6.11-.92.17-.1-2.01.72-4.49-2.51-4.88Z"/>
      <path class="cls-3" d="M493.76,811.92c8.45.07,16.91.36,25.35.15,8.17-.21,15.47,3.72,23.42,4.46.36.03.63,1.03.94,1.57-7.97.86-15.39-1.91-23.02-3.4-5.25-1.03-10.59-.29-15.89-.42-2.66-.07-5.31,0-7.97,0-1.58,0-3.12-.08-2.84-2.35Z"/>
      <path class="cls-3" d="M571.46,740.02c.02-1.26.05-2.52.07-3.79,4.93,2.5,7.75,7.09,10.08,11.61,3.43,6.67,9.62,12.04,9.98,20.22,0,0-.34.26-.34.26-2.62-.04-3.9-1.2-3.75-3.98.08-1.44-.16-2.85-1.09-4.22-4.03-5.95-7.9-12-11.83-18.01-.39-1.6-1.52-2.05-3.01-1.96l-.12-.15Z"/>
      <path class="cls-3" d="M517.19,736.27c1.35,6.98-1.08,13.72-2.66,20.14-.97,3.93-3.54,8.66-7.18,11.87,1.26-6.02,2.3-12.09,4.4-17.92,1.43-3.97,2.44-8.08,3.54-12.16.3-1.1.77-1.77,1.91-1.92Z"/>
      <path class="cls-6" d="M157.47,564.15c-3.53-.18-5.82-2.11-7.03-5.32-.76-2.03-1.65-4.62.29-6.06,2.05-1.52,3.18,1.32,4.65,2.29,1.5,1,2.87,2.26,4.09,3.61.91,1.01,2.78,1.79,1.84,3.65-.74,1.46-2.18,1.96-3.83,1.83Z"/>
      <path class="cls-3" d="M571.15,832.51c3.4-.64,5.85.71,8.25,3.14,2.71,2.75,5.12,5.91,9.07,7.36,2.05.75,3.11,2.85,2.72,5.29-4.01,1.03-5.95-2.68-8.32-4.39-4.36-3.14-9.36-6.03-11.72-11.4Z"/>
      <path class="cls-3" d="M246.65,712.07c.07-1.21.14-2.43.21-3.64,3.69-.44,4.22,3.43,4.32,4.86.31,4.28,2.25,8.06,2.79,12.25.72,5.6,2.61,11.04,1.79,16.81-2.89-3.51-3.04-7.91-3.81-12.07-1.16-6.26-2.02-12.58-5.29-18.21Z"/>
      <path class="cls-5" d="M391.67,862.33c.85,3.03-2.72,4.95-2,7.95-4.91,2.69-8.58,1.35-10.52-3.92-.56-1.52-.93-3.11-1.39-4.67,1.08-2.98.11-6.04.3-9.05,1.44,4.61,3.16,9.1,5.5,13.35.47.85.48,1.92,1.69,2.08,1.41.18,2-.61,2.43-1.87.65-1.91,1.78-3.49,3.98-3.87Z"/>
      <path class="cls-3" d="M543.5,818.11c5.99-.38,11.06,1.35,16,5.05,2.67,2,6.27,3.04,9.31,4.96,1.95,1.24,2.51,2.3,2.22,4.28-5.26-.94-8.94-4.93-13.54-7.19-4.05-1.99-7.38-5.38-12.38-5.08-1.18.07-1.65-.89-1.61-2.02Z"/>
      <path class="cls-3" d="M351.52,205.03c-6.04-6.45-11.75-13.12-13.94-22.02.14-.14.29-.28.43-.42,3.25,4.17,6.71,8.2,9.69,12.56,1.95,2.85,4.93,5.44,4.18,9.54l-.36.34Z"/>
      <path class="cls-6" d="M231.19,701.91c3.4-4.26,6.22-7.83,9.08-11.37.88-1.1,1.8-1.38,2.79-.02,2.19,3,.9,7.45-2.64,8.61-2.72.89-5.22,2.55-9.23,2.79Z"/>
      <path class="cls-6" d="M140.73,538.66c-6.71-.02-8.46,2.25-7.78,10.06-2.34-3.56-2.22-7.86-3.43-11.76-.75-2.42,1.4-3.01,3.01-3.78,1.51-.72,2.98-1.51,4.31.45,1.19,1.75,2.58,3.36,3.89,5.03Z"/>
      <path class="cls-6" d="M401.46,700.39c20.08.11,40.16-.49,60.23.31-1.22,1.22-2.79.82-4.22.82-17.33.01-34.66,0-51.98-.04-1.4,0-3.03.55-4.02-1.09Z"/>
      <path class="cls-6" d="M324.44,265.73c2.17.24.29,5.4,3.91,3.49,2.68-1.42,3.69-4.01,2.89-7.24-1.04-4.18-1.92-8.42-1.66-12.79,1.34,5.12,2.27,10.39,4.12,15.32,2.29,6.09-2.57,5.22-5.4,6.02-4.53,1.28-3.64-2.32-3.86-4.8Z"/>
      <path class="cls-6" d="M217.9,130.02c-1.3,1.68-3.51.23-5.12,1.52,2.46.89,5.45,0,7.13,2.57-6.9-.7-13.69-2.07-21.58-3.85,7.24-.94,13.39-1.23,19.57-.23Z"/>
      <path class="cls-6" d="M304.02,349.66c3.21.96,4.92,4.08,8.33,6.07-.31-2.97-.55-5.31-.8-7.64,2.44,4.2,3.53,9.12,6.81,13.04-6.24-2.12-11.2-5.64-14.35-11.47Z"/>
      <path class="cls-6" d="M445.52,234.05c-1.52.57-3.06,1.67-4.57,1.64-13.87-.29-27.66,2.17-41.55,1.08,5.94-.4,11.87-.86,17.81-1.2,9.43-.54,18.87-1.02,28.31-1.52Z"/>
      <path class="cls-6" d="M303.21,407.65c3.24.39,2.41,2.88,2.51,4.88-.69,1.08-1.22,2.17-.31,3.39-1.05.86-1.17,1.68.09,2.46l-.13.17c-.49.9-.97,1.8-1.46,2.7-3.74-4.36-.95-9.05-.7-13.61Z"/>
      <path class="cls-3" d="M327.51,396.44c-.85-2.44,1.76-5.62-1.62-7.51-.38-2.41-.19-4.31,3.06-4.18,3.09.13,2.85,2.34,2.62,4.24-.36,2.95-.73,6.05-4.06,7.45Z"/>
      <path class="cls-6" d="M484.49,229.23c-4.22,2.8-9.26,2.53-13.92,3.37-4.31.77-8.86.17-13.31.17,9.07-1.18,18.15-2.36,27.23-3.54Z"/>
      <path class="cls-5" d="M287.03,809.08c1.79-.51,2.77-1.74,3.15-3.51,2.16,3.06,3.12,6.57,3.77,10.18-3.54-.95-4.9-4.15-6.92-6.68Z"/>
      <path class="cls-6" d="M319.63,319.56c0,8.47,0,16.95,0,25.42-2.84-8.47-2.58-16.95,0-25.42Z"/>
      <path class="cls-3" d="M411.41,336.89c-5.54-1.06-11.2-1.6-16.4-4.04,5.43.42,10.98-1.2,16.3,1.78,2.32,1.3-.04,1.56.1,2.26Z"/>
      <path class="cls-6" d="M145.96,771.6c5.36-1.94,10.73-1.9,16.1-.03-5.36,1.19-10.73,1.23-16.1.03Z"/>
      <path class="cls-6" d="M160.57,782.08c-8.86.12-17.81,1.74-26.5-1.38,8.83.46,17.67.92,26.5,1.38Z"/>
      <path class="cls-6" d="M250.42,135.15c-6.09-.12-11.95-1.36-17.55-3.78,5.99.59,11.91,1.52,17.55,3.78Z"/>
      <path class="cls-3" d="M391.81,333c-4.11.36-8.21.61-12.33.07,2.72-3.13,9.37-3.17,12.33-.07Z"/>
      <path class="cls-6" d="M89.08,438.17c1.05-2.41,2.25-4.66,5.95-5.48-1.42,2.95-1.88,5.64-4.6,6.98-.45-.5-.9-1-1.35-1.5Z"/>
      <path class="cls-6" d="M77.79,465.03c.15,2.33.96,4.01,3.72,3.77-.2,1.14-1.06,1.64-2.02,1.96-1.24.41-2.66,1.05-3.74-.07-1.09-1.13.18-2.11.65-3.09.42-.88.92-1.72,1.38-2.57Z"/>
      <path class="cls-6" d="M325.18,525.4c-6.19-1.72-12.56-.09-18.79-.97,5.7-1.33,11.49-.37,17.24-.64.95-.04,1.4.72,1.56,1.61Z"/>
      <path class="cls-3" d="M325.14,389.16c-1.07,2.57-2.5,4.79-5.41,5.55,0-3.61,1.06-6.19,5.41-5.55Z"/>
      <path class="cls-6" d="M223.89,134.87c4.42-.33,8.27,1.29,11.96,3.47-4.15-.58-8.1-1.87-11.96-3.47Z"/>
      <path class="cls-6" d="M271.45,545.3c1.1,2.02,1.64,3.44-.19,4.4-.44.23-1.61.04-1.74-.27-.8-1.83,1.19-2.45,1.93-4.13Z"/>
      <path class="cls-6" d="M86.78,446.03c.13,3.58-2.05,5.97-4.26,8.36.89-3.06,1.03-6.5,4.26-8.36Z"/>
      <path class="cls-6" d="M86.3,485.98c1.09-4.56-2.75-4.43-5.28-5.54,1.73-1.22,3.92-1.89,5.4-.45,1.7,1.65.35,3.97-.13,5.99Z"/>
      <path class="cls-6" d="M130.43,769.68c4.28-.08,8.51.25,12.6,1.65-4.26-.11-8.64.76-12.6-1.65Z"/>
      <path class="cls-6" d="M94.6,500.62c.62,2.31,3.54,4.13,1.5,7.01-1.36-2.15-1.91-4.48-1.5-7.01Z"/>
      <path class="cls-6" d="M182.78,500.66c-1.9-1.71-3.83-.79-5.75-.07.68-1.67,1.95-2.83,3.36-3.96,1.3,1.11,2.03,2.45,2.39,4.03Z"/>
      <path class="cls-3" d="M491.2,788.09c.07-1.91-.72-4.13,1.88-5.11-.01,1.93,1.74,4.5-1.88,5.11Z"/>
      <path class="cls-6" d="M87.85,509.64c-3.15-2.25-1.4-5.46-1.61-8.28.54,2.76,1.07,5.52,1.61,8.28Z"/>
      <path class="cls-6" d="M131.05,780.39c-2.47,1.77-4.29.52-5.99-1.29,2.09-.01,4.2-.09,5.99,1.29Z"/>
      <path class="cls-6" d="M284.58,149.04c-2.67-.24-5-1.12-6.61-3.41,2.57.42,4.69,1.72,6.61,3.41Z"/>
      <path class="cls-6" d="M374.92,469.98c1.76-.91,3.41-1.03,4.8.69-1.85,1.56-3.35.57-4.8-.69Z"/>
      <path class="cls-6" d="M323.7,531.7c1.65-1.36,2.36-3.1,2.06-5.23,1.36,1.18,2.81,2.59,1.87,4.43-.71,1.4-2.49,1.05-3.93.79Z"/>
      <path class="cls-6" d="M132.07,553.56c-.32,2.09,1.1,4.65-1.66,6.06.5-2.03.4-4.24,1.66-6.06Z"/>
      <path class="cls-5" d="M539.6,714.05c1.61.17,3.57-.3,3.86,2.19,0,0-.33.35-.33.34-1.5-.32-3.42.17-3.95-2.04.14-.16.28-.33.42-.49Z"/>
      <path class="cls-6" d="M84.15,464.65c-.14-2.14.5-3.72,2.9-4.04-.42,1.74-1.53,2.99-2.9,4.04Z"/>
      <path class="cls-3" d="M325.57,400.6c.23-1.53-.68-3.59,1.87-4.05.19,1.73.97,3.73-1.87,4.05Z"/>
      <path class="cls-6" d="M227.9,130.97c-1.57,1.25-3,1.57-4.09-.57,1.44-.34,2.81-.17,4.09.57Z"/>
      <path class="cls-6" d="M173.4,434.48c-1.99.04-4.32,1.18-5.46-1.63,1.99-.03,3.7.89,5.46,1.63Z"/>
      <path class="cls-6" d="M283.84,423.58c-1.45.44-3.56-.49-4.03,1.97-.93-.36-1.45-1.19-.78-1.86,1.46-1.45,3.17-1.3,4.81-.1Z"/>
      <path class="cls-6" d="M96.24,484.01c-.56,1.52-1.11,3.04-1.67,4.57.22-1.64-1.52-4.01,1.67-4.57Z"/>
      <path class="cls-6" d="M273.92,143.81c-1.96-.39-4.2-.2-5.2-2.55,1.76.79,4.04.53,5.2,2.55Z"/>
      <path class="cls-6" d="M312.72,533.64c1.54-1.02,2.98-2.53,5.04-1.04-1.49,1.29-3.28,1.08-5.04,1.04Z"/>
      <path class="cls-6" d="M349.68,288.04c-2.01,1.32-4.22.74-6.37.63,2.04-1.07,4.15-1.42,6.37-.63Z"/>
      <path class="cls-6" d="M279.92,425.67c2,.15,2.82,1.31,2.77,3.22-1.4-.67-2.16-1.88-2.77-3.22Z"/>
      <path class="cls-6" d="M64.7,558.78c1.72-.16,3.65-.93,4.5,1.51-1.5-.5-3-1.01-4.5-1.51Z"/>
      <path class="cls-6" d="M299.75,524.86c-1.27.84-2.48,2.33-4.06.47,1.29-.75,2.63-1.02,4.06-.47Z"/>
      <path class="cls-6" d="M256.79,137.15c-1.55,1.27-2.22,0-2.97-1.04,1.19-.22,2.22,0,2.97,1.04Z"/>
      <path class="cls-6" d="M267.04,140.85c-1.43.23-2.75.22-3.3-1.5,1.44-.25,2.4.57,3.3,1.5Z"/>
      <path class="cls-6" d="M338.6,290.72c-.08,2.15-1.6,2.06-3.1,2,.6-1.34,1.78-1.78,3.1-2Z"/>
      <path class="cls-6" d="M82.15,467.67c-.1-1.51.08-2.85,2-3.02-.29,1.26-.82,2.35-2,3.02Z"/>
      <path class="cls-6" d="M316.18,199.12c2,.28,2.59,1.5,2.23,3.36-1.44-.65-1.9-1.96-2.23-3.36Z"/>
      <path class="cls-6" d="M328.94,247.86c-1.76-1.07-1.16-2.91-1.46-4.46,1.55,1.14,1.35,2.85,1.46,4.46Z"/>
      <path class="cls-6" d="M143.9,542.61c-1.94-.28-2.34-1.82-2.76-3.35,1.45.68,2.3,1.86,2.76,3.35Z"/>
      <path class="cls-6" d="M325.61,560.54c-1.45-1.67.05-2.26,1.1-3.02.16,1.2.08,2.31-1.1,3.02Z"/>
      <path class="cls-6" d="M89.98,440.44c.17,1.5.18,2.92-1.8,3.22-.37-1.61.48-2.54,1.8-3.22Z"/>
      <path class="cls-6" d="M247.18,142.41c1.34-.53,2.32-.3,2.7,1.25-1.14.11-1.91-.6-2.7-1.25Z"/>
      <path class="cls-6" d="M67.14,570.53c-1.35.16-2.54,0-3.06-1.52,1.42-.3,2.36.36,3.06,1.52Z"/>
      <path class="cls-6" d="M82.01,455.34c.24,1.53.26,2.94-1.69,3.37.04-1.38.76-2.43,1.69-3.37Z"/>
      <path class="cls-6" d="M469.93,376.92c1.6.33,1.6,1.53,1.52,2.78-.98-.67-1.51-1.58-1.52-2.78Z"/>
      <path class="cls-6" d="M467.98,372.91c1.53.42,1.52,1.63,1.46,2.87-1.09-.65-1.57-1.61-1.46-2.87Z"/>
      <path class="cls-6" d="M70.78,560.73c1.26-.22,2.53-.44,3.23,1.06-1.22.07-2.29-.29-3.23-1.06Z"/>
      <path class="cls-6" d="M243.09,140.84c1.11-.09,2.16-.02,2.78,1.12-1.17.24-2.04-.26-2.78-1.12Z"/>
      <path class="cls-6" d="M341.44,289.43c-.45,1.5-1.64,1.38-2.82,1.28.6-1.17,1.67-1.32,2.82-1.28Z"/>
      <path class="cls-6" d="M23.02,489.12c.3,1.23.41,2.43-.5,3.49-.39-1.24-.4-2.43.5-3.49Z"/>
      <path class="cls-6" d="M276.67,145.01c-1.13.06-2.21-.02-2.79-1.22,1.1.01,2.23-.04,2.79,1.22Z"/>
      <path class="cls-6" d="M78.85,828.71c.35,1.23.56,2.45-.38,3.54-.3-1.23-.31-2.42.38-3.54Z"/>
      <path class="cls-6" d="M61.52,568.37c-1.3.14-2.61.3-3.15-1.35,1.19.12,2.42.15,3.15,1.35Z"/>
      <path class="cls-6" d="M80.09,825.16c.22,1.28.09,2.42-1.21,3.12-.28-1.31.38-2.24,1.21-3.12Z"/>
      <path class="cls-6" d="M84.15,817.34c-.03,1.22,0,2.49-1.71,2.59.14-1.15.6-2.09,1.71-2.59Z"/>
      <path class="cls-6" d="M296.67,156.96c-1.17.06-1.82-.51-2.02-1.65,1.09.03,1.74.62,2.02,1.65Z"/>
      <path class="cls-6" d="M327.21,242.9c-.61-.59-.67-1.31-.49-2.09.16.7.33,1.39.49,2.09Z"/>
      <path class="cls-6" d="M261.36,138.68c-1.04.24-1.92.08-2.44-.99,1-.14,1.85.1,2.44.99Z"/>
      <path class="cls-6" d="M237.76,138.99c.84-.17,1.59-.08,2.13.67-.83.16-1.55-.04-2.13-.67Z"/>
      <path class="cls-6" d="M318.64,202.85c.82.38,1.18,1.03,1.16,1.91-.96-.29-1.15-1.05-1.16-1.91Z"/>
      <path class="cls-6" d="M285.64,432.54c.69.15,1.13.49.94,1.29-.74-.12-1.08-.53-.94-1.29Z"/>
      <path class="cls-6" d="M286.57,433.82c.93.23,1.25.89,1.24,1.77-.89-.26-1.31-.85-1.24-1.77Z"/>
      <path class="cls-6" d="M293.87,154.88c-.96.07-1.68-.21-1.9-1.26.92-.02,1.57.38,1.9,1.26Z"/>
      <path class="cls-6" d="M87.09,460.55c0-.91.39-1.55,1.29-1.82-.05.88-.42,1.53-1.29,1.82Z"/>
      <path class="cls-6" d="M165.86,511.23c-.22,1.01-.91,1.38-1.87,1.36.3-.9.96-1.31,1.87-1.36Z"/>
      <path class="cls-6" d="M79.96,460.23c.17,1.1-.13,1.95-1.26,2.35-.09-1.06.36-1.83,1.26-2.35Z"/>
      <path class="cls-6" d="M247.61,568.95c-.12,1.23-.94,1.52-2,1.47.37-.89,1.01-1.42,2-1.47Z"/>
      <path class="cls-6" d="M302.71,347.78c.78.28,1.14.85,1.14,1.67-.85-.23-1.21-.8-1.14-1.67Z"/>
      <path class="cls-6" d="M249.81,567.47c-.24.85-.84,1.18-1.68,1.16.25-.83.84-1.18,1.68-1.16Z"/>
      <path class="cls-6" d="M290.83,152.88c-1.01.09-1.73-.27-2.02-1.31.92.05,1.65.39,2.02,1.31Z"/>
      <path class="cls-6" d="M252.19,135.76c-.47-.16-.95-.31-1.42-.47.47.16.95.31,1.42.47Z"/>
      <path class="cls-6" d="M240.26,139.82c.2-.08.35-.02.43.18,0,0-.31.17-.31.17l-.12-.35Z"/>
      <path class="cls-6" d="M98.19,485.58c-.65-.01-1.01-.36-1.15-.98.38.33.76.66,1.15.98Z"/>
      <path class="cls-6" d="M94.45,496.58c.12.24.27.47.35.72.02.07-.18.2-.29.31-.02-.34-.04-.68-.06-1.03Z"/>
      <path class="cls-6" d="M176.97,500.66c-.25.32-.49.65-.74.97-.12-.6.1-.94.74-.97Z"/>
      <path class="cls-6" d="M285.36,424.37c-.7.1-1.2-.17-1.52-.8.7-.11,1.2.17,1.52.8Z"/>
      <path class="cls-6" d="M352.77,288.66c-.36-.12-.73-.24-1.09-.35.5-.29.88-.23,1.09.35Z"/>
      <path class="cls-6" d="M59.9,724.5c.4.09.81.17,1.21.26-.4-.09-.81-.17-1.21-.26Z"/>
      <path class="cls-6" d="M320.47,317.33c-.16.48-.32.96-.48,1.45.16-.48.32-.96.48-1.45Z"/>
      <path class="cls-6" d="M342.73,288.85c-.45.21-.89.41-1.34.62.26-.61.73-.77,1.34-.62Z"/>
      <path class="cls-6" d="M320.41,346.77c.72.38.97.95.72,1.74-.24-.58-.48-1.16-.72-1.74Z"/>
      <path class="cls-6" d="M76.14,481.05c-.44.13-.88.26-1.32.38.44-.13.88-.25,1.32-.38Z"/>
      <path class="cls-6" d="M73.95,561.76c.4.15.79.31,1.19.46-.54.21-.96.11-1.19-.46Z"/>
      <path class="cls-6" d="M314.8,196.88c.27.44.54.88.81,1.32-.27-.44-.54-.88-.81-1.32Z"/>
      <path class="cls-6" d="M466.62,370.69c.27.36.55.72.82,1.08-.58-.12-.88-.46-.82-1.08Z"/>
      <path class="cls-6" d="M314.11,195.87c.22.31.44.63.66.94-.22-.31-.44-.63-.66-.94Z"/>
      <path class="cls-6" d="M400.41,698.42c.66.36.93.9.78,1.65-.26-.55-.52-1.1-.78-1.65Z"/>
      <path class="cls-6" d="M297.8,157.9c-.35-.29-.7-.59-1.06-.88.64-.05.98.26,1.06.88Z"/>
      <path class="cls-6" d="M283.21,429.63c.2.23.41.47.61.7-.51.03-.71-.21-.61-.7Z"/>
      <path class="cls-6" d="M86.06,815.11c-.34.37-.67.75-1.01,1.12.02-.66.38-1.01,1.01-1.12Z"/>
      <path class="cls-6" d="M85.07,816.21c-.29.36-.59.72-.88,1.07.29-.36.59-.72.88-1.07Z"/>
      <path class="cls-6" d="M221.33,591.23c-.46-.08-.93-.16-1.39-.23.46.08.93.16,1.39.23Z"/>
      <path class="cls-6" d="M23.86,486.97c.18.73-.05,1.28-.68,1.68-.14-.71.07-1.27.68-1.68Z"/>
      <path class="cls-6" d="M81.95,820.82c-.25.49-.51.98-.76,1.47.25-.49.51-.98.76-1.47Z"/>
      <path class="cls-6" d="M81.16,822.33c-.22.32-.44.64-.66.96-.18-.6.11-.87.66-.96Z"/>
      <path class="cls-6" d="M287.37,150.61c-.72.09-1.23-.18-1.52-.85.51.28,1.02.57,1.52.85Z"/>
      <path class="cls-6" d="M132.86,551.2c-.15.45-.3.89-.46,1.34.15-.45.3-.89.46-1.34Z"/>
      <path class="cls-6" d="M85.95,496.62c-.15-.24-.32-.46-.43-.72-.02-.05.21-.2.32-.31.03.34.07.69.1,1.03Z"/>
      <path class="cls-6" d="M320.77,532.04c.47-.06.94-.13,1.41-.19-.47.06-.94.13-1.41.19Z"/>
      <path class="cls-6" d="M78.62,462.92c.24.76,0,1.33-.7,1.71.23-.57.47-1.14.7-1.71Z"/>
      <path class="cls-6" d="M167.95,509.53c-.4.32-.8.64-1.2.96.14-.65.56-.94,1.2-.96Z"/>
      <path class="cls-6" d="M96.4,509.56c.2.39.39.77.59,1.16-.62-.17-.75-.59-.59-1.16Z"/>
      <path class="cls-6" d="M278.04,145.67c-.43-.2-.86-.4-1.28-.6.43.2.86.4,1.28.6Z"/>
      <path class="cls-6" d="M189.15,506.5c-.41-.21-.81-.42-1.22-.62.41.21.81.42,1.22.62Z"/>
      <path class="cls-6" d="M311.46,347.83c-.17-.5-.34-.99-.51-1.49.17.5.34.99.51,1.49Z"/>
      <path class="cls-6" d="M174.02,503.9c-.24.25-.49.49-.73.74-.09-.57.15-.83.73-.74Z"/>
      <path class="cls-6" d="M292.03,153.66c-.41-.26-.81-.52-1.22-.79.41.26.81.52,1.22.79Z"/>
      <polygon class="cls-1" points="72.18 652.5 72.17 652.17 71.84 652.03 71.83 652.4 72.18 652.5"/>
      <path class="cls-5" d="M289.57,805.05c-.51.22-.69.05-.54-.48.31.02.49.18.54.48Z"/>
      <path class="cls-4" d="M409.56,732.43c-.28-5.09-2.5-9.82-2.4-15.04.07-3.44.55-5.2,4.53-5.14,14.6.21,29.2.17,43.81.22,1.53,2.43,1.27,4.44.37,7.44-4.34,14.39-10.26,28.22-14.45,42.64-1.44,4.96-7.85,7.78-12.43,5.57-.53-.25-1.05-.81-1.28-1.35-3.68-8.44-10.25-15.25-13.44-23.97-.45-1.22-1.1-2.51-2.83-2.25,0,0-.03-.07-.02-.07-.47-2.71,2.03-6.11-1.84-8.04Z"/>
      <path class="cls-4" d="M539.19,714.55c.53,2.21,2.45,1.72,3.95,2.04,5.29,4.49,10.37,9.09,16.78,12.23,3.94,1.93,7.4,5.42,9.4,9.74.49,1.06.96,1.66,2.15,1.46,0,0,.12.14.11.14-.21,2.52,1.44,2.18,3.01,1.96,3.93,6.01,7.8,12.06,11.83,18.01.92,1.36,1.17,2.78,1.09,4.22-.16,2.78,1.13,3.94,3.75,3.98-.43,7.27,4.53,13.07,5.45,20.01.53,3.98,3.19,7.53,2.76,11.78.46,2.71-2.22,6.13,1.79,8.04.13,2.64.27,5.27.4,7.91-.13.82-.28,1.63-.4,2.45-.38,2.4,1.18,5.63-.97,7.04-2.28,1.48-3.82-2.66-5.73-2.67-9.44-.04-13.77-9.66-22.26-11.47-1.78-.38-3.02-2.93-4.7-4.24-8.51-6.67-16.67-14.22-22.3-23.06-3.24-5.09-9.61-6.77-11.16-12.99-.61-2.42.01-5.08-1.35-7.23-1.87-2.95-1.54-7.4-6.59-8.35-1.53-.29-1.17-3.99-.19-5.92,2.04-4,2.08-7.84-.02-11.76-1-1.87-1.22-4.29-.32-5.78,2.45-4.06,1.82-8.37,1.6-12.56-.22-4.32,1.48-5.64,5.47-5.18,2.14.25,4.31.16,6.47.22Z"/>
      <path class="cls-1" d="M414.56,370.25c.97.09,2.05-.06,2.9.32,2.39,1.07,5.06-3.36,6.95.06,2.06,3.72,4.89,7.36,4.09,12.11-2-.19-2.08-2.8-3.96-3.15-1.41-2.45-4.28-2.86-6.37-4.36-1.93-1.39-3.12-2.8-3.61-4.98Z"/>
      <path class="cls-1" d="M407.2,366.71c2.12-.06,4.24-.2,6.36-.13,1.2.04,2.99-.6,3.4,1.02.38,1.55-2.06,1.3-2.44,2.62-2.44-1.17-4.88-2.34-7.32-3.52Z"/>
      <path class="cls-1" d="M428.5,382.72c.33.51.66,1.01.99,1.52-.33-.51-.66-1.01-.99-1.52Z"/>
      <path class="cls-4" d="M319.77,160.92c-4.96-7.28-13.13-10.5-19.88-15.49-1.69-1.25-3.07-2.9-4.93-3.93,1.98-8.94,7.34-16.28,11.62-24.08,17.18-31.24,37.68-60.17,61.24-86.92,1.25-1.42,2.45-3.15,4.47-3.76,2.46.84,3.64-1.1,5.03-2.41,5.04-4.75,10.23-5.18,14.4.13,4.67,5.95,9.48,11.79,13.57,18.31,4.56,7.27,9.22,14.61,13.8,21.86,4.6,7.28,9.16,14.79,13.8,21.99,5.04,7.8,8.6,16.1,12.47,24.31,2.71,5.75,5.43,11.84,8.9,16.74,4,5.65,6.93,11.71,10.4,17.54,1.69,2.85.28,6.02,1.74,9.1,1.55,3.28,2.91,6.59,4.67,9.86,4.31,8,3.32,17.88,8.32,25.77,2.91,4.6,1.67,10.1,3.71,15.05,2.33,5.67.12,8.93-5.41,11.72-8.41,4.24-17.82,1.42-26.6,3.93-5.08,1.45-11.13-.64-16.33.61-7.22,1.73-14,2.79-21.06-.15-1.68-.7-4.04-.42-5.16,1-2.78,3.51-6.46,2.74-10.02,2.76-5.82.04-11.64.03-17.46,0-1.31,0-3.27.51-3.75-.64-1.89-4.52-5.69-3.26-8.96-3.24-3.87.03-5.5-1.5-7.05-5.27-3.01-7.34-5.98-14.77-10.95-21.24-8.08-10.52-15.34-21.69-25-30.93-1.59-1.52-3.1-3.06-5.57-2.61Z"/>
      <path class="cls-5" d="M319.77,160.92c2.48-.44,3.98,1.09,5.57,2.61,9.67,9.24,16.92,20.41,25,30.93,4.97,6.47,7.94,13.9,10.95,21.24,1.55,3.77,3.18,5.31,7.05,5.27,3.27-.03,7.07-1.28,8.96,3.24.48,1.15,2.45.63,3.75.64,5.82.02,11.64.03,17.46,0,3.56-.03,7.25.75,10.02-2.76,1.12-1.42,3.49-1.7,5.16-1,7.06,2.94,13.85,1.89,21.06.15,5.2-1.25,11.25.84,16.33-.61,8.78-2.5,18.19.31,26.6-3.93,5.53-2.79,7.74-6.05,5.41-11.72-2.03-4.95-.79-10.45-3.71-15.05-4.99-7.88-4.01-17.77-8.32-25.77-1.76-3.26-3.11-6.58-4.67-9.86-1.46-3.08-.04-6.26-1.74-9.1-3.47-5.84-6.4-11.89-10.4-17.54-3.47-4.9-6.19-10.99-8.9-16.74-3.88-8.21-7.44-16.51-12.47-24.31-4.65-7.2-9.2-14.71-13.8-21.99-4.58-7.25-9.24-14.59-13.8-21.86-4.09-6.52-8.9-12.36-13.57-18.31-4.17-5.31-9.36-4.88-14.4-.13-1.39,1.31-2.57,3.25-5.03,2.41,3.45-7.4,10.14-10.16,17.37-12.14,8.53,2.57,16.11,6.32,20.48,14.82,1.74,3.39,5.27,5.52,7.84,8.35,7.55,8.3,13.76,17.52,20.39,26.48,3.31,4.47,7.49,8.19,10.67,12.89,5.59,8.26,10.77,16.79,16.4,25,4.63,6.76,7.81,14.29,12.5,20.94,1.39,1.97,1.71,4.05,1.55,6.12-.26,3.38.95,6.38,2.68,8.82,4.3,6.07,6.81,12.91,10.01,19.49,2.76,5.68,4.91,11.67,8.06,17.18,2.93,5.13,1.81,12.06,5.58,16.44,3.7,4.29,4.8,9.36,6.89,14.1,2.46,5.58.47,8.19-5.32,9.51-9.85,2.25-19.91,3.31-29.78,5.64-6.87,1.62-14.39,1.38-21.58,2.43-2.95.43-5.91.6-8.66,1.9-9.46.12-19.11-.9-28.34.62-16.18,2.65-32.32.85-48.45,1.42-8.13.29-8.42-2.34-10.95-8.22-2.11-4.89-2.89-10.49-7.76-13.82.75-4.1-2.23-6.69-4.18-9.54-2.98-4.36-6.44-8.39-9.69-12.56-4.32-7.16-10.1-13.01-16.42-18.37-1.03-.87-1.89-1.82-1.81-3.3Z"/>
      <path class="cls-5" d="M409.56,732.43c3.87,1.93,1.37,5.33,1.84,8.04-3.22-2.08-1.45-5.31-1.84-8.04Z"/>
      <path class="cls-4" d="M375.7,338.49c14.01-3.75,27.84-2.18,41.6,1.33,5.95,5.08,13.45,7.63,19.72,12.42,6.82,5.21,11.9,11.68,16.39,18.58,2.68,4.1,5.72,8.45,6.25,13.71-.85,5.49,1.69,10.86,1.44,15.95-.44,8.99,4.64,18.43-1.56,27.05-.08.11-.04.32-.04.49-.23,4.66,1.07,9.62-4.02,13-2.71,1.8-2.31,5.64-3.4,8.47-2.45,6.35-7.19,10.57-11.57,15.24-4.19,4.46-6.3,10.37-13.03,13.09-5.76,2.33-9.65,8.72-16.76,9.47-1.2.13-2.71,1.3-3.11,2.96-.24.98-.52,2.29-1.69,2.12-4.28-.63-7.72,2.62-12,2.3-4.46-.33-8.97-.06-13.46.01-1.58.02-3.55-.45-3.67,2.14-1.44-.02-2.88-.05-4.32-.07-.06-1.79-1.3-2.29-2.71-2.05-4.14.71-7.61-1.63-11.25-2.71-2.4-.71-4.55-1.48-7.03-1.11,0,0-.09-.06-.09-.06-.12-2.99-2.2-2.03-3.86-1.92,0,0-.15-.1-.14-.1-.81-3.91-3.88-1.46-5.85-2.09-4.98-4.25-7.06-9.56-5.81-16.07,1.86-.26,3.13-1.65,3.57-3.08,1.19-3.87,2.8-3.32,5.18-1.09,7.08,6.61,14.86,11.68,24.97,12.44,2.76.21,5.33,2.49,8.43,1.48,7.29-.35,14.4,1.59,21.84.76,25.01-2.78,44.88-21.97,50.31-46.02,2.59-11.48,1.56-22.71-3.17-33.54-1.83-5.63-3.67-11.27-5.5-16.91-3.49-6.26-7.38-12.18-13.78-15.91-3.91-1.38-6.44-4.81-9.82-7.02-5.23-3.41-11.06-4.72-16.57-6.43-6.59-2.03-13.72-3.44-20.89-2.47-4,.54-7.77,3.02-12.3,1.29,2.58-5.23,5.14-10.44,7.7-15.64Z"/>
      <path class="cls-5" d="M376.8,496.82c.12-2.6,2.09-2.12,3.67-2.14,4.49-.07,9-.35,13.46-.01,4.28.32,7.71-2.93,12-2.3,1.17.17,1.45-1.14,1.69-2.12.4-1.66,1.91-2.83,3.11-2.96,7.11-.75,11-7.14,16.76-9.47,6.73-2.73,8.84-8.63,13.03-13.09,4.39-4.67,9.13-8.89,11.57-15.24,1.09-2.82.69-6.66,3.4-8.47,5.08-3.38,3.78-8.34,4.02-13,0-.17-.04-.38.04-.49,6.21-8.62,1.13-18.06,1.56-27.05.25-5.09-2.3-10.46-1.44-15.95,3.14,3.77,4.1,8.57,5.74,12.97,3.93,10.53,2.23,21.64,1.57,32.39-.38,6.21-4.16,12.18-6.13,18.35-2.56,8.01-9.72,13.2-12.33,21.43-1.3,4.08-5.97,7.46-9.77,10.27-6,4.44-11.95,9.68-19.26,11.33-6.82,1.53-13.02,5.5-20.11,5.34-3.49-.08-6.28,1.68-9.53,2.14-4.64.66-8.66-1.68-13.05-1.91Z"/>
      <path class="cls-5" d="M351.49,490.87c2.48-.37,4.63.4,7.03,1.11,3.64,1.08,7.11,3.42,11.25,2.71,1.41-.24,2.64.26,2.71,2.05-7.75.72-14.93-.57-20.99-5.87Z"/>
      <path class="cls-5" d="M341.54,486.7c1.97.63,5.05-1.82,5.85,2.09-2.07-.37-4.73.95-5.85-2.09Z"/>
      <path class="cls-5" d="M347.54,488.89c1.66-.11,3.74-1.07,3.86,1.92-1.53-.15-3.43.43-3.86-1.92Z"/>
      <path class="cls-4" d="M391.67,862.33c-2.21.38-3.33,1.96-3.98,3.87-.43,1.26-1.02,2.05-2.43,1.87-1.22-.16-1.23-1.23-1.69-2.08-2.34-4.25-4.06-8.74-5.5-13.35-4.17-19.57-5.05-39.42-5.26-59.36-.26-24.14,1.49-48.07,6.65-71.69,1.02-4.69,2.52-9.29,4.08-13.83.97-2.83,2.45-5.51,5.94-6.03.12,2.38,2.89,3.84,2.27,6.48-.13,2.47-.68,5.07.39,7.34,2.55,5.41,1.66,11.4,3.26,17.04,1.61,5.67,3.08,11.67,2.35,17.82-.14,1.16.79,1.71,1.9,1.83.55,23.59.92,47.21-.26,70.76-.44,8.81-2.55,17.71-4.91,26.43-1.13,4.18-1.48,8.67-2.81,12.89Z"/>
      <path class="cls-5" d="M399.64,752.25c-1.11-.12-2.04-.67-1.9-1.83.73-6.14-.74-12.14-2.35-17.82-1.6-5.64-.71-11.63-3.26-17.04-1.07-2.27-.52-4.87-.39-7.34,3.38,1.28,1.9,4.63,2.62,6.91,1.6,5.08,2.69,10.35,3.42,15.71.97,7.12,2.5,14.16,1.86,21.41Z"/>
      <path class="cls-5" d="M427.59,368.75c6.41,3.73,10.29,9.65,13.78,15.91-.96-.15-2.51.01-2.78-.49-2.72-5.2-7.09-9.05-10.69-13.52-.35-.44-.23-1.26-.32-1.9Z"/>
      <path class="cls-5" d="M601.25,808.16c-4.02-1.92-1.33-5.33-1.79-8.04,3.23,2.09,1.32,5.33,1.79,8.04Z"/>
      <path class="cls-4" d="M305.41,415.93c-.91-1.22-.38-2.31.31-3.39.32-.06.91-.08.92-.17.75-6.77,7.5-8.29,11.08-12.58,1.17-1.4,2.46-3.75,4.74-2.69,2.31,1.07.9,3.47.94,5.32-2.21,1-1.69,3.02-1.71,4.77-.06,5.81-.01,11.62-.07,17.43-.01,1.25.5,2.79-1.04,3.55-1.5.74-2.58-.21-3.41-1.27-3.09-4-8.69-4.41-11.81-8.35,0,0,.13-.17.13-.17-.03-.82-.06-1.64-.09-2.46Z"/>
      <path class="cls-5" d="M574.58,742.12c-1.57.23-3.22.56-3.01-1.96,1.49-.09,2.62.36,3.01,1.96Z"/>
      <path class="cls-5" d="M305.41,415.93c.03.82.06,1.64.09,2.46-1.26-.78-1.14-1.6-.09-2.46Z"/>
    </g>
  </g>
</svg>