<?xml version="1.0" encoding="UTF-8"?>
<svg id="Layer_2" xmlns="http://www.w3.org/2000/svg" viewBox="0 0 421.78 480.39">
  <defs>
    <style>
      .cls-1 {
        fill: #24192a;
      }

      .cls-2 {
        fill: #e7e4e6;
      }

      .cls-3 {
        fill: #348dc4;
      }

      .cls-4 {
        fill: #3297d1;
      }

      .cls-5 {
        fill: #b7b0b9;
      }

      .cls-6 {
        fill: #81d2ea;
      }

      .cls-7 {
        fill: #c2b8c4;
      }

      .cls-8 {
        fill: #9acfe2;
      }

      .cls-9 {
        fill: #462e52;
      }

      .cls-10 {
        fill: #2a1a34;
      }

      .cls-11 {
        fill: #302334;
      }

      .cls-12 {
        fill: #b7553b;
      }

      .cls-13 {
        fill: #3c2841;
      }

      .cls-14 {
        fill: #231b28;
      }

      .cls-15 {
        fill: #f6f4f4;
      }

      .cls-16 {
        fill: #3b2545;
      }

      .cls-17 {
        fill: #c9bace;
      }

      .cls-18 {
        fill: #a32030;
      }

      .cls-19 {
        fill: #443a44;
      }

      .cls-20 {
        fill: #2d1937;
      }

      .cls-21 {
        fill: #2f1a37;
      }

      .cls-22 {
        fill: #9f1f2c;
      }

      .cls-23 {
        fill: #b1a7b6;
      }

      .cls-24 {
        fill: #fefefe;
      }

      .cls-25 {
        fill: #251e2e;
      }

      .cls-26 {
        fill: #6ba0bc;
      }

      .cls-27 {
        fill: #3d2848;
      }

      .cls-28 {
        fill: #3e304c;
      }

      .cls-29 {
        fill: #c2bcc5;
      }

      .cls-30 {
        fill: #d82328;
      }

      .cls-31 {
        fill: #9d202d;
      }

      .cls-32 {
        fill: #2c1e20;
      }

      .cls-33 {
        fill: #d32327;
      }

      .cls-34 {
        fill: #fff;
      }

      .cls-35 {
        fill: #2e2635;
      }

      .cls-36 {
        fill: #d5bed4;
      }

      .cls-37 {
        fill: #b1a5b5;
      }

      .cls-38 {
        fill: #e39ea8;
      }

      .cls-39 {
        fill: #f3f3f3;
      }

      .cls-40 {
        fill: #e2e2e2;
      }

      .cls-41 {
        fill: #dad1dd;
      }

      .cls-42 {
        fill: #ecebeb;
      }

      .cls-43 {
        fill: #e43841;
      }

      .cls-44 {
        fill: #2b1936;
      }

      .cls-45 {
        fill: #a8a1ad;
      }

      .cls-46 {
        fill: #beb6c1;
      }

      .cls-47 {
        fill: #982636;
      }

      .cls-48 {
        fill: #eb643d;
      }

      .cls-49 {
        fill: #473151;
      }

      .cls-50 {
        fill: #decfd8;
      }

      .cls-51 {
        fill: #cf2328;
      }

      .cls-52 {
        fill: #d8989f;
      }

      .cls-53 {
        fill: #3d2c45;
      }

      .cls-54 {
        fill: #fbfaf9;
      }

      .cls-55 {
        fill: #bf4c45;
      }

      .cls-56 {
        fill: #482f53;
      }

      .cls-57 {
        fill: #d02328;
      }

      .cls-58 {
        fill: #a99cae;
      }

      .cls-59 {
        fill: #dc4449;
      }

      .cls-60 {
        fill: #d2cad4;
      }

      .cls-61 {
        fill: #f8f5f7;
      }

      .cls-62 {
        fill: #b22a38;
      }

      .cls-63 {
        fill: #2d1c37;
      }

      .cls-64 {
        fill: #c0b5c5;
      }

      .cls-65 {
        fill: #f4cc53;
      }

      .cls-66 {
        fill: #d1c8d1;
      }

      .cls-67 {
        fill: #dae8f0;
      }

      .cls-68 {
        fill: #d2cad5;
      }

      .cls-69 {
        fill: #b3ddeb;
      }

      .cls-70 {
        fill: #ca6579;
      }

      .cls-71 {
        fill: #dec67c;
      }

      .cls-72 {
        fill: #402e4b;
      }

      .cls-73 {
        fill: #331a3f;
      }

      .cls-74 {
        fill: #722232;
      }

      .cls-75 {
        fill: #2f1c39;
      }

      .cls-76 {
        fill: #fbf9f8;
      }

      .cls-77 {
        fill: #dfa0a5;
      }

      .cls-78 {
        fill: #f2eef0;
      }

      .cls-79 {
        fill: #8d1f37;
      }

      .cls-80 {
        fill: #df98a5;
      }

      .cls-81 {
        fill: #c1b9c5;
      }

      .cls-82 {
        fill: #de7530;
      }

      .cls-83 {
        fill: #e2d3e2;
      }

      .cls-84 {
        fill: #c9c2cb;
      }

      .cls-85 {
        fill: #f0c7a7;
      }

      .cls-86 {
        fill: #f6f5f5;
      }

      .cls-87 {
        fill: #c2bbc4;
      }

      .cls-88 {
        fill: #ea7e3c;
      }

      .cls-89 {
        fill: #eeb8c3;
      }

      .cls-90 {
        fill: #b9b2bd;
      }

      .cls-91 {
        fill: #b8b2bc;
      }

      .cls-92 {
        fill: #b9aabf;
      }

      .cls-93 {
        fill: #b5aab9;
      }

      .cls-94 {
        fill: #b53447;
      }

      .cls-95 {
        fill: #bcb2c0;
      }

      .cls-96 {
        fill: #5caddb;
      }

      .cls-97 {
        fill: #e4e2e4;
      }

      .cls-98 {
        fill: #f4f4f4;
      }

      .cls-99 {
        fill: #473255;
      }

      .cls-100 {
        fill: #d83f46;
      }

      .cls-101 {
        fill: #fcfbfb;
      }

      .cls-102 {
        fill: #392b3e;
      }

      .cls-103 {
        fill: #422f4b;
      }

      .cls-104 {
        fill: #cac2cc;
      }

      .cls-105 {
        fill: #df3236;
      }

      .cls-106 {
        fill: #b16834;
      }

      .cls-107 {
        fill: #d7d0d7;
      }

      .cls-108 {
        fill: #f3eff0;
      }

      .cls-109 {
        fill: #cdc5ce;
      }

      .cls-110 {
        fill: #196ba5;
      }

      .cls-111 {
        fill: #ccc4d2;
      }

      .cls-112 {
        fill: #e4e3e2;
      }

      .cls-113 {
        fill: #d6cbd8;
      }

      .cls-114 {
        fill: #ec673f;
      }

      .cls-115 {
        fill: #b9b0bf;
      }
    </style>
  </defs>
  <g id="Layer_1-2" data-name="Layer_1">
    <g>
      <path class="cls-20" d="M106.73,319.23c6.1-2.03,12.07-4.34,18.46-5.6,10.31-2.03,20.1-1.25,29.44,3.52,2.16,1.1,3.4.95,5.13-.73,6.65-6.46,13.78-12.39,21.53-18.05-5.4-3.1-11.35-4.69-16.39-8.14-4.15-2.85-8.13-5.9-10.5-10.36-1.59-2.99-3.87-4.14-6.89-4.67-5.39-.96-10.58-2.62-15.53-4.97-11.47-5.45-17.02-14.63-17.31-27.25-.44-19.2,2.63-37.9,8.2-56.17,2.73-8.95,6.01-17.77,11.77-25.38,1.73-4.76,5.7-7,9.95-8.98,9.03-4.2,18.54-3.92,28.11-3.12,3.6,1.54,3.56,1.52,1.93,4.16-.21.34.59.22.86.43.95.73,3.33.8,1.35,2.9-2.13,1.2-4.47.92-6.75.97-7.73-.31-15.44-.49-23.16,3.37,4.87,2.82,10.01,3.67,14.46,6.1q6.21,2.7,9.62-2.89c1.8-2.95,3.35-6.08,6.46-7.97,2.18-3.06,5.32-3.06,8.4-2.22,2.01.54,4.23,1.62,2.51,4.53-1.91.31-3.66.41-4.99,2.46-9.67,14.92-18.22,30.36-23.06,47.59-.65,2.3-2.5,5.34,1.96,6.17,7.18,1.09,14.37,2,21.64,1.95,1.6-.01,3.6.45,4.37-1.47,1.82-4.55,4.39-2.3,6.56-.68,4.37,3.27,7.88,7.5,11.78,11.28,3.5,4.53,8.51,7.47,12.35,11.65.66,1.11,1.69,2.4.24,3.42-1.08.77-2.08-.39-3.01-1.01-3.72-2.48-6.94-6.18-12.17-5.02-2.54-.15-4-2.02-5.71-3.52-3.3-4.82-7.85-5.93-13.6-6.11-8.68-.27-17.49-.47-25.99-2.81-3.66-1.01-6.16-.05-7.08,3.87-.83,5.21,2.93,7.07,6.64,8.48,8.91,3.38,18.2,3.25,27.53,2.39,5.11-.47,10.15-1.78,15.34-1.43,2.66.99,5.95.9,7.27,4.2-1.25,2.12-3.5,2.41-5.57,2.87-14.58,3.24-29.25,3.71-43.97,1.14-4.64-.81-5.32-.36-4.68,4.36.93,6.88.93,13.86,3.49,20.53,2.69,6.99,7,12.24,13.51,15.94,8.56,4.88,18.16,7.34,26.81,11.97,1.9,1.02,2.73.14,3.19-1.63.55-2.09,1.21-4.14,1.94-6.18,4.51-11.59,13.01-19.34,23.98-24.59,2.79-1.34,5.81-2.45,9.08-1.9.88.55,1.49,1.23,1.14,2.39-.21.71-1.13.14-1.36.79.38-.23.83-.2,1.23-.33,3.35-1.05,6.8-1.02,10.22-.73,3.7.31,5.21,2.81,3.82,5.87-19.33-4.51-35.28,4.05-41.9,22.5-.28.98-.54,1.97-.74,2.97-1.34,4.19-.73,8.48-.71,12.74,1.36,8.6.68,17.2.51,25.84-.29,14.3,3.41,27.02,17.02,34.74,5.17,2.94,10.71,3.31,16.42,2.93,1.65-.11,3.27-.66,4.95-.31,1.87,2.45,1.5,3.61-1.8,3.96-4.4.46-8.84.69-13.25.83-1.83.06-3.05-.3-3.46,1.83-7.22.41-12.37-3.76-16.68-8.53-10.16-11.24-13.54-24.87-12.07-39.73.46-4.65.62-9.27.42-13.91-.23-5.19-2.81-9.1-7.06-11.96-2.4-1.62-4.84-2.19-7.31-.13-18.57,13.41-34.62,29.28-47.3,48.45-2.74,3.77-.02,7.71-.32,11.57-.24,3.13.77,6.16,1.61,9.61,2.59-1.32,4.98-2.33,7.34-3.39,13.25-4.86,26.32-4.65,39.17,1.39,1.98,2.03.68,4.09-.15,5.99-2.82,6.46-6.84,12.14-11.56,17.34-4.98,5.47-10.94,9.56-17.84,12.21-2.72,1.05-3.27,2.48-1.51,4.81,2.99,3.95,5.63,8.17,9.23,11.64,4.3,3.21,9.6,2.91,14.34,3.12,15.52.67,31.1.98,46.44-2.45,5.29-.31,10.38-2.16,15.71-2.09.98.18,2.19.4,2.4,1.42.32,1.54-1.18,1.91-2.21,2.15-4.27.99-8.41,2.57-12.57,2.9,2.02-.3,4.29-.52,6.54-1.09,1.57-.4,3.73-.93,4.4,1.67-10.77,2.59-21.72,4.01-32.73,5.03-1.76.16-3.2.23-3.79,2.26-4.89,16.72-17.2,26.37-32.02,33.65-1.16.57-2.21,1.38-3.32,2.08-6.28,4.36-13.57,6.16-20.86,7.59-4.53.89-7.12-3.04-5.35-7.38,1.2-2.94,3.26-5.4,5-8.02,5.17-7.8,9.23-16.15,12.29-24.97,1.77-5.1,1.06-6-3.87-4.43-11.36,3.62-20.12.12-27.61-10.19-2.06,9.78-8.09,15.93-14.45,21.81-2.3,2.13-4.63,4.35-8.13,4.26-15.88,7.79-31.34,3.92-46.74-1.69,1.28-3.14,3.58-1.38,5.39-.95,6.42,1.52,12.73,3.56,19.35,4.13-1-.19-2.3-.06-2.62-1.27-.35-1.32.94-1.58,1.83-1.81,3.07-.78,6.29.14,9.35-.81,4.94-1.15,9.47-3.24,13.76-5.89,3.84-2.3,6.74-5.76,10.32-8.37,4.17-4.53,6.33-10.03,7.24-15.96.78-5.09-.68-9.4-5.68-11.98-2.47-1.28-2.76-3.51-.79-5.27,1.81-1.62,1.4-2.7-.04-3.94-2.17-1.86-.09-5.95-3.75-6.97-4.13-1.84-7.76-4.7-12.22-5.88-7.26-2.48-14.55-2.84-21.93-.56-1.26.39-2.56.75-3.89.27-1.9-2.03-.36-2.63,1.3-3.47,4.77-2.43,9.9-1.87,14.46-2.01-4.89-.01-10.34-.37-15.31,2.21-1.85.96-4.54,1.61-3.57,4.81-.84,1.73-2.31,2.45-4.15,2.57-2.23-.69-3.41-2.11-3.13-4.53,7.42-5.51,16.05-7.33,24.99-8.2,5.33-1.17,10.13,1.86,15.31,1.9,2.13,0,3.86,3.62,6.29.65-.71-9.77,3.66-16.81,11.75-21.84.84-.52,1.6-1.17,2.42-1.73,2.48-1.69,2.49-3.23-.16-4.76-4.41-2.56-9.06-4.63-13.62-6.87-6.63-2.65-13.68-3.61-20.6-5.04-2.38-.49-4.73-.82-5.26-3.57-.5-2.57,1.44-3.81,3.38-4.89,6.18-3.46,12.36-6.93,18.54-10.4Z"/>
      <path class="cls-9" d="M254.33,1.87c18.13,3.23,32.46,12.95,44.63,26.28,1.65,1.81,2.94,3.94,4.39,5.92.84,4.35,2.65,8.26,4.98,12.03,1.42,2.3,1.46,5.56-1.18,6.53-3.21,1.18-2.64,2.71-1.72,4.74,1.2,2.65.54,5.25-.13,7.8-1.21,4.62-3.48,5.9-8.49,5.04-7.93-3.04-12.79-.65-15.38,7.57-2.62,8.31,1.01,15.05,9.14,16.95,6.22,2.44,7.19,4.49,4.17,10.4-2.15,4.21-4.34,8.57-9.13,10.58-2.18-.9-2.48-2.98-3.09-4.87-.27-.77-.45-1.57-.76-2.33-.78-1.92-1.87-3.59-4.24-3.39-2.24.19-3.38,1.83-4.08,3.77-.83,2.27-.23,4.17,1.74,5.61,1.05.77,2.49.88,3.34,1.97.07.48,0,.92-.53,1.13.51.32.67-.23.96-.42,2.17-1.46,4.28-3.23,6.95-.89.46,3.87-2.11,6.18-4.57,8.34-7.08,6.22-13.9,12.83-23.99,14.15-3.23.42-6.14,2.43-9.09,3.98-4.16,2.19-8.52,2.78-12.98,1.01-4.29-1.69-6.46-4.66-6.12-9.25,1.8-24.22.34-48.48.8-72.71.07-3.94.26-7.68,4.82-9.47-3.57.11-6.72,2.25-10.25,1.31-1.86-.69-4.11-1.51-3.97-3.74.15-2.37,2.49-3.25,4.57-3.93,3.06-.99,6.52-1.16,8.55-4.2-.01-.88-.37-1.49-1.29-1.71-2-.17-3.99.04-5.96-.2-1.91-.23-3.68-.77-3.78-3.12-.1-2.34,1.54-3.06,3.48-3.41,1.27-.23,2.6-.05,3.87-.51-.15-1.59-2.67-1.99-1.74-3.8.9-1.76,2.7-1.69,4.33-1.76,8.08-.36,16.18.52,24.24-.53,12.55-.33,23.36,4.83,32.01,9.23-3.54-2.82-16.24-7.67-27.87-9.97-3.6-.71-7.22-.97-10.88-1.16-1.48-.08-3.89.39-3.49-2.54.29-.12.69.03.91-.08.42-.19.35-.15-.01-.17-8.08-.36-16.05.87-24.05,1.56-2.3.2-4.58.64-6.84-.11-1.16-.39-2.21-1.17-2.05-2.45.13-1.04,1.31-1.42,2.3-1.58,3.73-.6,7.48-1.1,11.16-1.99,8.79-.77,17.63.38,26.4-.67,7.31-.6,14.11,1.75,20.84,4.03,4.18,1.42,8.73,2.33,12.4,5.98-15.06-12.38-31.3-20.18-50.96-18.91-2.44.16-5.71,1.44-7.37-2.02.22-.26.47-.55.76-.58,3.43-.28,6.85-.11,10.28-.12-3.35-.07-6.71-.11-10.06.01-1.57.06-3.76.97-4.02-1.37-.26-2.37,2.11-1.79,3.62-2.19,8.18-2.15,16.3.64,24.45.21Z"/>
      <path class="cls-28" d="M223.44,52.59c4.47.97,8.21-2.41,12.59-2.12,1.07.07,2.46-.91,2.9.76.32,1.24-.99,1.78-1.86,1.91-5.56.85-5.78,4.61-5.74,9.17.17,20.93.08,41.86.06,62.79,0,1.98,0,4-.39,5.93-1.85,9.14,4.42,15.2,13.26,11.66,7.97-3.19,16.91-4.92,23.8-9.33,6.65-4.26,15.26-8.4,17.23-17.9l.02-.02c3.15-3.16,6.16-6.45,8.19-10.48,2.89-5.74,2.49-6.78-3.22-9.23,9.28-6.79,10.54-15.67,6.8-25.88-.04-.11.13-.29.2-.44,5.69.29,9.46-5.37,7.3-10.93-1-2.58-4.1-5.6,1.92-6.43,1.52-.21,2.6-3.27,1.04-4.56-2.13-1.77-1.13-5-3.99-6.57-1.01-.56-.19-4.47-.2-6.86,3.43,4.18,5.8,8.96,8.05,13.84,1.01,2.19,2.34,3.33,5.47,3.67,8.18.89,13.6,6.05,16.2,13.98.08,6.25.76,12.46,1.21,18.68.4,5.63-.91,10.77-2.98,15.84-2.34,4.68-6.57,6.83-11.34,7.78-2.44.48-3.61,1.46-4.34,3.75-3.12,9.69-8.03,18.41-15.34,27.05,7.12-2.24,12.52-5.84,18.4-8.33,3.88-1.9,5.41-.05,5.79,3.64-1.65,3.52-5.31,4.29-8.28,5.95-2.45,1.37-3.66,3.06-3.31,5.99,1.13,9.55,2.2,19.1,5.38,28.25.52,1.54,1.17,3.03,2.05,4.41,1.66,2.61,3.73,3.5,6.53,1.57,1.62-1.12,3.33-2.07,5.44-1.72,1.33.27,2.53.82,3.4,1.9.92,1.13.92,2.24-.59,2.72-5.48,1.74-10.44,4.88-15.99,6.24-2.31.57.03,1.73-.89,2.09-9.72,3.82-19.85,5.61-30.19,6.42-1.01.08-1.96-.2-2.66-1,.07-4.06,3.98-2.16,5.99-4.02-3.65.91-7.05,1.07-10.43.75-1.4-.13-3.56.35-3.46-2.28,3.24-2.02,7-1.67,10.53-2.13,6.89-.89,13.71-2.06,20.44-3.77,5.36-1.36,5.35-1.38,3.18-6.5-.45-1.06-.83-2.16-1.33-3.2-3.02-7.94-3.86-16.34-5.11-24.65-.82-5.42-.76-5.43-5.97-3.62-.78.27-1.54.58-2.32.87-7.85,2.26-13.72,8-20.69,11.81-3.08,1.68-6.13,3.31-9.61,3.95-4.64.11-8.79,1.91-12.93,3.74-3.44,1-6.57,3.45-10.47,2.22-1.83-1.44-3.79-.54-5.73-.38-2.32.2-4.64.21-6.96.02-1.17-.1-2.65-.27-2.91-1.49-.34-1.57,1.21-2.18,2.39-2.72,2.45-1.13,5.08-1.35,7.77-1.44,3.16-.1,6.44.6,9.41-1.14.5-1.21,1.57-1.81,2.69-1.99,9.46-1.5,17.66-6.32,24.83-9.23-5.43,3-13.03,4.62-20.57,6.42-1.96.47-3.92.57-5.91.11-1.46-.46-2.98-.26-4.46-.42-3.15-.33-5.71-1.33-4.75-5.25.59-2.41-.86-2.43-2.43-2.49-2.98-.11-5.98.12-8.94-.38-4.13-.7-6.62-2.87-6.64-7.3-.11-23.06-.63-46.15.32-69.18.28-6.75.93-13.74,2.18-20.52Z"/>
      <path class="cls-21" d="M400.06,335.98c-10.9,14.38-23.02,27.59-37.3,38.69-5.44,4.22-11.12,8.14-16.69,12.2-6.61,3.69-13.22,7.38-19.84,11.07-1.37.36-1.21-.48-.96-1.28.51-1.62,2.54-1.85,3.21-3.34-.63-.87-1.89-.52-2.47-1.39-.1-2.82,2.36-3.38,4.09-4.43,10.21-6.2,20.3-12.58,29.64-20.06,1.55-1.24,3.43-2.25,2.68-4.77-1.14-6.86-2.63-13.64-4.24-20.39-5.03-20.06-12.4-39.25-21.34-57.87-.72-1.49-1.54-2.96-1.42-4.71.66-2.47,1.96-1.69,3.22-.57,1.4,1.24,1.79,3.18,3.1,4.57.95-.28.63-1.73,1.67-1.97,2.61-.34,2.78,1.85,3.49,3.41,4.81,10.68,9.72,21.33,12.99,32.62,1.07,4.12,2.49,8.12,4,12.09.25.71.4,1.43.49,2.17.76,6.13,3.41,11.76,4.8,17.74.56,2.4.97,4.86,1.76,7.62,9.87-9.46,18.58-19.5,26.03-30.67,6.98-10.47,11.58-22.03,16.01-33.69,1.53-4.02.93-7.53-3.02-9.96-16.32-10.61-34.29-17.13-53.1-21.6-7.42-1.76-15.01-2.49-22.5-3.84-1.46-.26-3-.17-4.2-1.25.45-3.5,3.23-2.74,5.3-2.62,4.51.26,9.11-.1,11.62,1.1-4-1.22-10.05-1.01-16.03-1.47-3.53-.27-4.14-1.59-2.27-4.2,3.2-.49,6.44-1.3,9.29,1.09,11.47,2.41,23.13,3.89,34.36,7.46,16.16,5.14,31.39,12.18,45.56,21.5,3.92,4.65,4.89,9.65,2.43,15.41-1.71,4.02-2.89,8.28-4.31,12.43-4.12,8.96-9.07,17.47-14.09,25.94-.42,1.15-.35,2.63-1.98,2.97Z"/>
      <path class="cls-63" d="M318.26,190.31c-.49-.05-1.01,0-1.46-.16-1.26-.44-.49-.94.1-1.09,6.4-1.71,11.81-6,18.51-7.14-.42-1.99-2.39-1.93-3.64-2.79,2.86-4.22,7.85-5.26,11.81-7.81,8.26-5.33,16.27-10.89,22.2-18.92,2.31-3.12,3.96-6.52,4.34-10.44,1.5-6.54,2.06-13.05.49-19.72-2.11-9.01-8.03-11.66-15.85-6.87-5.35,3.27-10.01,6.79-7.64,14.25.43,1.36.29,3.27-1.44,3.82-1.34.42-2.47-.74-3.34-1.77-1.76-2.06-2.92-4.46-3.39-7.12-.8-4.57-2.84-8.47-6-11.82-2.19-3.64.51-2.71,2.26-2.68-3.86-1.79-5.23,1.13-6.83,3.96.85,1.21,3.07-.91,3.45,1.3.23,4.36-.71,8.59-1.47,12.81-.58,3.19-2.5,5.35-6.09,5.36-1.25-2.15-2.77-3.82-5.61-3.15,4.16-2.71,5.37-6.53,5.78-11.46.42-4.97.9-11.25,7.13-12.84,6.15-1.57,8.69,3.86,11.84,8.15,3.19-2.48,6.13-5.23,9.73-7.01,13.13-6.66,22.58,2.29,24.92,14.17,4.53,22.93-4.65,39.84-23.74,52.13-1.23.79-2.35,1.76-3.52,2.65-.79,1.79-2.4,2.74-3.96,3.62-7.65,4.31-15.74,7.69-23.93,10.83-1.53.58-3.18,1.13-4.66-.24Z"/>
      <path class="cls-103" d="M63.71,383.97c1.02,1.31,2.03,2.62,3.05,3.94.38,1.89-1.26,2.55-2.27,3.48-4.77,4.38-8.81,9.34-11.91,15.03-5.87,10.75-11.67,21.54-20.97,29.88-1.32,1.18-2.55,2.45-4.07,3.6,1.72-.57,3.35-.79,5.03-.72,14.49.36,28.26,3.95,41.71,9.09,3.89.24,7.78-.24,11.66-.01,2.06.12,4.28-.19,5.83,1.71-3.47,2.05-7.43-.03-11.17,1.31,2.42,1.3,5.28-.36,8.3,1.81-4.97,1.05-9.11,1.08-13.2.13-4.95-1.15-9.86-2.5-14.76-3.86-1.16-.32-2.19-.79-3.14.31-5.01-1.03-9.98-2.25-15.02-3.04-11.88-1.87-23.44-.05-34.78,3.57-.94.3-1.86.66-2.77,1.06-2.03.89-4.01,1.16-4.98-1.32-.98-2.52,1.23-3.02,2.85-3.73,6.83-2.98,13.49-6.22,19.48-10.76,9.91-7.51,16.4-17.63,22.19-28.35,4.81-8.91,9.86-17.67,18.95-23.1Z"/>
      <path class="cls-72" d="M325.87,391.77c.82,0,1.65.11,2.44-.04,1.01-.19,2.03-.5,2.48.73.43,1.17-.6,1.65-1.31,2.33-1.09,1.04-3.82.41-3.24,3.15-20.26,11.19-41.7,19.49-63.86,25.97-7.59,2.22-15.13,4.68-23.01,5.75-3.79-2.02-7.3.63-10.97.72-1.54.04-4,1.32-4.23-.56-.32-2.58,2.52-1.64,4.13-1.99,4.63-1,9.25-2.06,13.88-3.11.08-.02.18-.29.18-.3-.38-.24-.77-.46-1.16-.69.31-2.23,2.3-2.22,3.78-2.59,26.5-6.64,51.8-16.47,76.22-28.65,1.45-.72,2.94-1.68,4.69-.73Z"/>
      <path class="cls-75" d="M164.47,41.55c1.72-4.59,5.75-7.54,8.17-11.63,13.42-13.95,29.06-24.11,48.26-28.1,11.13-2.31,22.29-2.55,33.43.06-3.67,1.49-7.41,1.05-11.09.24-5.57-1.22-10.77.73-16.15,1,0,.43,0,.87.01,1.3h17.26c-4.92,2.1-10.16-.13-14.98,2.11-3.65,3.02-8.38,2.78-12.58,4.02-14.2,4.17-26.31,11.49-36.16,22.53-.54.62-1.19,1.52-1.91,1.48-5.44-.32-8.05,3.19-10.55,7.21-.89,1.43-2.63,2.69-3.7-.21Z"/>
      <path class="cls-1" d="M331.3,100.09c2.5-8.01,1.67-16.27,1.97-24.45.13-3.38-2.63-6.69-.2-10.07,1.83,8.8,2.39,17.72,1.92,26.66-.15,2.9-1.95,5.48-3.69,7.86Z"/>
      <path class="cls-73" d="M164.47,41.55c1.23.78,2.68,1.07,2.98-.65.53-3.03,3.87-3.98,4.57-6.88.31-1.3,1.69-1.5,2.82-.53,1.93,1.66,3.3.51,4.66-.85.98-.61,1.82-1.52,3.12-1.45,2.25.72,3.55,2.32,4.22,4.52-2.23,4.51-7.99,4.3-9.97,7.45,3.31-2.77,8.4-4.62,12.56-7.96,19.75-8.56,40.47-11.05,61.76-10,2.32.11,4.71.14,6.17,2.45-2.53,1.96-5.46.85-8.18.92-6.7.18-13.41.06-20,.06-.17,1.8.58,1.86,1.19,1.96,1.76.3,3.67,1.1,3.43,2.9-.27,1.93-2.51.76-3.83,1.14-2.14.61-6.06-1.58-6.13,1.91-.07,3.69,3.9,1.39,5.99,2.02,1.76.53,4.07-1.03,5.34,1.41-11.3,1.85-22.66,3.34-33.28,8.05-8.08,3.58-15.81,7.58-22.32,13.8-7.44,7.12-10.55,15.7-10.8,25.85-.22,8.84,1.09,17.4,2.97,24.72,6.33-19.09,12.69-39.32,28.95-54.52,8.19-7.66,17.94-12.45,28.15-16.55,1.66-.67,3.51-1.21,5.22.09.52.71,3.45.93.38,2.36-3.07,1.43-6.03,2.98-9.45,3.6-3.47.63-4.59,2.43-1.56,5.24,1.24,5.88,1.98,11.71-.61,17.5-.57,1.28-.39,2.93-.39,4.41-.02,22.24-.02,44.49-.01,66.73,0,5.73,1.05,6.87,6.92,7.13,3.48.15,6.97,0,10.46.06,1.07.02,2.54-.51,3.02.95.35,1.08-.69,1.77-1.44,2.37-1.03.82-2.41,1.47-1.59,3.14.69,1.4,2.08,1.37,3.43,1.52,2.06.22,4.35-.85,6.14,1.01-1.45,2.24-3.9,2.5-6.13,2.73-15.62,1.59-31.06,1.24-43.88-3.66,12.04,4.16,26.32,8.08,41.57,5.72,2.1-.33,4.31-.58,6.16,1.01.22.38,2.23.32.59,1.06-3.36,1.51-7.08,1.22-10.69,1.09-3.17-.11-6,.71-9.92,2.88,5.11,0,8.82.61,12.5-.45,1.64-.47,3.33-.96,3.79,1.54-1.16,2-3.17,2.28-5.17,2.4-15.35.95-30.08-1.51-44.08-7.99-2.14-1.42-4.91-2.14-5.75-5.05-.78-5.47-4.88-3.55-8.02-3.47-1.04.03-2.07.89-3.1,1.37l.03.02c-.66-1.98-3.1-1.77-4.15-3.27.46-1.5,2.59.49,2.57-1.22,0-.52-1.41-1.03-2.17-1.55.79-.1,1.58-.2,2.76-.36-3.76-3.97-7.97-7.2-10.59-11.8.26-4.94-1.57-9.35-3.51-13.73-.74-1.67-2.02-2.47-3.92-2.43-3.24.08-5.19-1.68-6.22-4.64.13-1.94-.22-3.87-.13-5.81.15-8.45-2.29-16.68-1.91-25.21.2-4.45,1.85-8.81.87-13.31-.86-2.55,0-4.75,1.38-6.86,3.22-6.57,4.91-13.83,8.99-20.01,1.07-1.62,2.14-3.24,3.21-4.86Z"/>
      <path class="cls-34" d="M208.38,293.09c3.69-16.1,23.09-28.46,38.96-24.93,1.58.35,2.46,1.6,3.83,2.12,5.79,2.06,7.11,7.55,9.43,12.28,3.97,10.03,4.45,20.06-.03,30.07-3.62,6.55-8.61,11.74-15.2,15.36-4.35,2.3-9.02,2.67-13.87,2.21,6.13,4.15,12.16,1.44,18.21-.05,2.53.19,3.68,2.03,4.73,3.96,3.59,6.65,6,13.71,7.03,21.19.99,7.24-2.21,12.61-8.29,14.38-5.8-.18-11.52,1.06-17.35.72-10.4-.6-20.62-7.42-23.79-16.92-2.14-6.41-1.12-13.17-.64-19.78.65-8.94,1.75-17.83,1.67-26.82-.05-5.21-1.21-9.85-4.67-13.81Z"/>
      <path class="cls-101" d="M206.26,227.35c-4.07-3.89-8.09-7.83-12.23-11.63-1.02-.93-2.15-2.66-3.64-2.01-2.33,1.02.45,2.89-.41,4.7-9.41-.1-18.95-.45-28.37-2.43-.63-5.9,1.63-11.28,3.15-16.76.79-2.86,2.2-5.56,2.97-8.44,5.33-19.85,21.15-27.95,38.69-19.46,3.74,1.76,8.03,1.6,11.76,3.39,5.43,11.11,14.27,19.09,23.96,26.36,1.69,1.27,4.34,2.2,3.57,5.27-11.51,5.78-18.47,15.48-23.3,27.03-.39.92-.98,1.72-1.96,2.13-5.52-1.34-9.44-5.48-14.2-8.15Z"/>
      <path class="cls-54" d="M173.41,394.72c5.43-6.59,10.88-13.17,13.06-21.72-5.19-5.07-3.56-11.77-3.55-17.7.02-12.4.07-24.8.05-37.2-.01-7.72.33-8.13,8.25-7.12,5.15,2.65,6.05,7.71,6.48,12.61.48,5.42.11,10.9-.35,16.38-1.05,12.38,2,23.78,10.16,33.34,8.36,9.8,22.95,12.93,34.53,7.86.63-.28.97-.88,1.42-1.36.93-.99,2.09-1.61,3.37-2.01,6.85-2.14,12.55-5.86,16.55-11.95.57-.86,1.34-1.45,2.46-1.42,2.21.39,3.86,1.87,5.69,2.98,10.05,6.09,20.68,8.81,32.35,5.64.64-.17,1.28-.41,1.94-.46,1.23-.09,2.88-.87,3.35.94.33,1.28-.96,2.02-1.99,2.53-4.45,2.24-9.04,4.19-13.66,6.04-24.44,9.81-49.57,17.08-75.79,20.2-1,.12-1.92.53-2.9.71-10.73.73-21.49,1.05-31.94-1.95-3.65-1.05-8.47-1.05-9.46-6.35Z"/>
      <path class="cls-49" d="M265.29,364.93c-4.07,9.04-12.24,12.36-20.89,15.01-5.78,2.71-12.63,1.94-16.3-1.83.6-2.46-2.51-1.66-2.88-3.56,0-.76,1-.73,1.37-.51,6.24,3.67,12.79-.24,19.14.81.86.14,2.6-.06,1.56-1.95.97-3.17,3.96-2.96,6.33-3.79,5.91-3.35,7.16-8.67,6.29-14.89-1.07-7.64-4.14-14.57-7.72-21.29-.6-1.12-1.07-2.54-2.87-2.01-2.45-.27-6.04.64-4.25-4.07,6.02-3.28,10.46-8.21,14.25-13.8,5.41-10.31,4.89-20.63.05-30.95-2.17-4.33-4.85-8.3-8.18-11.82-.69-3.33-1.37-4.17-3.89-4.21-4.75-.07-9.5-.02-14.26-.02-.16-2.27,4.6.97,3.35-2.72.24-.87.94-1.4,1.51-2.02.45-1.49,2.97-.91,2.9-2.93,0-.68.21-1.26.67-1.76,3.28-2.84,6.45,1.51,9.87.15,1.16-.47,2.84-.05,4.26-.42,3.64-.36,6.35,1.56,8.9,3.74,2.52,2.17,4.62,4.74,6.74,7.31,8.82,10.74,18.56,12.13,30.19,4.47,2.95-1.94,5.36-4.43,7.68-7.04.48-.53,1.04-.97,1.63-1.37,2.15-1.68,2.05-3.87,1.49-6.22-.35-1.44-.57-2.97,1-3.95.86-.54,1.84-.91,2.76-.31,1.53,1,1.18,2.56.89,4-.7,3.43.6,6.84.09,10.27-.32,2.33-1.67,4.08-3.2,5.74-5.99,6.5-13.46,10.33-22.04,12.15-3.93.62-7.81.55-11.59-.83-8.87-3.06-14.84-9.7-20.61-16.71,3.73,3.9,5.74,8.68,7.66,13.53,1.43,3.7,1.83,7.65,2.66,11.76,4.49-1.64,8.25-4.84,13.04-5.44.51-.04,1.02-.01,1.52.08,7.07-1.57,13.94-.54,20.77,1.38,1.31.37,2.72.7,3.11,2.09.57,2.04-1.02,2.88-2.52,3.64-5.58.64-11.04-1.63-16.75-.26-6.8,1.62-12.83,4.33-17.83,9.25-1.33,1.31-2.48,2.7-2.54,4.68-1.3,4.47-2.81,8.83-5.54,12.71-2.92,4.16-3.02,8.62-.95,13.24.81,1.81,1.28,3.77,2.03,5.62,3.02,10.77,10.78,17.05,20.85,20.04,10.14,3.01,20.42,2.31,29.45-4.03,5.61-3.94,9.77-9.26,12.3-15.73.31-.3.69-.47,1.12-.48,2.17.3,1.67-1.58,1.84-2.57.39-2.26-.1-4.63.38-6.89.63-2.95,1.98-4.99,5.49-3.24,2.59,4.82-.73,8.9-1.88,13.15-.61,2.27-1.19,4.37-.85,6.69-3.1,10.24-10.75,16.16-20.01,20.01-15.82,6.57-30.81,4.35-44.81-5.63-1.82.51-1.23,2.93-2.74,3.72Z"/>
      <path class="cls-65" d="M100.61,383.77c4.66.8,8.26,3.76,12.21,6,1.33.62,1.74,1.77,1.79,3.12.25,3.95.59,7.86-1.12,11.68-.92,2.05-.78,4,2.42,3.76,1.15-.09,2.29.23,3.35.79.45.26.8.62,1.07,1.05,4.05,7.08.17,13.29-2.17,19.67-2.08,2.1-4.49,3.73-7.15,5.01-8.46,3.5-16.88,1.95-25.35-.07-7.72-1.84-15.48-3.53-23.49-3.6-3.03-.03-5.95.3-8.77,1.38-1.06.27-2.11.28-3.13-.16-1.76-2.15.11-3.54,1.4-4.36,9.01-5.72,14.38-14.38,19.32-23.42,3.62-5.23,6.4-11.07,11.21-15.47,1.29-1.18,4.08-1.99,1.67-4.6,2.43-2.39,5.36-2.09,8.4-1.74,2.79.32,5.59.44,8.36.96Z"/>
      <path class="cls-42" d="M191.54,312.02c-7.06.08-6.91.09-7.07,7.24-.29,12.54.62,25.07-.46,37.62-.27,3.18,2.03,6.48-.1,9.88-.55.88.7,1.73,1.6,2.16,2.01.98,1.98,2.39.96,4.06-13.2-4.89-26.5-5.84-39.96-1.08-.75.67-1.8.62-2.21-.02-3.84-6.05-8.48-11.87-6.74-19.82,12.42-19.12,28.28-34.89,46.79-48.08,3.93,1.3,6.22,4.07,7.18,8.02Z"/>
      <path class="cls-98" d="M238.09,262.28c-.15,1.06-1.16.7-1.74,1.05-15.26,2.85-25.43,12.04-32.01,25.71-8.29-2.29-16.82-3.53-25.11-5.75-6.79-1.82-11.59-6.33-14.67-12.6-2.95-5.99-5.43-12.12-5.53-18.98-.04-2.81.61-4.54,3.87-4.17,12.98,1.49,25.84.26,38.64-1.92,3.65-.62,5.87.78,6.24,4.52.45,4.53,3.3,5.44,7.27,5.66,4.3.23,8.56-1.29,12.84-.13,1.23,2.07,3.26,2.93,5.42,3.69,1.77.62,3.84.87,4.77,2.91Z"/>
      <path class="cls-37" d="M173.41,394.72c2.57,3.48,6.63,4,10.34,5.06,10.34,2.95,20.94,2.22,31.5,1.95,1.1-.27,2.63-.94,3.03.42.43,1.46-1.29,1.64-2.34,1.87-1.95.44-3.87.86-5.67,1.78-2.33,1.2-3.54,2.91-3,5.63.36,1.8.78,3.7.02,5.4-1.54,3.43-.6,4.35,3.06,4.03,5.58-.48,11.13,1.56,16.81.25,1.73-.4,3.74.33,3.21,3.04-1.67,1.08-3.72.4-5.45,1.19-18.28,3.38-36.63,3.88-55.06,1.39-2.66-.36-5.03-1.54-7.33-2.86-3.85-3.92-6.83-8.49-9.88-13.01-1.09-1.62-1.65-2.77.95-3.51,7.85-2.22,14.11-7,19.81-12.64Z"/>
      <path class="cls-87" d="M228.4,257.12c-4.35-1.59-8.65.38-13.03.17-7.66-.38-7.93-.25-8.97-7.89-.3-2.18-.83-3.11-3.49-2.64-7.63,1.34-15.32,2.76-23.03,3.16-6.37.33-12.82-.74-19.36-1.2-.68,8.28,2.16,15.8,6.11,22.88,3.79,6.8,10.05,10.04,17.6,11.63,6.81,1.43,14.29.89,20.11,5.82-1,3.82-2,7.64-3.09,11.82-7.85-6.21-17.43-8.51-26.28-12.31-13.44-5.78-19.52-16.23-21.27-29.93-.63-4.92-.65-9.92-.87-14.89-.07-1.49-.24-3.15,2.34-2.3,17.74,5.85,35.34,2.98,52.92-.93.48.09.83.34,1.07.77.62,4.09,1.16,8.24,6.37,9.15,2.96.79,5.96.33,8.93.32,6.47-.02,11.83,2.63,16.73,6.53v1.79c-4.42.41-8.75.18-12.78-1.94Z"/>
      <path class="cls-84" d="M191.54,312.02c-2.39-2.67-4.79-5.35-7.18-8.02,2.13-3.3,4.62-3.25,7.97-1.5,6.3,3.3,8.93,8.42,9.21,15.29.37,9.28-1.55,18.46-.2,27.84,2.26,15.68,12.93,29.19,26.76,32.49,5.2,2.73,10.84,1.43,16.3,1.83-1.95,4.93-6.87,4.39-10.49,4.73-20.9,1.94-33.91-12.66-37.56-32.43-1.73-9.34,1.03-18.44.16-27.67-.45-4.7-1.49-9.09-4.96-12.56Z"/>
      <path class="cls-97" d="M144.57,204.35c-3.47-1.08-6.97-2.06-10.39-3.27-2.7-.96-5.37-1.48-8.63-.25,2.93-11.09,6.04-21.41,11.2-31.03,1.42-2.65,2.74-4.04,6.13-2.59,4.07,1.74,8.46,2.72,12.72,4.03,1.71,1.08,2.05,2.68,1.15,4.31-5.05,9.18-7.99,19.25-12.18,28.79Z"/>
      <path class="cls-57" d="M149.88,325.24c-.95,3.82-4.94,5.37-6.52,8.72-1.54,1.08-3.15,2.09-3.76,4.03-.06.15-.08.34-.18.46-1.86,2.27-3.36,5.1-5.7,6.66-3.2,2.13-5.08-1.78-7.46-3-8.01-4.07-17.05-5.24-25.05-9.22.2-2.15,1.85-2.97,3.47-3.81,9.66-5,19.97-7.88,30.8-8.32,5.12-.21,10.64-.32,14.4,4.47Z"/>
      <path class="cls-16" d="M241.18,257.27c-.79-.21-1.71-.24-2.36-.67-6.85-4.48-14.43-5.26-22.34-4.64-.73.06-1.51-.43-2.27-.66.73-1.57,4.21-.83,3.2-3.83-1.02-1.85-2.57-3.04-4.53-3.73-2.03-.42-2.95-2.48-4.77-3.23,0,0-.02-.01-.02-.01-1.96-1.89-4.62-2.38-6.97-3.48.15-1.89,2.23-1.57,3.07-2.67,5.15-3.38,7.51,2.38,11.28,3.53.97.3,1.64,1.55,2.5,2.3.55.47,1.2.65,1.1-.44-.04-.45-.43-.86-.66-1.3.05-1.41.81-2.43,1.88-3.25,3.8-8.61,7.74-17.14,15.07-23.49,2.88-2.49,5.82-4.86,9.72-5.56.4-.31.83-.35,1.27-.1.76,2.56-1.64,2.43-3.47,3.79,3.19-1.72,5.62-3.48,8.76-2.39-1.27-.5-3.04-.69-2.59-2.59.54-2.26,2.47-2.26,4.35-2.1,4.49,2.27,9.15,4.31,12.23,8.59-1.19,2.99-3.59,2.16-5.65,1.54-1.52-.45-2.87-1.42-4.56-.81-7.88-2.16-13.48,2.09-18.3,7.19-4.56,4.83-7.85,10.65-9.86,17.08-1.83,3.54-.68,5.96,2.76,7.66,6.08,3.01,11.93,6.5,18.39,8.72,2.65.91,5.36,1.82,6.97,4.43-3.11,1.14-6.9.59-9.95-.68-1.11-.46-2.8.49-4.22.8Z"/>
      <path class="cls-109" d="M253.6,369.12c-1.56,2.18-4.44,2.15-6.33,3.79-5.33.93-10.61,1.44-16.02.14-8.34-1.99-14.38-6.87-18.62-14.07-4.67-7.93-6.23-16.63-5.62-25.75.54-8.09,1.09-16.17-.42-24.22.56-4.6.38-9.25,1.01-13.85-.2-.86-.08-1.6.78-2.07,5.12,1.05,5.57,5.57,5.92,9.25.97,10.24-.54,20.45-1.29,30.66-.55,7.5-2.05,15.08,1.41,22.37,3.93,8.28,11.02,12.28,19.52,13.38,5.11.66,10.61,1.37,15.68-.9,1.87-.84,2.67.84,3.98,1.27Z"/>
      <path class="cls-30" d="M193.45,443.76c-6.08,8.5-13.34,15.25-23.21,19.66-4.52,2.02-9.32,3.86-13.67,6.43-3.11,1-4.21.02-3.08-3.14,3.27-4.65,6.49-9.33,8.29-14.8,1.94-4.07,6.16-4.3,9.65-5.15,6.04-1.47,11.42-4.22,16.82-7.07,1.64-.87,3.1-3.37,5.14-1.8,2.03,1.56.87,3.89.05,5.88Z"/>
      <path class="cls-5" d="M147.76,262.93c.58,1.96,1.16,3.92,1.78,6.03-17.86-2.25-26.28-10.03-28.8-26.31,1.33-.64,1.56.71,2.19,1.25,6.89,5.95,14.29,4.28,21.28-4.82,3.14.16,1.72,2.59,1.78,3.99.28,6.65-.58,13.39,1.76,19.86Z"/>
      <path class="cls-112" d="M124.77,235.15c-2.63-9.2.11-18.02,1.91-26.91.42-2.08,1.91-2.51,3.79-2.07.48.11.99.21,1.43.43,4.01,2.11,10.3,1.15,12.06,5.62,1.48,3.75-1.91,8.42-1.57,12.91-.94-.14-1.56-.26-2.09,1.06-2.18,5.45-6.08,8.59-12.25,8.11-1.23-.1-2.05,1.11-3.28.86Z"/>
      <path class="cls-78" d="M225.31,424.74c1.45-1.46,3.36-.63,5.03-1.01,1.05-1.5,2.69-1.84,4.32-2.2,25.45-5.66,49.53-15.19,73.19-25.9,5-2.26,9.94-4.63,14.7-7.36,12.88-6.93,25.32-14.55,36.77-23.72,1.3-1.04,2.43-3.05,4.63-1.51.89,2.85-1.57,3.68-3.1,4.97-10.83,9.13-23.16,16.07-34.98,23.76-12.57,5.71-24.86,12.04-37.75,17.03-14.91,5.77-30.12,10.54-45.7,14.16-.45.1-.82.52-1.23.79-5.34.05-10.39,2.34-15.77,2.09-.34-.21-.47-.44-.38-.69.09-.26.18-.39.28-.39Z"/>
      <path class="cls-29" d="M206.43,172.39c-2.85-.79-5.69-1.62-8.56-2.35-10.2-2.58-21.46,2.81-25.38,12.5-3.72,9.19-7.64,18.35-9.08,28.3-.25,1.76-1.19,3.42-1.8,5.13-3.81,0-4.43-1.36-3.37-5.19,5.3-18.99,14.69-35.91,25.32-52.3,2.05-3.17,3.22.57,4.82.17,1.8,1.16,3.61,2.33,5.41,3.49,3.22,3.46,8.31,3.55,11.78,6.53,1.05.9,4.24,1.65.86,3.7Z"/>
      <path class="cls-42" d="M150.37,226.19c.87-4.22,2.32-6.54,7.67-5.12,9.42,2.5,19.25,3.52,28.94,2.65,6.57-.6,9.33,3.34,12.58,7.37.07,1.83-1.42,1.52-2.44,1.65-9.88,1.28-19.8,1.2-29.72.84-4.67-.17-9.12-1.56-13.32-3.63-1.67-.82-3.17-1.82-3.7-3.76Z"/>
      <path class="cls-90" d="M144.57,204.35c1.19-9.86,5.82-18.44,10.03-27.19.9-1.87,2.54-3.63,1-5.91,3.61,1.05,7.22,2.1,11.14,3.24-7.09,13.28-12.6,26.76-16.65,41.22,1.28-5.55-1.31-8.88-5.52-11.37Z"/>
      <path class="cls-51" d="M125.52,401.97c-.26-.04-.5-.11-.74-.21-.81-.62-.87-1.51-.32-2.16,8.01-9.51,16.16-18.84,28.98-22.12,1.63-.42,3.27-.38,4.87-.79,4.69-.09,9.4-.55,14.06.37.53.15.97.44,1.34.85.04,3.28-1.9,4.9-4.86,5.17-3.02.27-5.35,1.53-7.35,3.7-1.02,1.11-2.26,1.98-3.81,2.22-8.03,1.28-14.67,6-22.04,8.91-.43.17-.68.71-.93,1.15-2.62,2.39-5.66,3.45-9.2,2.92Z"/>
      <path class="cls-81" d="M150.37,226.19c6.26,4.1,13.14,5.91,20.62,6.08,9.56.22,19.06-.28,28.56-1.18,1.55,1.09,3.09,2.17,4.64,3.26.7,2.87-2.46,1.31-3.07,2.67-11.95,1.41-23.87,3.44-35.95,1.42-4.08-.68-8.11-1.63-11.55-4.07-2.79-1.98-4.97-4.34-3.25-8.18Z"/>
      <path class="cls-31" d="M133.77,397.95c4.65-3.61,10.32-5.25,15.47-7.9,4.94-2.54,11.37-2.08,14.93-7.54.37-.57,1.89-.67,2.81-.54,3.43.51,5.2-1.43,6.56-4.11,1.33-1.05,2.57-.98,3.73.28-3.63,8.66-10.59,14.3-17.84,19.68-8.53,4.35-17.09,3.94-25.66.12Z"/>
      <path class="cls-18" d="M193.45,443.76c-.03-1.47-.03-2.95-.1-4.42-.01-.27-.33-.52-.68-1.04-8,6.31-17.45,9.29-27.19,11.44-1.61.35-2.05,2.19-3.69,2.18,1.95-5.64,4.96-10.88,5.99-16.87.3-1.72,2.15-1.3,3.37-1.2,8.5.68,16.91,2.19,26.08,1.95-1.45,3.09-1.35,6.06-3.77,7.97Z"/>
      <path class="cls-110" d="M136.34,423.98c-3.56-3.11-5.43-7.39-7.83-11.3-1.33-2.17-.58-2.88,1.81-2.83,3.97.08,7.95.07,11.91-.12,2.03-.1,2.95.97,3.88,2.45,2.46,3.91,5,7.77,7.52,11.65-4.64,4.33-9.99,4.38-17.3.15Z"/>
      <path class="cls-4" d="M129.83,363.08c.86,4.88,1.68,9.77,2.61,14.63.34,1.78.14,3.2-1.32,4.47-3.63,3.14-7.18,6.37-10.75,9.55-1.35-4.35-3.04-9.47-2.69-15.02.96-4.07,3.31-7.13,6.92-9.16,2.06-1.16,3.32-3.17,5.23-4.47Z"/>
      <path class="cls-12" d="M91.77,449.95c-6.23-.26-12.49.37-18.68-.77-1.05-.92,1.93.17.63-1.51-2-2.58.87-3.08,2.74-4.02-1.32-1.13-3.35-.74-4.18-2.29-.75-1.4-2.03-2.84.07-4.21,2.73-.75,5.1.74,7.62,1.24,4.67.93,9.38,1.06,14.1.97,1.12.5.81,2.5,3.41,1.88,2.5-.59,5.5,1.44,8.2,2.56-4.08,3.31-8.9,4.97-13.92,6.15Z"/>
      <path class="cls-77" d="M149.88,325.24c-8.02-4.14-16.37-3.44-24.79-1.73-8.51,1.73-16.67,4.34-23.88,9.38-1.73.53-3.42.75-5.58-.62,15.35-8.64,30.57-15.89,48.59-12.25,2.08.42,4.11,1.23,6.08,2.07,3.35,1.43,1.74,2.36-.42,3.14Z"/>
      <path class="cls-2" d="M161.56,168.34c-5.78-2.19-11.56-4.37-18.12-6.85,8.61-5.27,17.29-5.46,26.07-5.11-.15,4.33-4.4,5.88-6.19,9.11-.51.93-2.58,1.24-.92,2.85-.12.06-.25.16-.37.16-.16,0-.31-.1-.47-.16Z"/>
      <path class="cls-85" d="M100.61,383.77c-3.88.05-7.77.11-11.65.14-2,.02-3.88.28-5.23,1.98-1.28,2.06-3.54,2.36-5.56,2.95-5.64,1.64-10.85,4.09-15.49,7.71-4.38,2.49-5.68,7.85-9.8,10.58-.78,0-1.42-.14-1.13-1.17,3.45-7.3,8.76-13.06,15.01-18.04,1.31-.72,2.62-1.43,3.93-2.15.68-1.22,1.6-1.92,3.08-1.48,8.88-3.41,17.82-4.33,26.84-.51Z"/>
      <path class="cls-91" d="M124.77,235.15c1.16-.35.33-2.66,2.58-2.22,6.61,1.29,10.13-2.61,12.41-8.08,1.35-3.22,1.84-.66,2.62.28-.53,3.95-1.64,7.71-3.54,11.22-1.63,3.04-3.52,5.62-7.6,5.12-3.82-.47-5.89-2.61-6.48-6.32Z"/>
      <path class="cls-80" d="M177.27,378.15c-1.24-.09-2.49-.19-3.73-.28,0,0,.04.04.04.04-5.43-.8-10.85-.77-16.28-.03-14.84,2.51-24.73,11.75-32.51,23.87-.77.22-1.82.87-2.24.58-.92-.63-.73-1.72.07-2.52,7.85-7.9,14.53-17.09,25.32-21.65,8.94-3.77,18.06-3.49,27.32-2.13.99.15,3-.16,2.02,2.11Z"/>
      <path class="cls-79" d="M133.77,397.95c3.43-.39,6.7.15,9.93,1.4,5.47,2.11,10.43-1.61,15.73-1.51-7.91,5.53-16.87,6.69-26.18,6.02-2.62-.19-5.78,1.26-7.73-1.88,2.04-2.79,6.46-.71,8.25-4.02Z"/>
      <path class="cls-46" d="M161.56,168.34c-.87-2.9,1.67-4.3,2.89-6.18,1.39-2.12,3.35-3.87,5.06-5.79,2.6.07,5.2.14,7.79.21,0,0-.03-.02-.03-.02-2.73,4.48-5.05,9.29-8.31,13.35-2.62,3.27-4.94-.81-7.4-1.57Z"/>
      <path class="cls-106" d="M105.69,443.8c-2.4-.19-4.81.99-7.05-1.57-1.8-2.06-3.82,3.11-6.44.82.08-1.63,2.79-1.22,2.45-3.12.27-.44.64-.76,1.11-.96,5.51-.99,10.81-2.61,15.77-5.26,2.02-1.46,4.03-2.92,6.05-4.39.5-.04.92.13,1.27.49-.74,2.23-1.77,4.28-3.5,5.92-3.26,2.65-5.7,6.27-9.67,8.07Z"/>
      <path class="cls-32" d="M115.36,435.73c.98-1.98,1.96-3.96,2.94-5.94-.32-1.2.14-2.26.61-3.32,2.4-5.45,4.36-10.93.76-16.65l.03.03c-1.99-1.9-5.6-.27-7.03-2.89-1.4-2.57,1.72-4.4,1.84-6.82.12-2.44-.08-4.86-.86-7.2.23-1.19-.27-2.18-.82-3.16,2.31-1.48,2.42.52,2.74,1.84.26,1.11-.22,2.56.32,3.4,1.85,2.83,6.31,5.41-.03,8.27-.54.24-.12,1.74.92,2.4,8.96,5.7,8.39,11.32,5.17,19.21-1.63,4-2.46,8.39-6.58,10.83Z"/>
      <path class="cls-50" d="M225.31,424.74c.03.36.07.72.1,1.08-6.1,3.02-12.87,2.34-19.27,2.81-11.99.88-24.1.96-36.06-1.12-2.84-.49-6.05-.32-7.54-3.64,6.15,1.38,12.29,2.63,18.61,3.21,10.53.98,20.96.44,31.4-.8,4.25-.51,8.5-1.03,12.76-1.55Z"/>
      <path class="cls-58" d="M137.57,352.08c1.23,7.4,3.37,14.4,8.95,19.84-2.56,1.35-5.11,2.7-7.86,4.14-2.12-6.74-2.24-13.5-2.92-20.17-.16-1.54.63-2.83,1.84-3.82Z"/>
      <path class="cls-3" d="M136.34,423.98c5.79,2.39,11.55,2.14,17.3-.15,4.01,2.67,2.64,3.83-1.16,4.8-6.37,1.63-12.03,1.33-16.13-4.65Z"/>
      <path class="cls-8" d="M129.83,363.08c-.18,1.73-.76,3.08-2.46,4-4.15,2.24-7.25,5.63-9.69,9.63.01-6.63,4.82-13.79,10.85-15.75,1.96-.64,1,1.3,1.29,2.12Z"/>
      <path class="cls-103" d="M73.77,384.28c-1.03.49-2.05.98-3.08,1.48-2.36-1.46-2.52-1.7-.43-3.13,7.32-5.04,15.53-5.03,23.85-3.94-4.04,1.59-8.27,1.11-12.46,1.24-3.38.1-6.23,1.15-7.88,4.36Z"/>
      <path class="cls-113" d="M220.28,235.18c-.1,1.39-.24,2.75-1.88,3.25-4.01-3.74-8.89-6.52-12.15-11.08,5.32,1.45,9.6,4.77,14.03,7.83Z"/>
      <path class="cls-83" d="M147.76,262.93c-2.18-2.07-2.02-4.87-2.13-7.49-.18-3.96-.01-7.94-.08-11.91-.03-1.57.53-3.39-1.33-4.45.57-1.26,1.15-2.52,1.72-3.78.34,9.33.51,18.51,1.82,27.63Z"/>
      <path class="cls-34" d="M207.6,295.16c.69,4.69-.06,9.28-1.01,13.85-.82-4.7-.48-9.32,1.01-13.85Z"/>
      <path class="cls-74" d="M153.5,466.7c-.38,2.42.92,3.2,3.08,3.14-1.28,1.97-3.12,2.81-4.66.82-.61-.79-1.89-3.83,1.58-3.96Z"/>
      <path class="cls-47" d="M139.61,337.99c-.48-2.96.75-4.32,3.76-4.04-.01,2.5-2.4,2.79-3.76,4.04Z"/>
      <path class="cls-115" d="M234.07,41.39c-20.33,5.47-36.36,16.8-46.49,35.44-6.79,12.5-12.05,25.73-15.31,39.72-9.09-23.8-7.94-49.15,15.35-62.96,12.78-7.57,26.46-12.09,41.12-13.83,2.1-.25,4.28.12,6.43.2-.37.48-.74.95-1.11,1.43Z"/>
      <path class="cls-76" d="M182.52,31.71l-3.02.94c10.49-12.55,24.1-19.97,39.69-24.08,3.34-.88,6.79-1.37,10.18-2.04,16.38-1.12,32.02,1.19,46.23,10.06,5.28,3.3,10.36,6.84,14.38,11.8-10.95-5.55-22.34-9.54-34.61-10.63-5.06.26-10.12-.18-15.18-.17-5.75,0-11.47.13-17.13,1.24-13.07,2.08-25.48,6.16-37.2,12.34-1.04.55-2.18.71-3.35.54Z"/>
      <path class="cls-104" d="M297.27,69.41c6.47,10.3,3.26,22.39-7,26.32-5.89-.4-8.55-2.55-10.22-8.18-1.8-6.06-.28-11.52,3.33-16.37,3.6-4.85,8.26-5.29,13.89-1.77Z"/>
      <path class="cls-108" d="M257.37,27.64c-14.45-2.25-28.8-1.2-43.1,1.33-8.82,1.56-17.17,4.73-25.54,7.8-1.95.25-1.72-1.01-1.55-2.23,7.6-5.38,16.37-8.14,25.26-9.94,9.39-1.9,19.01-2.77,28.63-2.92,1.75-.03,3.71-.57,5.13,1.11,14.22,1.04,27.92,4.04,40.46,11.13,2.69,1.52,5.49,2.95,7.5,5.6-11.53-6.35-23.57-10.98-36.8-11.86Z"/>
      <path class="cls-10" d="M246.2,22.78c-20.54-.66-40.15,3.11-58.63,12.31-.52-.04-.75.72-1.34.5-1.24-1.29-2.48-2.59-3.72-3.88,12.12-7.67,25.32-12.08,39.61-13.24,1.8-.38,3.6-.66,5.36.17-3.84,1.83-8.14,1.61-12.18,3.08,11.96,1.64,24-3.43,36.06.53-1.81.19-3.49.37-5.17.54Z"/>
      <path class="cls-111" d="M278.28,116.74c-4.31.25-6.74-1.95-6.63-6.1.09-3.51,1.83-6.71,5.74-6.98,4.49-.32,5.76,3,6.06,6.82.52,3.95-1.39,5.88-5.18,6.26Z"/>
      <path class="cls-19" d="M227.49,18.63c-1.79-.06-3.57-.11-5.36-.17,11.02-3.01,22.13-2.01,33.24-.71-4.08,1.9-8.39.64-12.58.82-5.09.22-10.2.05-15.3.05Z"/>
      <path class="cls-28" d="M278.28,116.74c2.98-1.05,4.3-3.47,5.18-6.26.62,1.65,1.23,3.31,1.85,4.96,0,0-.01.02-.02.02-2.97.88-5.59,2.83-8.9,3-.06-1.51,1.61-.82,1.89-1.72Z"/>
      <path class="cls-86" d="M333.45,111.56c3.84,3.25,5.84,7.48,6.71,12.36.68,3.8,2.13,7.19,5.41,9.56,1.23-.9.72-2.01.58-2.8-.63-3.36-2.57-7.3-.18-9.96,3.83-4.27,8.53-8.03,14.39-9.3,4.47-.97,7.73,1.4,9.59,5.36,3.91,8.33,3.96,16.91,1.11,25.57-7,10.08-16.87,16.83-27.18,22.91-6.57,3.88-13.48,7.21-20.78,9.59-1.78.58-3.62,1.99-5.6.4-4.41-10.15-4.82-21.07-6.16-31.82-.25-2.02.68-2.93,2.37-3.73,3.71-1.74,7.46-3.44,10.57-6.22,6.08-2.39,4.83-8.2,5.97-12.87.49-2,.74-4.06,1.1-6.09-.2-1.63.57-2.57,2.11-2.95Z"/>
      <path class="cls-24" d="M296.28,147.41c3.08-1.35,6.16-2.7,9.67-4.24.63,11.18,2.27,21.76,5.35,32.08.98,3.63-2.01,3.27-3.88,3.55-10.41,1.59-20.84,1.77-31.23-.24-1.97-.98-3.62-1.8-3.53,1.8.1,3.83,1.07,7.55,1.06,11.4-.02,3.88-1.56,5.85-5.6,5.9-5.97.06-11.95-.27-17.88.86-1.96.37-4.08.11-5.77-1.07-8.45-5.88-16.23-12.54-23.32-20.01,1.04-3.41,3.99-2.45,6.21-2.41,10.16.18,20.07-.84,29.86-3.87,11.43-3.53,21.56-9.19,30.6-16.87,2.77-2.35,5.44-4.82,8.45-6.88Z"/>
      <path class="cls-99" d="M255.1,211.42c1.29-.3,2.13-2.51,4.01-.26,1.55,1.85,4.09,1.6,6.25.29,5.38-.4,9.92-4.05,15.57-3.77,2.26.11,1.73-2.3,1.62-3.9-.4-2.94-2.53-3.08-4.81-3.01-5.63.16-5.96-.33-4.35-5.83.52-1.77.75-3.63,2.91-4.22.48-.01.92.11,1.33.35,3.76,2.53,7.8,1.3,11.69.64,2.29-.39,4.02-.29,5.84,1.76-3.35,1.67-7.14.71-9.74,3.17,5.79,6.85,3.92,16.23,7.83,23.69-3.71,9.49,4.39,10.55,9.71,13.6,1.83,1.05,3.65,2.13,5.48,3.2.79,1.52,2.41,2.09,3.67,3.02,2.36,1.73,2.97,3.65,1.53,6.21-.39.6-.9,1.05-1.58,1.31-1.5.32-3.21.35-4.16-.77-2.97-3.52-7.38-3.64-11.2-5.15-4.67-2.23-8.38-5.83-12.54-8.78-8.21-5.83-16.69-11.25-24.96-16.99-1.69-1.17-3.99-1.9-4.11-4.53Z"/>
      <path class="cls-60" d="M296.28,147.41c-10.21,12.59-23.58,20.08-38.8,25.09-10.92,3.59-21.98,4.07-33.23,3.83-1-.02-2-.03-2.78.75-1.81.97-2.16-.53-2.73-1.63-4.21-.58-8.53-.76-12.31-3.07,1.64-1.9-.36-2.1-1.31-2.66-3.93-2.3-7.9-4.54-11.84-6.82-.03-.02.05-.31.14-.44.09-.13.25-.21.38-.32,13.75,6.27,28.18,8.94,43.26,8.07,2.12-.12,4.22-.61,6.33-.93,3.74.47,6.7-1.86,10.05-2.8,4.38-.75,8.35-3.1,12.87-3.33,7.42-2.58,14.03-6.6,20.19-11.39,2.93-2.28,6.08-3.92,9.8-4.37Z"/>
      <path class="cls-93" d="M317.49,175.23c19.77-6.05,37.19-15.9,51.03-31.54.71-.8,1.51-1.24,2.54-1.36-.09,6.47-3.98,11.05-8.03,15.37-8.82,9.42-19.86,15.7-31.25,21.42-1.19.51-2.43.94-3.57,1.54-6.03,3.16-7,2.83-10.05-3.59-.28-.58-.44-1.22-.66-1.83Z"/>
      <path class="cls-7" d="M275.26,177.35c7.42.77,14.85,1.32,22.31.93,3.95-.21,7.89-.71,11.84-1.06,1.23-.11,1.64-.94,1.89-1.96.7,1.47,1.39,2.94,2.09,4.4q2.5,5.26-3.46,6.72c-10.62,2.6-21.26,5.01-32.3,4.69,0,0-.03,0-.03,0-2.42-4.29-4.14-8.71-2.34-13.72Z"/>
      <path class="cls-17" d="M247.09,163.19c-15.53,2.05-30.77,1.33-45.44-4.75-2.44-1.01-4.84-2.14-7.23-3.28-.68-.33-1.26-.88-1.79-1.66,18.65,5.91,37.48,8.19,56.75,3.9,10.67-1.13,20.61-4.85,30.55-8.68-9.72,7.63-21.23,11.16-32.83,14.47Z"/>
      <path class="cls-86" d="M319.89,91.75c.74-11.6-.33-22.95-4.53-33.89.33-.97,1.08-.79,1.82-.69,8.04,3.54,11.57,9.67,11.07,18.44-.19,3.26.44,6.57.69,9.85-1.63,4.09-4.47,6.44-9.04,6.29Z"/>
      <path class="cls-95" d="M319.89,91.75c3.38-1.57,6.45-3.58,9.04-6.29.6,8.81-2.82,14.16-10.47,15.99.49-3.3.96-6.5,1.43-9.7Z"/>
      <path class="cls-9" d="M317.18,57.17c-.61.23-1.21.46-1.82.69-.95-1.7-4.37,3.57-4.13-1.47.05-1.19-1.2-2.81.63-3.41,1.32-.43,2.96-.45,4.31-.1,1.57.41.75,1.83.62,2.91-.05.44.26.91.4,1.37Z"/>
      <path class="cls-73" d="M266.29,163.17c-4.26,1.22-8.22,3.59-12.87,3.33,4.17-1.56,8.06-4.22,12.87-3.33Z"/>
      <path class="cls-44" d="M152.28,66.42c.81,2.22-1.57,4.07-.73,6.29-.1.23-.2.47-.3.7-9.14,5.39-10.72,13.57-8.61,23.16.39,1.78.28,3.63.3,5.44-.12,5.35,1.99,9.52,6.54,12.42,1.22.78,2.67,1.37,3.04,3.02,1.98,2.07,3.57,4.9,7.3,3.18.96-.44,1.87.43,2.43,1.32,2.68,4.36,3.72,9.34,5.12,14.16.29.99-.76,1.74-1.65,2.27-.99-1.31-2.06-2.57-2.97-3.94-3.47-5.29-5.68-10.74-13.77-12.2-8.72-1.58-13.16-9.07-13.55-18.44-.24-5.78-1.02-11.53-.89-17.34.22-9.77,7.79-18.39,17.74-20.05Z"/>
      <path class="cls-33" d="M363.27,331.96c-.05-.6-.1-1.2-.16-1.8-1.05-4.12-1.59-8.41-4.1-12.03-3.67-9.11-7.25-18.25-11.06-27.3-1.28-3.05-2.29-6.32-4.69-8.81-4.67-7.01-8.73-14.36-12.24-22.01-.21-.47.12-.94.48-1.31,1.5-.93,3.17-.98,4.83-.77,22.38,2.84,43.96,8.35,63.93,19.21,2.47,1.34,5.27,2.09,7.35,4.12,4.68,6,.26,10.92-2.61,15.28-7.54,11.46-16.52,21.86-25.85,31.92-1.91,2.06-4.37,3.51-6.42,5.47-4.81,4.61-7.12,4.04-9.46-1.96Z"/>
      <path class="cls-39" d="M313.22,272.08c.98-1.64,1.97-3.29,2.95-4.93.55-2.4.79-4.83.8-7.3,0-1.82.19-3.8,2.43-4.43,2-.56,3.59.36,4.87,1.79,3.03,3.38,4.84,7.55,7.03,11.45,1.92,3.42,4.49,6.65,4.74,10.83,7.91,16.92,15.44,33.99,20.5,52.03.97,3.46,1.77,6.97,2.65,10.45,1.07,3.1-1.21,4.53-3.16,5.9-9.82,6.93-19.73,13.72-30.38,19.35-2.17.59-4.51,3.99-6.4,1.28-1.6-2.29,1.87-3.73,3.38-5.23,7.22-7.2,12.5-15.26,12.2-25.97,2.24-8.08-.17-15.61-2.67-23.13-6.85-17-24.39-29.3-46.54-26.26-1.32-.32-1.44-2.46-3.57-1.91-1.5.38-3.25-.5-3.78-2.45-.03-.11.13-.29.23-.41.2-.23.49-.22.84-.02,4.14,1.19,8.36,1.23,12.61.86,9.27-.07,16.26-4.22,21.28-11.89Z"/>
      <path class="cls-22" d="M363.27,331.96c4.32,4.51,3.82,3.83,10.42-.99,4.75-3.47,7.84-8.12,11.9-12,8.25-7.9,14.33-17.5,20.43-27.02,1.75-2.73,4.08-6.1,1.08-9.68,1.47-1.23,2.83.72,4.27.15,4.93,2.46,4.48,6.92,3.12,10.78-8.26,23.43-20.66,44.32-39,61.35-1.75,1.62-1.71,5.67-4.62,4.99-3.41-.8-1.18-4.53-1.97-6.85-2.31-6.78-4.7-13.56-5.64-20.71Z"/>
      <path class="cls-23" d="M325.28,366.04c10.43-5.77,20.4-12.27,30.08-19.21,1.74-1.25,3.67-2.37,3.83-4.87,2.43,6.84,3.35,14.01,4.77,21.08-6.16,4.41-12.24,8.92-18.5,13.19-7.08,4.83-14.53,9.05-22.22,12.84-1.46-1.59-.75-3.11.36-4.4,2.46-2.83,3.87-6.38,6.95-8.86,2.9-2.34,2.18-4.64-1.14-6.55-1.5-.86-4.27-.22-4.13-3.21Z"/>
      <path class="cls-27" d="M336.04,279.48c-3.99-6.84-7.98-13.67-11.97-20.51-1.03-1.77-2.2-3.59-4.6-2.93-2.52.69-.81,2.81-.96,4.2-.27,2.53-.63,4.92-2.34,6.91-.49-3.59-1.53-7.15-.48-10.8.26-.92.87-1.94-.2-2.6-.39-.24-1.23.06-1.78.31-1.3.59-.8,1.71-.42,2.51,1.27,2.64.67,5.08-.62,7.44-.38.7-1.04.61-1.53-.06.38-7.87-4.04-13.01-9.76-17.53-1.75-1.38-3.7-2.81-4.14-5.31,3.55,1.29,8.16,0,10.43,4.43.89,1.73,3.06.73,4.38,1.69-.11-.9,2.83,1.02,1.19-1.29.67-2.51-.41-4.05-2.37-5.63-.88-.71-3.63-.68-2.43-3.18,7.32,3.23,13.83,7.69,19.79,13-.71,2.78,1.57,1.97,2.68,1.99,6.13.08,12.12,1.27,18.16,2.05,1.54.2,3.04.14,3.42,2.49-5.79-.38-11.34-2.15-17.13-1.71-1.81.14-3.56-.16-5.08,1.09.71.96,1.75,1.79,1.3,3.22,3.96,7.56,9.23,14.44,11.69,22.77-.39,1.81.61,3.85-1.09,5.84-1.99-3.01-1.79-7.48-6.13-8.38Z"/>
      <path class="cls-38" d="M331.57,259.25c-.58-1.02-2.03-1.68-1.3-3.22,29.04,2.63,56.37,10.52,81.11,26.38-1.5,2.14-2.86.39-4.27-.15-13.28-8.75-28.06-13.96-43.27-18.02-10.56-2.82-21.3-4.66-32.26-4.99Z"/>
      <path class="cls-62" d="M359.01,318.12c4.58,2.91,4.26,7.5,4.1,12.03-2.57-3.6-3.14-7.88-4.1-12.03Z"/>
      <path class="cls-28" d="M333.45,111.56c-.7.98-1.41,1.97-2.11,2.95-1.6.45-2.49,2.28-4.76,2.23.86-3.16.62-6.9,4.44-8.14,3.13-1.01,5.94.78,7.15,4.03-1.98.23-2.6-2.07-4.19-2.08-.16,0-.34-.05-.49,0-.86.29-.38.66-.04,1.01Z"/>
      <path class="cls-28" d="M328.22,124.6c-.22,1.49.55,3.67-2.04,3.7-2.09.02-1.2-1.71-.91-2.55.61-1.79-1.7-4.85,1.38-5.23,1.99-.25,1.39,2.51,1.57,4.08Z"/>
      <path class="cls-55" d="M71.71,437.85c.59,4.46,4.35,3.88,7.44,4.33-.28,1.91-1.43,2.72-2.73,3.44-.79.44-2.67-1.29-2.42,1.07.16,1.51,2.04.64,2.89,1.71-1.34.27-2.58.53-3.82.78-11.93-4.18-23.97-7.91-36.75-8.42-1.56-.06-3.37.54-4.53-1.17-.94-1.16-.4-2.26.37-3.1,2.98-3.23,5.25-7.08,8.64-9.94,2.71,2.24,5.7,4.01,8.99,5.26.92-.07,1.85-.14,2.77-.22.51-.22,1.02-.21,1.52.01,3.84.89,7.84,1.06,11.61,2.22,2.31.71,5.37.66,6,4.02Z"/>
      <path class="cls-52" d="M41.14,427.12c-2.79,4.4-6.92,7.8-9.34,12.47-1.9,1.05-3.88,1.56-6.86.76,12.84-8.87,19.32-22.02,26.81-34.41.25.29.5.58.75.88.39.34.71.86.5,1.28-3.45,6.65-6.1,13.8-11.85,19.02Z"/>
      <path class="cls-45" d="M152.52,117.46c-6.72-2.76-11.33-7.04-10.8-15.01,3.38-.01,6.09,3.31,9.75,1.92,1.05,2.56,1.71,5.19,1.37,7.98-.05,1.71,2.33,3.57-.32,5.11Z"/>
      <path class="cls-14" d="M152.85,112.35c-.71-2.69-1.42-5.38-2.13-8.07-3.73-7.09-2.81-14.68-2.24-22.18.24-3.23.36-6.66,2.87-9.26,0,0,.21-.13.21-.12,1.64,1.14,1.64,3.24,1.28,4.47-2.9,10.06-.87,19.97.47,29.92.24,1.78.78,3.6-.46,5.25Z"/>
      <path class="cls-66" d="M186.24,35.59c.37-.36.65-.97,1.34-.5.39.56.77,1.12,1.16,1.67-5.02,3.64-10.88,5.89-15.72,9.83,3.2-5.2,9.07-7.06,13.23-11.01Z"/>
      <path class="cls-102" d="M245.05,326.86c-.59,3.45,2.77,2.77,4.25,4.07-8.54,4.44-15.71,3.89-20.78-1.91,5.85.45,11.34.18,16.53-2.16Z"/>
      <path class="cls-35" d="M259.35,282.1c1.81,1.18,2.85,2.4,3.54,7.41,1.05,7.51,1.09,15.1-1.61,22.4-.31.85-.56,2.09-1.98,1.15,4.33-10.31,3.49-20.63.05-30.95Z"/>
      <path class="cls-53" d="M275.26,177.35c.78,4.57,1.56,9.15,2.34,13.72-4.16.98-3.27,4.97-3.92,7.58-.54,2.15,1.93,1.05,3.31.94,2.96-.24,6.34-.97,6.63,3.69-5.09-.64-10.2-.53-15.31-.56-2.96-.19-5.93-.1-8.89-.17-2.41-.06-4.64.06-6.8-1.98-2.41-2.29-6.11.36-9.31-1.34,1.13,1.72,2.88,2.21,3.86,3.52,1.06,1.42,1.73,2.85-.78,3.53-.44-.04-.88-.09-1.31-.13-.58-2.44-2.82-3.3-4.53-4.62-7.9-6.08-15.47-12.47-20.85-21.05-.99-1.58-2.03-3.07-.96-5.02.91.54,1.82,1.09,2.73,1.63,6.87,5.71,13.79,11.35,20.57,17.16,2.26,1.93,4.51,2.97,7.58,2.77,6.61-.42,13.23-.64,19.85-.66,2.48,0,3.12-.73,2.85-3.12-.42-3.78-.62-7.59-.77-11.39-.11-2.85-.28-5.76.83-8.5,2.61.53,1.36,3.13,2.86,4Z"/>
      <path class="cls-64" d="M325.28,366.04c.46,1.78,2.04,1.31,3.23,1.56,2.59.56,4.89,1.85,5.4,4.44.48,2.43-1.43,4.14-3.27,5.69-3.58,3.01-6.06,6.82-7.41,11.33-7.45,5.36-16.13,8.25-24.38,11.97-19.63,8.84-39.8,16.18-60.8,21.09-2.56.6-5.14,1.08-7.71,1.61-.58-.55-1.37-1.69-1.71-1.57-6.6,2.35-13.3-1.09-19.87.45-1.81.42-3.25-.01-4.39-1.48-1.34-1.73.44-2.19,1.21-3.11,1.32-1.57.99-3.45.68-5.22-1.07-6.11,1.01-8.96,7.38-9.85,1.25-.17,2.52-.13,3.9-.19-.58-1.23-1.57-.74-2.28-1.03,8.57-1.59,17.18-3.04,25.71-4.81,23.25-4.83,45.41-12.95,67.05-22.58.21-.09.29-.5.64-1.16-16.26,5.77-30.37,1.55-43.37-8.24.36-2.12.71-4.24,1.14-6.81,12.36,10.23,26.07,13.67,41.34,9.21,11.02-3.22,19.46-9.74,24.35-20.39.14-3.55.98-6.81,3.87-9.2.33,13.17-7.08,22.19-16.06,30.77,1.78-.83,3.56-1.65,5.35-2.48Z"/>
      <path class="cls-34" d="M297.24,241.1c4.01,3.85,8.62,7.05,12.04,11.57,2.66,3.52,4.02,7.05,1.86,11.27-.37.37-.75.74-1.12,1.1-4.94,2.31-9.72,4.82-15.27,5.8-5.8,1.03-10.85-.07-15.71-3.03-.71-.43-1.47-.81-2.08-1.36-13.35-12.22-29.15-20.05-45.98-26.17-1.89-.69-4.79-1-4.67-4.23,3.33-9.93,8.46-18.57,17.85-23.9,3.39-1.93,7.12-3.21,10.95-.73,12.6,8.84,25.2,17.68,37.8,26.53,1.46,1.03,2.89,2.1,4.34,3.15Z"/>
      <path class="cls-68" d="M226.31,236.05c5.74,4.39,12.64,6.38,19.22,8.87,8.92,3.38,16.84,8.21,24.18,14.15,2.31,1.87,4.56,3.81,6.9,5.63,9.83,7.64,19.3,6.5,30.31.1,1.45-.84,2.15-1.13,3.1.24-5.19,8.09-12.89,12.14-22.18,12.85-7.66.59-12.89-4.2-17.57-9.56-1.95-2.24-3.73-4.63-5.8-6.76-2.47-2.53-5.4-4.33-9.11-4.44-8.97-3.96-18.06-7.65-26.68-12.4-4.29-2.36-5.35-4.76-2.37-8.69Z"/>
      <path class="cls-105" d="M328.25,340.15l-.44-.14-.45.08c-2.42,5.44-5.86,10.05-10.84,13.44-3.75,2.56-5.69,1.56-6.21-3.27.94-2.85,3.9-3.88,5.53-6.18,8.64-12.16,7.56-25.05-3.07-35.65-1.62-1.61-3.77-2.71-4.81-4.89-1.51-2.97-4.02-4.08-7.24-4.08-4.3,0-8.6.09-12.89-.06-1.87-.07-4.12.31-4.74-2.39,3.02-3.31,7.26-3.18,11.03-3.16,7.09.04,14.21.73,20.37,4.92,2.27,1.6,3.86,4.12,6.68,5.02,5.34,3.8,6.88,9.85,9.17,15.47.14.52.23,1.04.3,1.56.67,6.62.78,13.18-2.39,19.32Z"/>
      <path class="cls-43" d="M283.29,297.31c5.31,1.75,10.8.78,16.14.6,4.34-.15,7.11,1.85,9.98,4.32.09.08.12.42.07.45-.28.16-.59.26-.88.38-1.41,1.1-2.86.5-4.24.02-18.38-6.42-33.47,5.61-35.4,23.49-.8,7.45,3.18,13.65,7.72,19.3,1.13,1.41,2.67,2.51,3.18,4.36-2.2,4.06-7.99,3.55-11.21-1.04-2.03-2.89-4.06-5.79-5.44-9.07-4.04-7.29-6.06-14.45-.02-21.91,2.35-2.91,3.19-6.79,4.27-10.4,3.67-5.93,8.72-9.77,15.84-10.49Z"/>
      <path class="cls-94" d="M263.2,340.1c2.7,2.03,4.21,5.03,6.09,7.71,2.03,2.9,4.83,4.03,8.18,4.11,1.19.03,1.73-.8,1.84-1.92,1.67-1.55,3.33-.86,4.98.04,7.19,3.93,14.52,3.18,21.92.73,1.63-.54,3.13-2.07,5.06-.78.32,1.3-.62,3.12,1.43,3.72,1.53.45,2.23-1.03,3.33-1.54,5.44-2.52,6.96-8.63,11.34-12.07.44,3.35-1.88,5.42-3.46,7.93-11.75,18.65-36.92,18.45-51.25,7.13-4.45-3.52-9.35-8.14-9.44-15.05Z"/>
      <path class="cls-13" d="M329.27,319.01c-2.88-5.02-4.22-10.97-8.98-14.86-2.26-1.11-3.42-3.55-5.67-4.67-2.81-2.34-6.89-2.52-9.34-5.47.46-1.18,2.86-1.07,2.15-2.85-.49-1.22-2.06-.72-3.1-1.09-6.89-2.47-14.02-1.72-21.09-1.75.29-1.07,1.49-.58,2.05-1.19,12.1-.77,23.89-.31,33.97,7.8,6.13,4.92,11.22,10.59,13.82,18.17.06,3.11,1.5,5.93,1.96,8.94.25,1.65,1.47,3.39.03,5.07-3.14-.3-3.93,1.5-3.85,4.21.13,4.09.36,8.22-2.98,12.06,0-1.36,0-2.29,0-3.21,1.67-6.62,2.41-13.3,1.2-20.1,1.27-.86,1.39-2.13,1.24-3.5-.39.87.8,2.66-1.42,2.45Z"/>
      <path class="cls-107" d="M285.3,287.11c-.68.4-1.37.79-2.05,1.19,0,0,.06-.36.06-.36-7.14,1.51-12.65-1.21-17.13-6.59-2.5-5.36-4.88-10.8-9.69-14.65,2.47-2.76,3.9-.84,5.19.9,4.78,6.44,10.28,12.03,17.65,15.51,1.66,1.63,1.67,1.99,4.39,1.88,2.22-.09,1.43,1.16,1.59,2.12Z"/>
      <path class="cls-89" d="M305.29,294c3.33,1.64,7,2.65,9.8,5.27.51.39.55.83.13,1.32-10.16-5.75-20.72-7.65-31.92-3.29-6.28,1.99-11.27,5.92-15.84,10.49-.29-2.1,1.11-3.33,2.4-4.61,10.03-9.91,21.96-12.52,35.43-9.18Z"/>
      <path class="cls-15" d="M266.18,281.35c.25-.19.72-.56.72-.55,4.24,5.22,10.22,6.41,16.41,7.15-5.05,1.86-9.98,3.94-14.33,7.66-.96-4.91-1.88-9.59-2.8-14.26Z"/>
      <path class="cls-25" d="M335.08,327.1c-.78-3.64-1.5-7.29-2.36-10.91-.27-1.15-.75-2.18.38-3.1,3.92,7.87,3.46,16.26,2.9,24.66-1.29,3.07-2.58,6.13-3.87,9.2-3.05-4.26,1.03-7.67,1.78-11.35.58-2.84,1.23-5.59,1.18-8.5Z"/>
      <path class="cls-41" d="M313.22,272.08c-1.46,7.57-13.27,14.17-21.28,11.89,8.14-2.08,15.32-5.89,21.28-11.89Z"/>
      <path class="cls-11" d="M228.4,257.12c4.38-.12,8.69.19,12.78,1.94-.19,1.88-2.13,2.08-3.09,3.22-2.92-1.01-5.84-2.05-8.77-3.01-1.22-.4-1.56-1.03-.92-2.15Z"/>
      <path class="cls-114" d="M41.14,427.12c3.79-6.77,7.57-13.53,11.36-20.3,2.94-3.81,5.1-8.3,9.48-10.86,5.19-1.08,10.56,3.88,9.89,9.13-4.53,9.1-9.79,17.58-18.69,23.18-1.34.84-2.25,2.34-3.36,3.54-4,.49-7.28-.36-8.67-4.69Z"/>
      <path class="cls-88" d="M71.87,405.09c-.9-3.9-6.06-8.65-9.89-9.13,6-6.06,13.96-7.9,21.76-10.08.97.06,1.95.12,3.95.23-7.66,5.02-11.05,12.54-15.82,18.97Z"/>
      <path class="cls-82" d="M53.89,431.9c-.43-.1-.87-.2-1.3-.3,7.59-3.23,15.29-1.62,22.94-.35,4.07.67,8.14,1.46,12.1,2.57,8.02,2.25,15.95,2.21,23.91-.11-4.4,4.38-9.85,6.01-15.9,6.08-3.97-1.48-8.17.17-12.18-.87-1.6-.42-3.8.3-3.74-2.72.03-1.42-1.8-1.05-2.81-1.42-5.73-2.12-11.8-1.25-17.7-1.91-1.81-.2-3.63-.19-5.32-.96Z"/>
      <path class="cls-71" d="M113.64,392.93c1.67,3.4,3.24,6.77.34,10.35-2.04,2.52-1.3,3.89,1.83,4.42,1.46.25,3.48-.17,3.87,2.15-.97-.11-1.93-.26-2.9-.32-5.56-.33-6.42-1.44-4.15-6.46,1.52-3.37.6-6.76,1-10.12Z"/>
      <path class="cls-71" d="M119.66,409.81c5.95,7.1,1.2,13.46-1.36,19.98-.26-.11-.5-.27-.71-.47-.57-2.53,1.32-4.3,2.08-6.38,1.63-4.45.88-8.76,0-13.13Z"/>
      <path class="cls-20" d="M208.11,240.51c2.6-.77,3.4,1.97,5.23,2.69,1.51,1.4,2.99,2.84,4.81,3.85q1.27,3.97-3.95,4.25c-6.12-1.29-5.79-6.22-6.1-10.79Z"/>
      <path class="cls-61" d="M267.87,201.4c3.56-.04,7.12,0,10.68-.13,2.04-.07,3.89.05,5.07,2.01,1.58,4.18.61,6.42-4.32,5.93-2.82-.28-5.84-.08-7.79,2.06-2.26,2.48-4.05,1.66-6.14.18-4.05-2.72-8.1-5.44-12.15-8.16.39-2.31,2.23-1.36,3.5-1.46,3.71-.28,7.46.4,11.16-.42Z"/>
      <path class="cls-99" d="M267.87,201.4c-3.69,1-7.48.66-11.23.93-1.17.08-2.7-.82-3.42.96-3.65,1.14-4.41,2.08-2.4,2.88,1.41.56,3.42-.69,4.81,2.41-5.2-.91-9.75.14-14.25,1.62,1.53-1.67,4.11-1.63,5.02-3.92,1.74-1.59.65-2.47-.77-3.39-1.97-1.27-3.87-2.66-5.66-4.61,4.43.67,10.3-1.56,12.67.48,5.1,4.41,10.34,1.34,15.25,2.66Z"/>
      <path class="cls-36" d="M218.16,247.05c-2.8.22-4.25-1.26-4.81-3.85,2.37.33,4.43,1.04,4.81,3.85Z"/>
      <path class="cls-31" d="M157.29,377.88c5.43-1.5,10.86-1.45,16.28.03-5.43,0-10.86-.02-16.28-.03Z"/>
      <path class="cls-48" d="M53.89,431.9c9.84-.46,19.62-.3,29.21,2.65.27,1.75-1.99,1.42-2.31,2.74.19.15.4.46.61.46,3.46.05,6.93.03,10.39.11,1.54.04,3.49-.55,3.85,1.93-.33.03-.65.08-.98.14-6.04,2.14-11.87.21-17.74-.91-1.75-.33-3.47-.77-5.21-1.17-3.9-2.72-8.44-3.41-12.97-4-1.84-.24-3.61-.35-4.85-1.95Z"/>
      <path class="cls-96" d="M286.31,215.39c2.54,3.29,2.94,6.73.86,10.64-2.51-1.7-4.76-3.35-7.13-4.79-2.78-1.68-2.98-3.58-.87-5.9,2.39-1.06,4.77-1.29,7.14.05Z"/>
      <path class="cls-67" d="M286.31,215.39c-2.38-.02-4.76-.03-7.14-.05,2.4-2.8,4.78-2.75,7.14.05Z"/>
      <path class="cls-92" d="M313.24,245.93c1.36,1.08,2.72,2.16,4.28,3.41-3.2,1.77-3.85-1.27-5.47-2.13-.04-.83.37-1.24,1.18-1.29Z"/>
      <path class="cls-40" d="M151.34,72.83c-2.16,10.44-2.15,20.93-.62,31.45-.26,2-1.29,2.4-3.09,1.62-2.11-.92-4.17-1.9-5.91-3.45-.37-4.43-.94-8.85-1.07-13.28-.25-8.45,2.77-12.89,10.69-16.34Z"/>
      <path class="cls-59" d="M368.17,281.23c-6.27-1.47-13.66-3.14-21.02-4.95-2.61-.64-2.97-2.92-2.89-5.16.13-3.3,3.18-4.07,5.28-4.42,8.83-1.45,16.43,1.67,23.06,7.41,1.56,1.35,1.88,3.16,1.32,5-.7,2.31-2.79,1.91-5.76,2.11Z"/>
      <path class="cls-100" d="M392.09,286.23c-.03,1.34-.2,3.37-1.89,2.57-4.46-2.1-9.98-2.77-12.2-8.28-1.16-2.88.42-5.23,3.57-5.04,3.8.22,10.41,6.98,10.52,10.75Z"/>
      <path class="cls-64" d="M335.78,380.15c.63-1.26-1.43-3.06.62-3.84.44-.17,1.54.29,1.72.71.8,1.94-1.19,2.25-2.34,3.12Z"/>
      <path class="cls-56" d="M311.27,349.99c-5.92,3.65-12.38,4.51-19.21,4.05-3.22-.22-6.24-.67-8.67-2.86-1.24-1.12-2.55-1.35-4.07-1.17-12.76-10.46-15.73-26.47-5.29-40.12,6.13-8.02,18.82-13.02,29.82-8.08,1.47.66,3.16.84,4.75,1.24,5.56,4.97,11.37,9.55,13.15,17.58,2.63,11.86-.65,21.85-10.48,29.37Z"/>
      <path class="cls-49" d="M329.27,319.01c2.47-1.77-1.75-4.58,1.38-6.68.4,2.94,2,5.6-1.2,7.73-.06-.35-.12-.7-.18-1.04Z"/>
      <path class="cls-70" d="M315.22,300.59c-.04-.44-.09-.88-.13-1.32,2.28,1.04,4.02,2.67,5.21,4.88-2.46-.09-3.78-1.81-5.08-3.55Z"/>
      <path class="cls-6" d="M314.2,319.02c.59,1.38,1.18,2.76,1.77,4.15-.72,3.07.23,6.24-.62,9.33-1.82,6.65-6.3,10.13-12.91,11.33-6.73,1.23-13.41,3.3-19.99-.78-2.17-1.35-3.07-3.84-5.27-5.06-2.82-3.91-3.64-8.25-2.7-12.95,2.69-8.4,9.19-12.61,17.2-13.95,8.64-1.44,16.98-.29,22.52,7.92Z"/>
      <path class="cls-26" d="M314.2,319.02c-13.5-11.56-30.28-8.9-39.72,6.03.43-9.18,7.56-17.22,16.69-18.83,9.89-1.74,19.45,3.57,23.03,12.8Z"/>
      <path class="cls-69" d="M277.18,338c3.29-.19,4.32,3.17,6.83,4.49,5.82,3.06,11.22.48,16.77.47.75,0,1.48-.77,2.26-.86,8.52-1,11.97-6.85,12.19-15.14.03-1.3-.31-2.68.74-3.79,2.56,12.81-5.5,21.53-13.75,24.27-9.69,3.22-19.8-.56-25.03-9.44Z"/>
    </g>
  </g>
</svg>