<?xml version="1.0" encoding="utf-8"?>
<!-- Generator: Adobe Illustrator 25.2.1, SVG Export Plug-In . SVG Version: 6.00 Build 0)  -->
<svg preserveAspectRatio = "none" version="1.1" id="Layer_1" xmlns="http://www.w3.org/2000/svg" xmlns:xlink="http://www.w3.org/1999/xlink" x="0px" y="0px"
	 viewBox="0 0 616 411.8" style="enable-background:new 0 0 616 411.8;" xml:space="preserve">
<style type="text/css">
	.st0{fill:#696969;}
	.st1{fill:#660000;}
	.st2{fill:#C1272D;}
	.st3{fill:#FFFFFF;}
</style>
<path class="st0" d="M611.4,263.3C569.7,411,328.9,412,308,411.8c-30.1-0.3-248.3-2.1-296.1-148.5c-3.6-11.1-21.9-70.9,2-120.1
	c16.3-33.5,52.7-63,297.7-58.8c237.2,4,275.8,32.8,293.6,69.9C628,201.7,613.4,256.1,611.4,263.3z"/>
<path class="st1" d="M609.5,288.1c-41.7,123-282.5,123.9-303.3,123.7c-30.1-0.2-248.3-1.8-296.1-123.7c-3.6-9.2-21.9-59.1,2-100
	c16.3-27.9,52.7-52.4,297.7-49c237.2,3.3,275.8,27.3,293.6,58.2C626.2,236.9,611.6,282.2,609.5,288.1z"/>
<ellipse class="st2" cx="309.8" cy="173.8" rx="299.7" ry="173.8"/>
<g>
	<path class="st3" d="M225.7,230.2h-33.1v-80.6h-72.1v-33.1h105.2V230.2z"/>
	<path class="st3" d="M334.2,230.2H301l-11.2-41.8l-8.7,41.8H248l9.1-43.9h31.7l-9.9-36.6h-22.6v-33.1h46.5L334.2,230.2z"/>
	<path class="st3" d="M496.4,198.1l-25.6,32.1H355.3V116.6h33.1v80.6h20.9v-80.6h33.1v80.6h14.8l6.1-7.5v-73.1h33.1V198.1z"/>
</g>
</svg>
