<?xml version="1.0" encoding="UTF-8"?>
<svg id="Layer_2" xmlns="http://www.w3.org/2000/svg" viewBox="0 0 364.25 361.01">
  <defs>
    <style>
      .cls-1 {
        fill: #32395e;
      }

      .cls-2 {
        fill: #e4e5e4;
      }

      .cls-3 {
        fill: #44445f;
      }

      .cls-4 {
        fill: #ebf2f3;
      }

      .cls-5 {
        fill: #b9e2e4;
      }

      .cls-6 {
        fill: #fee959;
      }

      .cls-7 {
        fill: #534636;
      }

      .cls-8 {
        fill: #4c486b;
      }

      .cls-9 {
        fill: #f1f2f2;
      }

      .cls-10 {
        fill: #fefefe;
      }

      .cls-11 {
        fill: #44485a;
      }

      .cls-12 {
        fill: #ecf2f2;
      }

      .cls-13 {
        fill: #e5c367;
      }

      .cls-14 {
        fill: #414357;
      }

      .cls-15 {
        fill: #433f44;
      }

      .cls-16 {
        fill: #e7bb73;
      }

      .cls-17 {
        fill: #f2f5f6;
      }

      .cls-18 {
        fill: #3e3d54;
      }

      .cls-19 {
        fill: #3b3e59;
      }

      .cls-20 {
        fill: #e9f0f3;
      }

      .cls-21 {
        fill: #edf0f4;
      }

      .cls-22 {
        fill: #f6f3e4;
      }

      .cls-23 {
        fill: #4e3f33;
      }

      .cls-24 {
        fill: #b8e1e1;
      }

      .cls-25 {
        fill: #f0f3f6;
      }

      .cls-26 {
        fill: #464568;
      }

      .cls-27 {
        fill: #666576;
      }

      .cls-28 {
        fill: #b9e2e5;
      }

      .cls-29 {
        fill: #b9e2e3;
      }

      .cls-30 {
        fill: #eae6e3;
      }

      .cls-31 {
        fill: #b9e3e7;
      }

      .cls-32 {
        fill: #eef1f1;
      }

      .cls-33 {
        fill: #fbfbfa;
      }

      .cls-34 {
        fill: #433c32;
      }

      .cls-35 {
        fill: #423b3e;
      }

      .cls-36 {
        fill: #bae2e4;
      }

      .cls-37 {
        fill: #e5bf82;
      }

      .cls-38 {
        fill: #ebf2f5;
      }

      .cls-39 {
        fill: #eff4f4;
      }

      .cls-40 {
        fill: #bae2e3;
      }

      .cls-41 {
        fill: #bae3e6;
      }

      .cls-42 {
        fill: #e5c275;
      }

      .cls-43 {
        fill: #ecebe8;
      }

      .cls-44 {
        fill: #3e4255;
      }

      .cls-45 {
        fill: #463c31;
      }

      .cls-46 {
        fill: #3c3f4e;
      }

      .cls-47 {
        fill: #ecf2f3;
      }

      .cls-48 {
        fill: #4e4270;
      }

      .cls-49 {
        fill: #41425c;
      }

      .cls-50 {
        fill: #f4c246;
      }

      .cls-51 {
        fill: #bbe3e4;
      }

      .cls-52 {
        fill: #b8e2e3;
      }

      .cls-53 {
        fill: #3a3b63;
      }

      .cls-54 {
        fill: #443f4c;
      }

      .cls-55 {
        fill: #e6e6e6;
      }

      .cls-56 {
        fill: #343a5b;
      }

      .cls-57 {
        fill: #4a4677;
      }

      .cls-58 {
        fill: #46465c;
      }

      .cls-59 {
        fill: #e0bd79;
      }

      .cls-60 {
        fill: #fdc044;
      }

      .cls-61 {
        fill: #3b3d59;
      }

      .cls-62 {
        fill: #494a64;
      }

      .cls-63 {
        fill: #e8bf5e;
      }

      .cls-64 {
        fill: #e8f0f0;
      }

      .cls-65 {
        fill: #53587c;
      }

      .cls-66 {
        fill: #414162;
      }

      .cls-67 {
        fill: #3b3d5d;
      }

      .cls-68 {
        fill: #ece495;
      }

      .cls-69 {
        fill: #b8e2e1;
      }

      .cls-70 {
        fill: #f9e563;
      }

      .cls-71 {
        fill: #40405f;
      }

      .cls-72 {
        fill: #f6e872;
      }
    </style>
  </defs>
  <g id="Layer_1-2" data-name="Layer_1">
    <g>
      <path class="cls-67" d="M98.16,123.86c8.14,7.16,15.38,15.21,22.98,22.91,2.69,3.65,2.01,6.87-1.25,9.77-1.09.97-2.01,2.09-2.9,3.25-.33.36-.66.71-1,1.07-3.48,3.18-7.63,5.7-9.88,10.08-4.35,3.28-2.74,5.82.6,8.89,6.9,6.34,6.72,6.46,13.29-.17,3.94-3.98,8.01-7.85,12.02-11.77,1.82-.85,3.31-2.18,4.83-3.44,2.93-2.43,6.07-2.96,9.7-1.8,3.83,1.22,8.22.66,11.21,4.39,1.93,2.41,2.32,4.25-.24,6.24-2.36.38-3.55-1.47-5.04-2.71-5.68-4.71-8.84-4.71-14.29.42-5.2,4.9-10.14,10.06-15.19,15.11-12.93,12.91-25.84,25.84-38.77,38.75-2.12,2.12-4.25,4.23-5.28,7.14-1.47,3.36.41,5.69,2.41,8.02,3.64,4.26,8.39,7.53,11.17,12.56q-.32,5.47-6.44,3.49c-.45-.11-.89-.27-1.31-.46-.76-.33-1.32-1.25-2.14-1.19-3.35.24-8.71,7.96-7.94,11.33.18.43.32.87.42,1.32.52,5.56,5.84,7.46,8.91,10.9,3.47,3.88,7.64,7.36,11.81,10.67,5.14,4.08,5.34,4.08,10.21-.43.5-.47,1.12-.7,1.82-.64,1.19,1.64,1.09,3.32.13,5.02-4.69,4.92-8.84,5.25-13.77,1.01-8.72-7.5-16.63-15.83-24.4-24.28-3.92-4.27-3.77-8.51.02-12.89.43-.5.92-.96,1.39-1.42,2.12-2.1,4.91-3.86,6.21-6.38,1.77-3.45-2.85-4.52-3.96-7.16-2.65-6.33-1.67-13.84,3.32-18.88,9.69-9.79,19.38-19.59,29.29-29.15,2.98-2.88,3.07-4.72.09-7.64-7.72-7.54-7.65-7.71-15.37.05-3.5,3.52-6.57,7.43-10.35,10.74-4.24,3.71-7.27,4.05-11.55-.16-9.35-9.2-18.47-18.62-27.78-27.86-12.25-12.16-24.52-24.3-36.9-36.33-5.51-5.35-5.72-7.3-.38-12.56,8.39-8.26,16.81-16.49,25.22-24.74,2.88.9,5.02-3.14,8.06-1.23.63,2.4-1.27,3.55-2.61,4.77-2.02,1.85-2.8,3.84-1.85,6.44-.41,2.23-1.93,3.71-3.47,5.18-3.89-1.19-6.8.06-9.44,3.15-2.88,3.37-6.25,6.32-9.36,9.49-1.26,1.28-2.8,2.53-1.44,4.65,4.51,4.59,9.3,8.9,13.5,13.77,2.39,2.77,4.21,2.2,6.45-.2,3.6-3.86,7.35-7.6,11.21-11.21,2.29-2.13,3.35-3.96.49-6.41-1.01-.87-1.53-2.17-.79-3.59,2.58-1.69,4.64-2.01,5.32,1.86.29,1.69,1.37,3.03,2.35,4.36,1.92,2.61,4.08,3.33,6.51.57,1.01-.4,1.86-.12,2.64.56,1.14,1.45,2.85,2.59,2.64,4.79-1.31,1.23-2.91,2.11-4.18,3.39-.67.29-1.34.32-2.04.12-2.54-2.23-4.63-2.19-7.05.56-3.49,3.96-7.41,7.53-11.15,11.26-1.11,1.11-2.87,2.02-1.63,4.08,3.71,3.74,7.01,7.84,10.87,11.43,3.2,2.99,6.31,6.07,11.12,3,.61.59,1.2,1.37,1.12,2.12-.29,2.47,1.64,1.33,2.61,1.74.77,1.02.24,1.96-.4,2.66-2.14,2.32-.8,3.8,1.11,5.2,3.35,5.05,8.37,8.52,12.28,13.04,1.63,1.88,3.34,1.8,5.15.11,4.51-4.19,8.49-8.9,12.98-13.11,1.71-1.61,1.01-3.22-.35-4.8-1.24-1.44-3.27-2.5-2.79-4.93,1.78-1.2,4.79,1.32,5.9-1.94.15-.07.38-.22.45-.17,5.09,3.85,8.38.73,11.71-2.86,3.01-3.24,6.32-6.21,9.3-9.48,1.52-1.88.6-3.37-.77-4.77-4.16-4.24-8.43-8.37-12.57-12.64-2.05-2.11-3.79-2.16-5.82.01-2.48,2.65-5.06,5.21-7.71,7.69-1.25,1.17-2.29,2.98-4.53,2.32-1.11-2.33.75-3.55,1.92-4.97,1.7-2.06,3.15-4.13,1.93-6.97-.19-1.57.81-2.58,1.71-3.64,2.85-1.9,2.7-4.46,1.58-7.23.16-2.43.39-4.81,3.48-1.96,1.36,1.25,3.06,1.84,4.64,2.68Z"/>
      <path class="cls-61" d="M236,202.51c-8.22-2.78-15.74-6.97-23.01-11.63-2.08-1.33-4.05-2.26-5.58.12-2.58,4-6.36,6.77-9.61,10.07-1.9,1.93-2.39,3.08-.14,5.15,7.16,6.56,7.5,17.79-.79,24.81-5.3,4.49-9.82,9.89-14.86,14.7-2.27,2.16-2.34,3.74.26,5.5.82.55,1.49,1.32,2.21,2.01,6.37,6.12,6.31,6.06,12.47-.57,3.95-4.25,8.16-8.26,12.2-12.42,3.02-3.11,6.07-3.07,9.03-.09,3.38,3.4,6.61,6.96,9.9,10.45.88,2.04,1.74,4.08-.67,5.73-4.08.69-5.67-2.81-7.93-4.96-6.87-6.5-5.1-6.66-11.96.09-3.05,3-6.06,6.05-9.09,9.08-1.36,1.37-2.5,2.76-.84,4.66.83,1.07,1.89,2.04,1.69,3.59-1.06,1.43-1.88,3.05-3.24,4.26-1.6.28-2.57-.81-3.64-1.67-1.78-1.86-3.4-1.43-5.06.24-4.16,4.19-8.34,8.36-12.53,12.53-1.67,1.67-2.08,3.29-.2,5.04,1.34,1.79,3.73,2.9,3.67,5.6-2.73,2.23,1.4,4.76-.31,7.04-4.4-3.3-8.02-7.43-11.67-11.48-2.42-2.69-1.82-5.4.66-7.85,5.44-5.36,10.79-10.82,16.32-16.08,2.63-2.5,3.18-4.18.05-7.06-7.75-7.1-7.64-7.36-15.14.08-8.48,8.41-16.88,16.9-25.22,25.45-6.98,7.16-16.35,8.44-23,2.96-1.94-2.29-4.58-2.98-7.41-3.27-.98-3.76-2.79-6.91-5.76-9.58-2.67-2.4-4.25-5.52-2.88-9.35,2.5-1.14,3.67.78,4.93,2.24,4.23,4.94,9.37,8.95,13.95,13.54,4.92,4.93,8.78,4.88,13.84-.05,14.77-14.38,29.15-29.17,43.83-43.64,1.91-1.88,2.24-3.33.02-5.3-4.6-4.09-8.53-8.87-13.08-13.02-9.97-9.77-19.66-19.81-29.61-29.6-3.97-3.9-4.85-7.02-2.41-8.83,3.75-2.78,6.14.24,8.47,2.55,9.92,9.82,19.75,19.74,29.65,29.57,4.25,4.43,8.73,8.63,12.94,13.09,1.9,2.02,3.35,2.02,5.41.2,5.62-4.96,5.94-10.39.64-15.85-2.66-2.74-5.38-5.41-8.11-8.08-5.53-5.68-11.22-11.2-16.77-16.86-1.36-1.39-3.07-2.6-3.15-4.84,1.71-3.25,3.77-3.03,6.39-.92,3.51,2.83,5.64,6.98,9.42,9.56.96.66,1.79,1.46,2.98,1.69,2.31.8,3.88,2.59,5.39,4.32,2.01,2.32,3.85,2.07,5.96.24,1.14-.99,2.14-2.09,3.19-3.15q5.44-5.44.59-11.16c-.91-1.08-2.35-2.08-1.28-3.86,1.55-.95,3.56-1.22,4.53.11,2.98,4.1,8.07,4.74,11.68,7.72,5.63,5.16,12.79,7.75,19.33,11.37,1.27.7,2.82.91,3.78,2.17.58,1.3.65,2.54-.46,3.63Z"/>
      <path class="cls-56" d="M177.99,301.85c.07-1.24-.57-2.13-1.38-2.97-2.32-2.39-1.39-3.61,1.5-4.11,4.28.45,6.14,4.19,8.64,6.81,2.88,3.01,4.83,3.08,7.53-.07,2.79-3.25,6.03-6.13,9.07-9.17q5.02-5.02.16-9.88c-1.75-1.76-3.55-3.47-5.25-5.28-1.1-1.17-2.57-2.19-2.34-4.13.42-1.9.66-3.94,3.2-4.23,6.38,3.04,10.87,8.02,14.41,13.99-.84,1.93-1.92,3.94-.22,5.86,1.38,1.56,3.01.23,4.52-.07.83-.16,1.6-.07,2.38.21.89.36,1.66.89,2.38,1.51,4.25,4.14,8.48,8.31,12.59,12.59,2.36,2.45,4.28,2.46,6.62,0,3.75-3.94,7.68-7.71,11.5-11.59,2.11-1.77,2.45-3.64.43-5.75-.78-.82-1.37-1.8-1.29-3.03.52-1.89,1.88-2.78,3.69-3.14,6.18,4.26,10.81,10.17,16.02,15.42,2.83,2.85-.26,4.13-2.87,4.78-.85-.08-1.59-.41-2.28-.9-5.67-4.08-5.64-4.05-10.43,1.5-2.71,3.15-5.83,5.91-8.71,8.9-1.44,1.49-2.83,2.98-1.11,5.15,4.15,4.54,8.71,8.67,12.93,13.13,2.31,2.44,4.2,2.63,6.6.04,4.17-4.5,8.72-8.65,12.92-13.13,1.49-1.84.27-3.01-1-4.22-1.69-1.6-3.48-3.13-4.27-5.45-.55-1.8-.62-3.58.97-4.85,1.39-1.11,2.33.01,3.17,1.04,12.82,10.34,12.79,11.65,3.08,21.22-11.95,11.76-23.87,23.55-35.88,35.25-5.11,4.98-7.02,4.98-12.03.01-18.19-18.03-36.33-36.12-54.47-54.2-.33-.33-.51-.82-.76-1.24Z"/>
      <path class="cls-71" d="M284.04,102.09c-1.07,11-4.52,21.53-6.34,32.38-.74,4.4-3.58,8.82-.79,13.47-.62,2.16-2.27,3.01-4.3,3.38-2.09-.67-4.3-1.23-3.98-4.19,6.26-3.09,3.83-7.98,2.61-12.63,2.02-11.44,4.79-22.73,7.01-34.13.44-2.27,2.23-5.49-.65-6.74-2.66-1.16-4.26,2.06-5.67,3.92-4.87,6.43-11.52,11.02-17.06,16.75-3.13,3.24-4.42,5.81-1.8,9.66.16,1.84.03,3.6-1.5,4.92-1.51.77-2.31-.13-3.01-1.27-1.58-3.36-3.08-6.76-5.29-9.81-.85-1.18-2.37-2.45-1.03-4.27,2.48-.55,4.59-1.62,6.43-3.5,6.39-6.56,12.95-12.96,19.38-19.48,1.23-1.24,3.3-2.48,2.31-4.53-1.04-2.17-3.28-1.14-4.94-.73-12.45,3.04-25.04,5.34-37.61,7.8-1.67.33-3.21.8-4.47,1.99-2.12.54-4.29.3-6.44.41-.78-.23-1.28-.74-1.55-1.5-.56-2.98,1.96-3.81,3.64-5.23,15.66-3.3,31.3-6.67,46.98-9.85,3-.61,4.28-2.25,4.5-4.99,1.07-13.65,18.62-18.01,28.39-9.96,1.19.98,2.03,2.16,2.19,3.74.49,1.81,1.82,3.26,2.18,5.12-2.53,2.06-4.05.16-5.6-1.47-1.05-1.12-1.52-2.93-3.54-2.83-.46-.03-.91-.12-1.35-.27-3.46-2.21-6.92-2.89-10.7-.55-4.05,2.51-5.24,6.15-4.84,10.63.15,1.68.51,3.27,1.13,4.81.15.42.26.86.36,1.3.84,2.89,3.42,3.68,5.74,4.8,1.39.67,3.33.4,4.01,2.31-2.67,3.01-4.62,6.32-4.41,10.54Z"/>
      <path class="cls-18" d="M272.87,151.24c.94-1.6,2.63-2.28,4.04-3.31,16.42,15.26,31.99,31.38,47.7,47.36,3.86,3.92,2.91,8.91-1.97,10.28-29.18,8.18-58.13,8.39-86.65-3.05,0-1.21,0-2.41,0-3.62,3.39-1.48,5.83,2.23,9.06,1.65.53,0,1.04.04,1.56.09,1.1.12,2.14.39,3.09.98,3.74,3.15,8.1,3.66,12.87,4.05,9.27.76,18.53.88,27.81.8,4.29-.04,8.56-.53,12.63-2.06,3.18-1.88,6.94-1.85,10.29-3.17.63-.2,1.27-.37,1.92-.47,3.84-.58,3.4-2.13,1.12-4.38-6.6-6.51-13.07-13.15-19.69-19.63-6.74-6.59-13.07-13.6-20.23-19.77-1.69-1.46-3.41-3.19-3.54-5.74Z"/>
      <path class="cls-53" d="M255.98,279.82c-.98.93-1.96,1.86-2.94,2.8-2.73.99-3.62-1.54-5.12-2.76-3.55-2.89-6.02-8.8-10.15-8.71-3.72.08-6.61,5.47-9.68,8.64-2.89,2.97-6.95,5.23-7.75,9.91-1.09-.2-2.04-.42-3.2.3-1.85,1.15-4.57,1.81-5.35-.66-.65-2.03-2.61-5.31,1.34-6.84,5.69-5.71,11.53-11.27,17.05-17.14,1.43-2.04-.19-3.17-1.27-4.54-1.17-1.5-3.57-2.38-2.74-4.99,3.09-.84,1.32-3.47,1.92-5.22,6.38,5.34,12.28,11.18,17.87,17.33,2.25,2.98,5.19,5.32,7.65,8.09.98,1.1,2.92,1.7,2.37,3.79Z"/>
      <path class="cls-49" d="M98.16,123.86c-2.75.23-5.24-.11-6.83-3.71-.14,1.78-.22,2.84-.31,3.9-.88.25-1.7,0-2.28-.6-5.16-5.27-11.29-9.63-15.13-16.14.33-3.51-2.02-3.95-4.66-4.04-5.95-4.51-10.78-10.19-15.99-15.46-2.81-2.85-4.91-3.36-7.61-.08-1.32,1.6-2.73,3.39-5.13,3.61-1.97-.49-3.65-1.33-4.23-3.5,3.13-3.17,6.26-6.33,9.39-9.5,2.39-2.41,5.09-2.66,7.44-.29,15.12,15.26,30.8,29.97,45.34,45.8Z"/>
      <path class="cls-26" d="M183.05,191.88c-4.01.33-5.57-3.34-7.69-5.44-1.66-1.64-3.52-3.4-4.96-5.31-2.08-2.75-3.63-2.25-5.45,0-4.1-1.33-6.81-4.04-8.14-8.14,2.25-3.97.96-7.48-3.69-7.94-6.3-.62-13.32-4.78-18.7,2.49-.33.45-1.57.24-2.38.34,5.65-8.74,18.17-9.84,25.61-1.99,1.78,1.88,2.95,1.64,4.43.17,3.72-3.69,7.39-7.44,11.08-11.16,1.5-1.52.79-2.88-.08-4.46-2.55-4.63-5.38-9.13-7.15-14.17-.29-.73-.41-1.47-.22-2.24.56-.64,1.27-.76,2.06-.59,1.4.69,2.11,2.05,3.07,3.17,5.41,14.14,15.22,25.32,24.75,36.7.75,1.01,1.33,2.06.78,3.37-2.28,1.23-3.35-.76-4.51-1.91-3.87-3.85-8.09-7.39-11.26-11.9-1.81-2.57-3.57-3.26-5.87-.54-1.83,2.16-4.19,3.75-6.29,5.62-2.56,2.27-2.84,4.54-.11,7.12,4.33,4.1,8.51,8.37,12.66,12.65,1.09,1.13,2.68,2.13,2.08,4.16Z"/>
      <path class="cls-3" d="M293.16,19.11c1.55.44,3.02.75,4.41,1.28,22.12,8.39,37.6,23.59,46.32,45.56.72,1.82,2.69,4.87-.55,6.01-3.12,1.09-3.71-1.72-4.7-4.25-8.02-20.47-22.37-34.68-42.9-42.63-1.23-.48-2.53-.83-3.7-1.42-1.22-.61-1.44-1.88-1.08-3.01.3-.96,1.24-1.5,2.21-1.54Z"/>
      <path class="cls-19" d="M167.97,133.94c-.63-.03-1.26-.05-1.89-.08-1.25-.49-1.79-1.6-1.85-2.74-.31-6.02-2.96-11.12-6.03-16.09-4.43-12.35-4.74-25.2-4.46-38.1.15-6.73.13-13.52,2.32-20.02.79-1.52,1.07-3.62,3.52-3.35,2.75.31,2.48,2.56,2.79,4.44-.56,8.44-2.23,16.75-2.03,25.31.29,12.77,2.12,25.15,6.49,37.14.41,1.36.52,2.76.56,4.16-.97,3.17,2.25,6.1.58,9.32Z"/>
      <path class="cls-14" d="M333.19,20.88c15.77,13.22,25.32,30.14,29.8,50.07.47,2.09.91,4.2,1.2,6.32.21,1.57-.03,3.07-2.1,3.24-1.9.16-2.78-.32-3.16-2.63-2.04-12.64-6.27-24.47-13.26-35.32-4.43-6.88-10.76-12.02-15.85-18.27-.7-2.94.33-4.17,3.37-3.41Z"/>
      <path class="cls-66" d="M161.22,57.25c-.52-.86.57-2.3-1.31-2.76-2.34-.58-2.58,1.61-3.84,2.42.48-4.28,1.48-8.43,2.87-12.5,2.04-5.99,6.73-7.51,11.27-3.02,7.41,7.33,15.25,14.24,21.94,22.28,1.17,2.74-.71,3.7-2.67,4.61-2.54.31-3.85-1.62-5.35-3.09-5.2-5.1-10.29-10.32-15.49-15.43-3.21-3.15-3.53-2.93-4.79,1.51-.59,2.07.15,4.84-2.63,5.97Z"/>
      <path class="cls-62" d="M333.19,20.88c-2.12.15-3.21,1.32-3.37,3.41-10.61-7.88-21.93-14.3-34.98-17.23-2.9-.65-5.79-1.4-8.72-1.9-2.09-.36-2.92-1.4-2.47-3.41.45-2.06,1.98-1.87,3.53-1.56,15.41,3.07,30.02,8.05,42.54,17.97,1.15.91,2.31,1.81,3.47,2.72Z"/>
      <path class="cls-11" d="M189.06,67.96c1.06-1.41,3.23-2.02,3.08-4.29,8.14,6.68,14.92,14.76,22.64,21.87,1.3,1.2,2.3,2.82,4.22,3.22-.62,2-3.1,2.9-3.11,5.26-1.98.33-3.01-1.16-4.18-2.26-7.25-6.85-13.77-14.45-21.48-20.82-.87-.72-1.77-1.6-1.16-2.98Z"/>
      <path class="cls-58" d="M301.68,42.79c3.63.72,6.91,3.19,9.95,5.6,4,3.18,7.24,7.28,9.28,12.07.66,1.56,1.28,3.72-1,4.67-1.82.75-3.14-.32-3.9-2.05-3.09-6.99-8.33-11.82-15.2-14.93-1.68-.76-2.13-1.96-2.01-3.57.11-1.5,1.12-1.89,2.87-1.8Z"/>
      <path class="cls-48" d="M255.98,279.82c-2.7-4.5-8.05-6.77-10.03-11.88,10.99,10.07,21.21,20.92,31.65,31.54.29.3.3.88.44,1.33-4.81-1.73-3.26,1.61-3.07,3.86-3.72-.19-5.66-2.16-5.87-5.86,3.1-.78,4.84-2.31,1.5-4.77-5.55-4.08-9-10.25-14.62-14.21Z"/>
      <path class="cls-8" d="M284.04,102.09c-.95-4.49,1.05-7.92,3.96-11.02,6.02-1.04,8.87-5.5,11.37-10.41,1.26-2.48,1.95-5.21,3.35-7.62-.56-1.78-2.35-3.17-1.67-5.34,6.49,8.9,3.2,21.28-7.58,24.77-5.51,1.79-8.65,4.07-9.44,9.62Z"/>
      <path class="cls-57" d="M158.2,115.03c4.53,3.82,6.9,8.64,6.77,14.61-.03,1.53.25,2.94,1.11,4.22-.06.8-.11,1.61-.17,2.41-3.94-6.58-5.97-13.86-7.71-21.24Z"/>
      <path class="cls-1" d="M35.99,87.84c1.37,1.02,2.73,2.05,4.1,3.07-.12,1.77-.7,3.12-2.8,3.1-1.76-.28-3.18.28-4.39,1.59-1.55,1.69-2.81,1.25-3.79-.64,2.3-2.37,4.59-4.75,6.89-7.12Z"/>
      <path class="cls-65" d="M113.02,284.75c3.64-1.88,5.47.26,6.98,3.13-3.28-2.51-6.02-2.57-8.36,1.39-.8,1.36-2.4,2.24-3.63,3.34-.5-1.6-.46-3.18.24-4.72.65-2.48,2.24-3.53,4.77-3.14Z"/>
      <path class="cls-27" d="M106.12,170.93c.87-5.73,5.7-7.59,9.88-10.08-2.64,4-6.3,7-9.88,10.08Z"/>
      <path class="cls-27" d="M116.99,159.78c-.03-1.29.71-2.24,1.62-2.93,3.55-2.71,3.8-6.19,2.53-10.08,3.57,2.24,3.14,5.31,1.16,8.09-1.37,1.91-2.75,4.14-5.3,4.92Z"/>
      <path class="cls-10" d="M156.8,172.99c2.28,3.15,5.22,5.63,8.14,8.14,6.68,6.95,13.35,13.9,20.03,20.85.46.53.8,1.24.28,1.76-3.13,3.13-5.56,6.92-9.1,9.66-.9.7-1.86,1.5-3.04.43-9.8-9.67-19.6-19.33-29.4-29-.71-.7-1.42-1.4-2.09-2.14-1.59-1.77-3.38-3.02-5.5-1.02-2.23,2.1-.75,3.75.93,5.41,8.97,8.89,17.89,17.83,26.8,26.78,1.51,1.52,2.89,3.18,4.33,4.78.12,3.12-2.11,5.42-3.8,7.21-6.35,6.75-11.92,14.28-19.11,20.2-12.69,10.45-27.92,11.88-42.25,4.12-7.72-4.18-15-9.17-23.07-12.74-2.74-1.21-2.71-3.45-1.99-5.88.48-2.38,1.98-4.13,3.62-5.77,18.18-18.16,36.33-36.36,54.57-54.46,7.57-7.52,11.01-7.41,18.75.11.59.57,1.28,1.04,1.92,1.55Z"/>
      <path class="cls-55" d="M77.95,231.56c-.03,3,1.35,4.19,4.29,5.52,6.87,3.12,13.27,7.29,19.79,11.15,16.69,9.88,35.66,6.02,47.75-8.26,4.01-4.74,8-9.64,12.92-13.65,2.39-1.94,2.75-5.72,5.47-7.67,5.11,4.94,10.19,9.91,15.35,14.81,1.36,1.29.89,2-.25,3.13-15.64,15.54-31.16,31.21-46.88,46.68-4.44,4.37-9.56,4.08-14.09-.28-4.9-4.72-9.61-9.63-14.49-14.38-1.13-1.1-1.83-2.87-3.82-2.86-2.91.13-3.6-2.43-4.96-4.14-2.34-2.94-5.94-4.84-7.17-8.68-3.64-3.75-7.31-7.47-10.91-11.26-2.69-2.83-4.67-5.93-3-10.08Z"/>
      <path class="cls-29" d="M87.02,167.91q6.86,6.92.16,13.86c-3.34,3.44-6.87,6.71-10.05,10.29-1.7,1.92-2.92,2.31-4.75.34-4.5-4.83-9.09-9.57-13.64-14.35,4.84-8.05,11.54-14.26,19.28-19.44,4.21,1.93,7.84,4.43,9.01,9.3Z"/>
      <path class="cls-24" d="M53.25,134.56c.55.23,1.11.46,1.66.69,5.43,3.75,9.32,9.19,14.52,13.2,1.12.86,1.36,2.46.27,3.57-4.7,4.76-8.5,10.52-14.74,13.62-1.1.98-2.22,1.93-3.28,2.94-1.19,1.13-2.1,1.03-3.27-.19-5.3-5.55-10.7-11.03-16.06-16.53,4.51-1.27,7.57-4.57,10.36-7.97,3.04-3.71,6.79-6.48,10.53-9.33Z"/>
      <path class="cls-69" d="M39.75,120.05c.05.16.05.36.14.48q5.2,6.27-.71,12.11c-3.66,3.63-7.34,7.23-10.89,10.96-1.7,1.79-2.85,1.96-4.67-.01-4.96-5.35-10.16-10.47-15.27-15.69,5.52-3.52,10.47-7.71,14.76-12.65,1.7-1.95,2.97-4.41,5.93-4.81,4.82,1.82,8.22,5.21,10.71,9.62Z"/>
      <path class="cls-1" d="M54.97,165.64c4.27-4.35,8.47-8.77,12.84-13.02,1.7-1.66,1.61-2.62-.1-4.27-4.38-4.24-9.12-8.15-12.79-13.09.24-2.8,2.13-3.46,4.51-3.48,3.49.51,5.05,3.55,7.26,5.67,8.69,8.31,6.18,8.25,14.62.15,1.61-1.55,2.81-3.83,5.54-3.79,4.42,2.42.74,4.8-.24,6.93-.84,1.83-3.38,2.64-3.54,5.07-.32,3.15-3.55,6.55.82,9.28,2.76,3.81,7.1,6.21,9.33,10.5.33,7.12-3.71,2.65-6.19,2.34-2.4-3.55-6.04-5.83-8.99-8.82-3.68-1.59-6.36-.35-8.77,2.67-1.82,2.29-4.04,4.28-6.22,6.25-1.12,1.01-2.05,2.73-4.08,1.87-4.02,1.12-3.63-1.91-4-4.24Z"/>
      <path class="cls-51" d="M86.84,133.79c-3.45,3.35-6.94,6.66-10.32,10.08-1.63,1.65-2.72,2.23-4.68.1-3.93-4.27-8.26-8.16-12.42-12.21-1.06-1.29-2.11-2.59-3.17-3.88,5.43-2.51,9.1-7.16,13.27-11.14,2.81-2.68,4.85-2.63,7.59-.07,3.15,2.95,6.76,5.41,9.52,8.79,1.27,1.55,2.47,3.17,2.35,5.34-.72,1-1.43,1.99-2.15,2.99Z"/>
      <path class="cls-41" d="M93.21,165.57c-3.83-3.04-7.3-6.41-10-10.53-.55-2.61.77-4.58,2.46-6.2,2.76-2.64,5.52-5.28,8.27-7.93,2.54-2.44,5.04-2.22,7.42.19,2.9,2.94,6.5,5.27,8.35,9.14,1.06,2.21,3.26,2.64,5.11,3.65-4.8,4.94-9.67,9.81-14.36,14.84-1.63,1.74-2.68,1.2-4-.17-1.02-1.06-2.16-2-3.25-3Z"/>
      <path class="cls-1" d="M39.75,120.05c-4.13-2.38-6.28-7.03-10.59-9.2-.32-.14-.45-.31-.38-.51.08-.21.16-.32.25-.32-.04-2.45,2.54-3.37,3.18-5.42,1.03-.13,1.82.38,2.58.97,3.85,3.66,7.67,7.36,11.27,11.26,2.41,2.61,4.27,3.13,6.85.2,3.29-3.73,7.08-7,10.42-10.7,1.62-1.62,2.85-3.9,5.71-3.45,1.71-.88,3.36-1.43,4.87.4,1.06,1.29,1.71,2.5-.02,3.73-5.62,7.42-12.22,13.84-19.56,19.53-1.93,4.34-3.67,4.83-6.89,1.58-1.47-1.48-3.52-3.52-3.42-5.19.26-4.17-2.05-3.16-4.27-2.89Z"/>
      <path class="cls-17" d="M34.15,105.9c-.64-.43-1.28-.86-1.93-1.29-1.6-1.72-2.45-3.28-.05-5.22,1.9-1.54,3.42-3.56,5.11-5.37,1.64-.39,1.66-2.25,2.8-3.1,3.09-1.42,4.83-4.34,7.21-6.56,1.28-1.19,2.18-1.89,3.63-.32,5.92,6.4,12.67,12.01,18.13,18.85-1.62,1.4-3.24,2.8-4.86,4.19-4.79-2.79-8.07-7.24-12.04-10.93-3.85-3.57-4.21-3.29-7.58.62-3,3.48-5.93,7.25-10.42,9.12Z"/>
      <path class="cls-15" d="M91.86,252.9c4.56,3.79,8.47,8.19,12.13,12.83.46,4.58,2.67,8.04,6.22,11.02,2.26,1.9,3.44,4.78,2.82,8-1.59,1.05-3.18,2.09-4.77,3.14-2.79,2.36-4.71,6.94-9.51,4.5-2.45-1.25-4.56-3.27-6.63-5.15-5.28-4.79-10.41-9.75-15.68-14.54-1.92-1.74-2.79-3.65-2.06-6.18,1.34-.57,2.29.12,3.19.98,5.42,5.2,10.85,10.4,16.14,15.75,2.65,1.92,3.41,6.29,7.77,5.96.28-.18.56-.36.8-.58,9.46-8.72,8.83-6.98-.04-14.84-4.52-4.83-8.75-9.95-13.98-14.1-1.39-1.1-2.54-2.65-2.43-4.69,1.95-.44,3.26,1.18,5.08,1.56,1.29-.93-.66-2.83.98-3.66Z"/>
      <path class="cls-39" d="M114.82,153.89c-2.5,1.06-4.27.67-5.49-2.09-1.93-4.37-6.03-6.93-9.17-10.29-1.22-1.31-2.82-2.39-4.28-.77-4.27,4.73-10.29,7.91-12.68,14.3q-4.39-4.45-.15-9.25c4.29-4.1,8.73-8.06,12.79-12.37,1.74-1.85,2.65-1.8,4.27-.12,4.94,5.1,9.81,10.3,15.07,15.06,2.73,2.46,2.41,3.87-.37,5.53Z"/>
      <path class="cls-25" d="M54.33,126.55c6.01-7.03,12.41-13.65,19.56-19.53,5.71,5.67,11.41,11.35,17.12,17.02,3.86,3.61.02,4.92-2.03,6.76-3.28-6.17-9.13-9.85-13.99-14.5-1.51-1.45-2.26-.86-3.55.45-3.35,3.4-7.08,6.42-10.44,9.82-1.48,1.49-2.83,2.08-4.75,1.31-.64-.44-1.28-.88-1.92-1.33Z"/>
      <path class="cls-21" d="M29.04,110.02c.02.28.06.56.13.83-5.4,5.4-11.03,10.61-16.09,16.31-1.83,2.06-3.11.86-4.72.73-2.58-1.35-2.07-2.69-.24-4.45,4.5-4.31,9.03-8.62,13.2-13.24,2.78-3.09,5.08-2.99,7.73-.19Z"/>
      <path class="cls-64" d="M53.25,134.56c-4.75,6.7-11.8,11.23-16.76,17.76-1.16,1.52-2.71-.53-4.14-.45-.95-.96-2.68-1.48-.7-3.35,5.49-5.19,10.83-10.55,16.15-15.93,3.41-3.45,3.75,1.03,5.45,1.97Z"/>
      <path class="cls-32" d="M58.96,169.87c3.76-3.67,7.74-7.16,11.23-11.08,3.02-3.41,5.37-3.61,7.85.29-6.87,5.87-12.98,12.52-19.3,18.96-6-2.89-2.03-5.51.23-8.17Z"/>
      <path class="cls-68" d="M76.84,268.04c-.83-.51-1.66-1.02-2.49-1.53,0-.23,0-.47.05-.7,1.91-5.2,5.52-8.75,10.6-10.85.26,0,.53,0,.79.03,5.71,6.05,11.43,12.1,17.14,18.15.11,1.03-.61,1.1-1.34,1.17-3.8-2.58-7.75-4.88-10.22-9.08-2.64-4.49-7.18-4.8-10.88-1.18-1.3,1.27-1.86,3.2-3.66,4Z"/>
      <path class="cls-43" d="M85.01,254.96c-3.54,3.62-7.07,7.24-10.61,10.85-2.91-1.39-2.8-3.16-.68-5.23,2.11-2.06,4.41-3.99,6.22-6.3,2.32-2.94,3.65-1.55,5.07.67Z"/>
      <path class="cls-1" d="M29.1,102.33c-.19,1.19.18,3.06-1.74,2.81-1.57-.21-2.29-1.76-2.21-3.41.07-1.43.81-3.02,2.1-2.91,1.65.14,1.74,2.01,1.85,3.51Z"/>
      <path class="cls-33" d="M183.05,191.88c-4.59-5.95-10.32-10.81-15.73-15.94-3.54-3.36-3.49-5.76.23-8.71,2.46-1.95,4.79-4.15,6.78-6.56,2.33-2.84,4.04-2.65,6.12.17,4.47,6.05,10.25,10.87,15.51,16.18.46.15.77.44.95.89,1.15,1.19,2.24,2.46,3.46,3.57,6.62,5.98,5.42,4.39.2,9.91-2.72,2.88-5.69,7.29-8.81,7.52-2.72.2-5.8-4.49-8.72-7.02Z"/>
      <path class="cls-31" d="M195.92,273.04c3.93,4,7.81,8.04,11.81,11.97,1.58,1.55,2.23,2.67.24,4.57-5.13,4.9-10.12,9.97-15.01,15.12-1.71,1.79-2.84,1.94-4.6.08-3.3-3.46-6.82-6.69-10.25-10.02-1.38-1.64-2.76-3.29-4.13-4.93,6.26-6.41,12.5-12.83,19.06-18.94.96.71,1.93,1.43,2.89,2.14Z"/>
      <path class="cls-5" d="M231.25,265.98c-5.04,5.16-10.09,10.32-15.12,15.5-.85.88-1.72,1.54-3.01,1.02-4.37-4.86-8.74-9.73-14-13.68.18-1.57-1.75-1.74-2-3.02,4.73-3.19,8.01-7.9,12.25-11.62,4.79-4.21,6.16-4.35,10.01.51,3.44,4.34,8.35,7.07,11.88,11.29Z"/>
      <path class="cls-2" d="M173.11,213.82c5.24-2.66,8.01-7.8,11.87-11.85,3.74,2.52,6.61,5.99,9.65,9.22,5.19,5.53,2.41,15.99-4.68,18.69-1.13.43-1.51-.29-2.01-.8-4.96-5.07-9.89-10.17-14.82-15.26Z"/>
      <path class="cls-9" d="M231.25,265.98c-5.35-2.42-9.58-6.34-12.99-10.91-2.51-3.36-4.32-4.05-7.27-.77-2.96,3.28-6.36,6.17-9.23,9.53-1.38,1.62-2.73,2.17-4.64,1.97-2.58-1.46-2.91-2.77-.46-5.03,4.97-4.6,9.7-9.47,14.34-14.4,1.92-2.04,3.08-2.54,5.3-.17,3.14,3.34,5.98,7.04,9.87,9.64,1.86,1.99,3.67,4.03,5.61,5.94,1.74,1.72,1.42,3.03-.52,4.21Z"/>
      <path class="cls-38" d="M193.03,270.91c-5.2,7.47-11.43,13.91-19.06,18.94-3.14-1.71-3.29-3.35-.5-5.89,4.79-4.35,9.41-8.9,13.72-13.72,2.68-2.99,4.21-2.39,5.84.67Z"/>
      <path class="cls-23" d="M245.39,201.67c-3.65.84-6.19-2.09-9.4-2.78-8.52-2.85-16.61-6.49-23.09-12.98-.24-.5-.14-.92.28-1.27,4.82.59,8.34,3.87,12.37,6.06,6.3,3.42,13.16,5.56,19.51,8.84.5.65.62,1.36.33,2.13Z"/>
      <path class="cls-54" d="M213.07,184.83c-.05.36-.11.72-.16,1.08-3.77-2.72-9.5-2.31-11.81-7.57-.28-.64-2.74-.32-4.19-.45-.63.04-.93-.28-.95-.89-.32-1.03-.64-2.07-.97-3.1,2.96-1.55,4.72,1.78,7.3,1.79,4.14,2.4,8.55,4.47,10.77,9.14Z"/>
      <path class="cls-5" d="M218.01,295.8c4.88,4.72,9.73,9.48,14.66,14.14,1.47,1.39,1.18,2.34-.12,3.62-5.33,5.24-10.61,10.52-15.83,15.86-1.32,1.35-2.27,1.52-3.62.09-4.66-4.93-9.4-9.78-14.12-14.66.04-1.21.33-2.6,1.2-3.18,6.67-4.49,10.86-11.73,17.83-15.85Z"/>
      <path class="cls-36" d="M242.91,320.96c5.35,3.94,9.37,9.29,14.32,13.66,1.41,1.25.89,2.16-.23,3.26-5.33,5.26-10.65,10.53-15.86,15.91-1.69,1.75-2.77,1.01-4.07-.34-4.37-4.54-8.79-9.03-13.19-13.54,1.65-5.31,6.34-8.24,9.71-12.17,2.49-2.91,4.74-6.58,9.32-6.78Z"/>
      <path class="cls-40" d="M279.75,314.75c-4.93,5.07-9.9,10.09-14.76,15.23-1.52,1.6-2.67,1.45-4.09-.02-4.9-5.09-9.84-10.13-14.76-15.19,3.65-4.2,7.93-7.78,11.6-12,3.34-3.84,5.18-3.39,9.33-.36,4.83,3.53,7.57,9.15,12.68,12.35Z"/>
      <path class="cls-28" d="M253.9,291.74c-4.36,4.54-8.77,9.02-13.04,13.64-1.64,1.78-2.9,1.68-4.48.03-4.72-4.9-9.49-9.75-14.25-14.62,3.65-4.92,7.78-9.38,12.25-13.57,2.32-2.17,4.45-2.54,6.95-.38,4.98,4.31,10.43,8.2,12.57,14.9Z"/>
      <path class="cls-47" d="M279.75,314.75c-3.89.8-5.01-2.72-6.8-4.75-1.63-1.85-3.2-3.71-5.07-5.31-5.8-4.99-7.31-4.87-11.85,1.61-2.6,3.72-5.85,6.52-9.89,8.46-3.14-1.66-2.72-3.45-.43-5.66,4.27-4.14,8.54-8.31,12.52-12.72,2.82-3.13,5.15-4.41,7.95-.11.68,1.04,1.94,1.7,2.93,2.54,1.63,2.28,3.54,4.29,5.88,5.86,1.13,2.25,3.16,3.68,4.99,5.23,2.17,1.83,2.34,3.35-.22,4.85Z"/>
      <path class="cls-12" d="M253.9,291.74c-4.17-4.86-7.97-10-13.19-13.97-2.6-1.98-3.8-1.53-5.69.48-3.27,3.45-6.94,6.51-9.61,10.52-.76,1.15-1.82,1.94-3.27,2.03-.6-.37-1.2-.73-1.8-1.1-.83-1.37-1.72-2.47.02-4.11,5.5-5.22,10.88-10.56,16.09-16.06,1.78-1.88,2.38-.47,3.4.5,4.39,4.2,8.79,8.4,13.19,12.6.47.65.81,1.46,1.43,1.91,3.77,2.75,3.03,5.07-.56,7.21Z"/>
      <path class="cls-20" d="M218.01,295.8c-4.73,5.53-9.11,11.44-15.64,15.04-1.73.96-1.24,3.54-3.38,3.99-4.26-2.27-3.91-4.55-.48-7.58,4.18-3.69,8.16-7.65,11.86-11.82,2.98-3.37,5.28-3.86,7.65.36Z"/>
      <path class="cls-4" d="M242.91,320.96c-7.6,5.06-12.7,12.62-19.04,18.95-4.28-2.53-4.62-4.99-.59-8.43,4.38-3.74,8.36-7.99,12.26-12.25,2.43-2.66,4.19-3.71,5.87.48.21.53.99.84,1.5,1.25Z"/>
      <path class="cls-22" d="M189.06,67.96c8.94,8.69,17.88,17.37,26.82,26.06.33.34.66.69.99,1.03,4.12,1.13,5.46,5.38,8.59,7.62,6.64,6.23,12.67,13.08,19.42,19.2,1.57,1.43,3.17,2.91,3.63,5.16.77.78,1.55,1.57,2.32,2.35,2.59-.08,3.56,2.22,4.89,3.68,4.23,4.67,9.83,8.11,12.74,13.97,1.19,1.7,2.61,3.15,4.41,4.2,12.05,12.12,24.08,24.27,36.16,36.36,4.07,4.07,8.28,8.01,13.18,12.73-3.55.65-5.69,1.87-8.2,1.55-6.86-8.06-14.27-15.57-22.35-22.41-3.72-3.31-7.22-6.83-10.55-10.52-11.49-10.38-21.97-21.77-33.12-32.49-7.9-7.6-15.5-15.55-23.23-23.36-9.7-9.81-20.27-18.74-29.55-28.92-6.63-7.28-14.18-13.55-20.95-20.64-1.3-1.37-2.71-3.43-5-2.51-1.95.78-1.64,3.05-2.09,4.79-4.09,15.96-3.37,31.95-.42,47.97.47,2.53,1.38,5.25-.94,7.48-7-17.85-7.79-36.37-5.83-55.16.31-2.96.82-5.91,1.24-8.86,1.74-3.89,1.27-8.49,4.05-12.44,8,7.79,15.9,15.47,23.79,23.16Z"/>
      <path class="cls-72" d="M278.37,84.96c-.03-.31-.07-.62-.11-.92-2.14-12.13,3.59-17.87,15.77-15.78l.24-.43c2.45.94,3.43,2.77,3.22,5.31-1.68,2.18-2.33-.11-3.55-.55.32,6.54-3.51,11.38-7.76,16.02-3.38.43-6.19-.33-7.8-3.66Z"/>
      <path class="cls-44" d="M252.1,123.5c4.83,4.01,9.17,8.52,13.37,13.17,1.42,1.57,2.79,4.04,4.95,3.52,2.28-.55,1.11-3.47,1.76-5.26.47,1.38.9,2.77,1.4,4.13,1.69,4.57,0,7.22-5.12,7.97-6.1-5.66-12.1-11.43-17.63-17.65.98-1.84,1.28-3.83,1.27-5.89Z"/>
      <path class="cls-46" d="M236.89,107.95c1.73,1.85,3.46,3.69,5.18,5.53,2.24,3.9,4.46,7.81,6.75,11.69.47.8.79,1.41-.31,1.87-8.31-7.65-16.27-15.65-23.95-23.93,2.21-2.03,4.02-.55,5.37.98,1.92,2.18,4.32,3.15,6.97,3.85Z"/>
      <path class="cls-35" d="M278.37,84.96c2.3,1.57,4.49,3.41,7.57,3.06,9.7-2.51,12.35-6.1,11.24-15.2.01-2.24-2.47-3.02-2.92-5,2.2-2.03,2.7.26,3.36,1.46,1.15,2.09,2.49,3.74,5.1,3.75-.26,7.5-4.42,12.92-9.6,17.73-1.47,1.36-3.35,1.26-5.12.3-3.88.04-7.02-1.63-9.68-4.31-.51-.51-1.36-1.24.04-1.8Z"/>
      <path class="cls-30" d="M294.03,68.26c-2.83,1.8-6.19.37-9.37,2-4.54,2.32-6.39,5.18-5.79,10.03.16,1.27.41,2.63-.6,3.75-3.99-5.58-3.35-11.96,1.62-16.35,4.34-3.82,9.39-3.62,14.15.57Z"/>
      <path class="cls-11" d="M236.89,107.95c-2.64.95-4.8,1.27-6.64-1.86-1.01-1.71-2.87-3.8-5.7-2.98-3-2.27-5.37-5.13-7.68-8.06,2.08-1.5,4.2-1.26,6.35-.18,5.2,3.69,9.2,8.62,13.67,13.07Z"/>
      <path class="cls-60" d="M281.99,168.84c3.82,2.83,7.01,6.3,10.03,9.94,5.2,4.41,9.63,9.6,14.57,14.29,2.06,1.95,4.22,4.06,3.02,7.32-1.2,3.25-4.33,3.15-7.05,3.75-16.96,3.7-33.59,1.1-50.18-2.53-2.08-.45-4.19-1.25-6.31-.12-.22.08-.45.14-.68.19-.17-.62-.35-1.25-.52-1.87-8.33-4.05-16.96-7.44-25.07-11.97-4.65-2.6-8.7-6.01-12.93-9.17-7.59-5.66-14.06-12.43-19.43-20.24-6.44-5.68-8.75-13.85-12.7-21.04,2.07-1.75,3.82-.94,5.77.43,15.51,10.91,32.38,18.68,50.93,23.04,14.78,3.47,29.58,6.07,44.82,5.72,2.17-.05,4.38.11,5.74,2.27Z"/>
      <path class="cls-42" d="M246.07,201.48c1.64-3.15,4.36-1.57,6.5-1.2,10.54,1.81,20.97,4.39,31.75,4.52,6.95.09,13.68-2.02,20.66-2.12,4.27-.06,5.33-4.35,2.01-8.14-3.15-3.59-6.79-6.76-10.09-10.22-1.69-1.78-3.85-3.17-4.88-5.54,6.82,3.93,11.28,10.42,16.88,15.67,2.19,2.05,5.29,3.67,5.1,7.43-3.01,2.36-7.02,1.43-10.23,3.14-11.28,2.82-22.74,2-34.16,1.42-2.11-.11-4.26-.55-6.41-.59-5.07-.11-9.82-1.32-14.17-3.98-.99-.13-1.98-.25-2.97-.38Z"/>
      <path class="cls-7" d="M249.03,201.86c13.29,3.03,26.69,4.84,40.38,4.29,4.82-.19,9.51-1.68,14.37-1.14-3.28,3.29-7.72,2.41-11.59,2.72-11.77.94-23.55-.42-35.32-.93-3.4-.15-5.94-2.17-7.84-4.94Z"/>
      <path class="cls-34" d="M202.42,176.73c-3.05.58-4.64-2.69-7.42-2.83-5.41-4.83-9.84-10.36-13.29-16.83-1.76-3.3-5.02-5.61-7.06-9.03-2.14-3.59-3.4-7.29-4.63-11.12.37-.33.81-.49,1.31-.52,3.71,1.45,4.41,5.28,6.05,8.18,2.39,4.23,5.18,8.11,8.14,11.91,4.37,6.84,10.57,12.08,15.85,18.13.56.64,1.09,1.21,1.05,2.11Z"/>
      <path class="cls-45" d="M171.32,136.79c-.43.04-.87.08-1.3.13-1.34-.54-1.84-1.66-2.04-2.98-.32-3.01-3.01-5.57-1.72-8.89,3.23,1.12,2.8,4.72,4.61,6.81.67,1.6,1.57,3.18.46,4.94Z"/>
      <path class="cls-6" d="M169.98,131.95c-1.25-2.3-2.49-4.6-3.73-6.9-.15-1.25-.29-2.51-.44-3.77.69-6.88-1.31-13.5-2.1-20.23-1.54-13.03-.06-25.8,2.69-38.48,1.02-4.71,3.67-5.08,7.75-1.09,7.94,7.76,15.69,15.71,23.59,23.51,14.36,14.14,28.81,28.19,43.15,42.35,11.91,11.76,23.77,23.57,35.46,35.55,1.9,1.94,5.11,2.73,5.63,5.96-2.64-1.4-5.52-.98-8.31-.96-14.1.1-27.74-2.64-41.52-5.41-10.03-2.02-19.25-5.71-28.33-9.73-8.6-3.81-17.59-7.41-24.51-14.28-1.38-1.37-2.77-1.02-4.28-.53-3.33-.6-2.86-4.43-5.07-5.98Z"/>
      <path class="cls-52" d="M34.15,105.9c2.93-4.71,8.63-6.88,10.96-12.25.87-2,3.36-2.54,5.07-.9,4.83,4.61,9.92,9,14.01,14.34-4.23,4.4-8.49,8.76-12.66,13.22-1.38,1.47-2.27,1.24-3.56-.13-4.55-4.82-9.21-9.53-13.82-14.28Z"/>
      <path class="cls-70" d="M76.84,268.04c1.2-4.09,3.7-7.55,7.91-7.82,4.02-.26,6.67,2.26,8.9,6.32,1.52,2.76,5.31,5.09,8.31,7.33.26.22.39.48.37.76-.02.29-.06.44-.13.44-3.13,2.6-5.79,5.63-8.01,9.04-.46.16-.89.11-1.32-.11-5.61-5.05-11.09-10.23-16.03-15.96Z"/>
      <path class="cls-59" d="M102.03,274.89c-.02-.34-.05-.68-.07-1.02.32-.24.65-.48.98-.73.16.05.35.05.47.15q8.69,7.17-1.32,17.29c-.58-.51-.77-1.17-.72-1.91.05-.32.06-.7.26-.92,3.75-4.18,5.13-8.42.4-12.86Z"/>
      <path class="cls-37" d="M102.05,288.76c.01.61.03,1.21.04,1.82-5.27.88-6.42-4.01-9.22-6.58.38-.08.76-.16,1.15-.24,3.72,0,5.46,3.17,8.03,5Z"/>
      <path class="cls-16" d="M202.42,176.73c-5.94-6.54-13.14-11.95-17.7-19.73,1.42-1.01,2.21.46,3.28.84,1.09.08,1.77.65,2.29,1.62,4.66,8.55,12.39,14.15,19.53,20.33,6.89,5.97,15.31,9.41,23.1,13.87,3.86,2.21,8.93,2.17,11.95,6.14-10.04-2.29-18.8-7.43-27.59-12.48-1.41-.81-2.81-1.65-4.21-2.48-3.55-2.7-7.1-5.4-10.65-8.1Z"/>
      <path class="cls-63" d="M297.18,72.83c2.98,3.59,1.7,7.13-.46,10.37-2.5,3.77-5.88,6.16-10.79,4.83,2.96-5.47,7.86-10.11,6.94-16.92,2.48-1.29,1.79,3.58,4.3,1.73Z"/>
      <path class="cls-13" d="M188,157.84c-1.09-.28-2.19-.56-3.28-.84-4.6-4.71-7.59-10.5-10.78-16.16-.79-1.4-1.17-3.07-2.62-4.04-.44-1.62-.89-3.23-1.33-4.85,2.81,1.04,3.53,3.86,5.07,5.98,2.93,2.2,4.76,4.6,5.35,8.7.65,4.45,5.43,7.17,7.59,11.21Z"/>
      <path class="cls-50" d="M102.05,288.76c-3.76.07-5.19-3.6-8.03-5,1.21-4.28,3.8-7.31,8.01-8.87.37.32.72.67,1.11.97q5.29,4.03,1.39,9.22c-.89,1.19-1.66,2.46-2.48,3.69Z"/>
    </g>
  </g>
</svg>